<svg width="316" height="315" viewBox="0 0 316 315" fill="none" xmlns="http://www.w3.org/2000/svg">
<path d="M160.477 299.569C243.081 299.569 310.046 232.604 310.046 150C310.046 67.3956 243.081 0.431458 160.477 0.431458C77.8726 0.431458 10.9084 67.3956 10.9084 150C10.9084 232.604 77.8726 299.569 160.477 299.569Z" fill="white"/>
<path d="M241.405 133.781C241.405 133.781 233.425 130.351 227.807 148.956C222.19 167.562 220.672 177.997 220.672 177.997C220.672 177.997 219.015 181.999 216.149 180.093C213.282 178.188 208.721 172.18 204.76 174.127C200.799 176.074 200.106 181.228 202.208 188.167C204.311 195.106 208.35 210.5 208.718 211.896C209.087 213.292 208.641 215.447 206.475 214.468C204.308 213.489 191.003 203.15 186.477 209.746C181.95 216.343 190.978 234.76 191.903 236.772C192.827 238.783 192.608 239.782 191.682 240.496C190.757 241.211 186.641 237.288 182.716 234.517C178.792 231.746 173.809 229.169 171.505 233.216C169.201 237.262 170.906 251.951 188.962 273.071L197.989 282.315L210.611 279.309C237.237 271.233 246.601 259.713 246.809 255.109C247.016 250.505 241.443 249.925 236.651 250.166C231.86 250.408 226.271 251.48 225.88 250.38C225.489 249.281 225.804 248.329 227.695 247.129C229.585 245.928 247.097 235.292 246.799 227.322C246.501 219.353 229.755 220.881 227.402 220.531C225.049 220.181 225.874 218.122 226.903 217.158C227.932 216.193 239.672 205.361 245.142 200.695C250.611 196.03 252.922 191.384 250.545 187.473C248.254 183.708 241.181 186.337 237.751 186.398C234.321 186.459 235.063 182.191 235.063 182.191C235.063 182.191 239.39 172.589 244.678 153.877C249.966 135.164 241.166 133.77 241.166 133.77" fill="#EDF0F7"/>
<path d="M196.392 284.994C200.329 271.264 207.733 246.984 213.971 226.107C220.209 205.229 225.848 186.327 229.858 172.622L234.571 156.389L235.846 151.958C235.989 151.468 236.115 151.087 236.189 150.809C236.262 150.532 236.322 150.421 236.322 150.421C236.322 150.421 236.3 150.566 236.233 150.822L235.954 151.946C235.671 152.983 235.266 154.473 234.719 156.331C233.661 160.175 232.085 165.737 230.124 172.602C226.187 186.332 220.592 205.247 214.354 226.125C208.116 247.002 200.668 271.269 196.65 284.953" fill="#B6C0D8"/>
<path d="M210.775 182.807C210.956 183.062 211.116 183.332 211.253 183.614C211.53 184.142 211.921 184.924 212.399 185.882C213.371 187.841 214.565 190.51 215.883 193.513L219.197 201.21L220.222 203.52C220.37 203.795 220.483 204.088 220.559 204.391C220.369 204.147 220.208 203.881 220.081 203.598C219.797 203.064 219.406 202.282 218.942 201.323C218.021 199.383 216.832 196.648 215.515 193.66L212.145 185.995L211.112 183.678C210.967 183.402 210.853 183.11 210.775 182.807V182.807Z" fill="#B6C0D8"/>
<path d="M221.771 204.405C221.695 204.336 227.158 201.51 233.938 198.189C240.719 194.868 246.248 192.227 246.288 192.318C246.329 192.41 240.901 195.213 234.121 198.548C227.341 201.884 221.818 204.504 221.771 204.405Z" fill="#B6C0D8"/>
<path d="M210.734 236.039C211.035 235.934 211.346 235.861 211.662 235.822L214.208 235.385C216.361 235.001 219.335 234.457 222.59 233.74C225.845 233.024 228.781 232.279 230.931 231.687L233.431 231.027C233.734 230.928 234.048 230.862 234.366 230.832C234.083 230.98 233.783 231.096 233.474 231.177C232.899 231.37 232.054 231.648 231.001 231.957C228.903 232.583 225.977 233.378 222.728 234.073C219.48 234.767 216.482 235.277 214.298 235.604C213.216 235.749 212.335 235.87 211.724 235.92C211.398 235.99 211.067 236.03 210.734 236.039Z" fill="#B6C0D8"/>
<path d="M196.491 218.677C196.733 218.848 196.953 219.049 197.147 219.273L198.739 221.066C200.089 222.61 201.883 224.71 203.857 227.098C205.83 229.485 207.633 231.607 208.912 233.183L210.406 235.053C210.605 235.27 210.772 235.515 210.902 235.779C210.667 235.605 210.45 235.407 210.254 235.19L208.662 233.397C207.313 231.853 205.511 229.746 203.545 227.365C201.579 224.984 199.776 222.849 198.497 221.272L197.002 219.403C196.804 219.181 196.633 218.938 196.491 218.677V218.677Z" fill="#B6C0D8"/>
<path d="M183.208 245.362C183.493 245.611 183.759 245.88 184.004 246.168L186.052 248.458C187.767 250.404 190.101 253.091 192.695 256.098C195.29 259.106 197.59 261.845 199.256 263.829L201.215 266.217C201.471 266.495 201.698 266.798 201.893 267.123C201.606 266.881 201.343 266.613 201.105 266.323L199.057 264.033C197.334 262.081 195.008 259.4 192.406 256.386C189.804 253.372 187.504 250.647 185.845 248.656L183.886 246.267C183.631 245.988 183.404 245.685 183.208 245.362V245.362Z" fill="#B6C0D8"/>
<path d="M201.58 266.466C201.962 266.328 202.355 266.225 202.756 266.158L205.975 265.465C208.689 264.889 212.436 264.07 216.549 263.046C220.661 262.022 224.356 261.004 227.032 260.257L230.192 259.357C230.579 259.222 230.977 259.123 231.382 259.063C231.018 259.235 230.642 259.381 230.256 259.498C229.518 259.75 228.453 260.103 227.123 260.505C224.473 261.33 220.773 262.399 216.673 263.394C212.574 264.388 208.797 265.194 206.066 265.713C204.7 265.958 203.557 266.185 202.811 266.264C202.406 266.359 201.995 266.427 201.58 266.466V266.466Z" fill="#B6C0D8"/>
<path d="M196.199 290.757C180.773 271.628 183.689 245.283 190.993 222.96C192.214 219.243 192.95 215.155 195.703 212.369C198.455 209.583 203.283 208.545 206.185 211.114C208.607 213.239 208.874 216.839 209.663 219.989C210.711 224.178 212.92 227.985 216.037 230.973C218.069 232.91 220.815 234.54 223.553 233.928C227.322 233.082 229.004 228.703 230.069 224.962L236 204.045C237.068 200.293 238.164 196.472 240.358 193.262C242.552 190.051 246.081 187.492 249.933 187.531C253.785 187.57 257.589 190.902 257.272 194.777C256.969 196.359 256.555 197.918 256.033 199.443C255.67 201.03 255.911 202.954 257.26 203.819C258.609 204.684 260.442 204.026 261.849 203.284C266.811 200.631 270.818 196.524 274.693 192.398C278.569 188.273 282.365 184.005 287.072 180.899C291.779 177.792 297.574 175.875 303.015 177.193C308.455 178.51 313.213 183.409 313.035 189.06C312.857 194.711 308.243 199.2 303.642 202.491C296.84 207.356 289.374 211.217 281.472 213.955C279.99 214.291 278.654 215.091 277.659 216.239C276.116 218.497 277.769 221.659 279.992 223.194C282.514 224.934 285.645 225.525 288.443 226.709C291.241 227.893 294.04 230.104 294.386 233.19C294.807 237.469 290.442 240.542 286.523 242.257C278.691 245.682 270.328 247.734 261.8 248.324C258.758 248.532 255.558 248.568 252.787 249.865C250.016 251.162 247.694 254.121 248.264 257.146C248.835 260.172 252.038 262.018 255.073 262.328C258.108 262.638 261.155 261.812 264.205 261.569C269.911 261.129 276.444 263.401 278.45 268.809C279.766 272.364 278.776 276.481 276.666 279.649C274.416 282.712 271.575 285.294 268.311 287.242C257.318 294.67 244.55 299.045 231.312 299.92C218.182 300.631 206.803 298.501 196.207 290.721" fill="#BFEBE8"/>
<path d="M206.121 278.312C213.429 267.119 221.375 256.355 229.921 246.074L236.591 237.948C238.782 235.293 240.958 232.647 243.311 230.203C247.714 225.506 252.374 221.056 257.27 216.875C261.902 212.848 266.449 209.198 270.761 205.815C275.072 202.433 279.113 199.372 282.934 196.731C288.911 192.529 295.21 188.805 301.774 185.595C304.098 184.468 305.931 183.65 307.19 183.121L308.568 182.508C308.727 182.428 308.894 182.367 309.067 182.325C308.922 182.426 308.766 182.511 308.601 182.578L307.211 183.25C305.979 183.822 304.161 184.681 301.853 185.848C295.324 189.136 289.051 192.91 283.088 197.138C279.288 199.796 275.257 202.871 270.992 206.264C266.727 209.657 262.187 213.334 257.567 217.364C252.701 221.544 248.067 225.987 243.686 230.673C241.421 233.112 239.262 235.737 237.057 238.401C234.852 241.064 232.645 243.789 230.398 246.53C221.872 256.789 213.93 267.52 206.608 278.671" fill="#72B1B5"/>
<path d="M243.455 230.224C243.427 229.656 243.461 229.087 243.558 228.527C243.659 227.437 243.858 225.861 244.14 223.921C244.694 220.039 245.639 214.712 246.699 208.829C247.759 202.946 248.64 197.629 249.129 193.757C249.376 191.809 249.573 190.245 249.685 189.157C249.713 188.588 249.801 188.023 249.947 187.472C250.012 188.037 250.018 188.606 249.966 189.172C249.927 190.264 249.825 191.849 249.624 193.808C249.265 197.71 248.472 203.072 247.401 208.952C246.329 214.832 245.36 219.993 244.63 223.996C244.304 225.803 244.028 227.336 243.822 228.563C243.761 229.128 243.638 229.685 243.455 230.224V230.224Z" fill="#72B1B5"/>
<path d="M294.149 235.202C293.481 235.151 292.819 235.041 292.17 234.874C290.912 234.586 289.07 234.252 286.795 233.868C282.252 233.065 275.934 232.178 268.923 231.503C261.913 230.829 255.542 230.499 250.914 230.394C248.604 230.324 246.737 230.318 245.44 230.306C244.769 230.34 244.096 230.31 243.431 230.218C244.094 230.089 244.768 230.024 245.443 230.022C246.7 229.938 248.606 229.879 250.921 229.876C255.553 229.858 262.001 230.119 268.991 230.776C274.996 231.334 280.968 232.199 286.884 233.369C289.158 233.814 290.976 234.304 292.235 234.592C292.891 234.732 293.532 234.937 294.149 235.202V235.202Z" fill="#72B1B5"/>
<path d="M206.976 277.604C206.89 277.386 206.834 277.156 206.81 276.923L206.497 274.934C206.234 273.215 205.903 270.714 205.544 267.626C204.831 261.437 204.104 252.869 203.423 243.396C202.742 233.923 202.105 225.339 201.538 219.159C201.249 216.148 201 213.666 200.813 211.829C200.747 211.034 200.687 210.377 200.638 209.834C200.595 209.6 200.587 209.36 200.615 209.123C200.697 209.347 200.752 209.58 200.778 209.816C200.868 210.344 200.966 210.998 201.093 211.794C201.368 213.515 201.688 216.013 202.046 219.102C202.76 225.291 203.487 233.859 204.165 243.343C204.843 252.828 205.485 261.388 206.052 267.569C206.354 270.582 206.591 273.062 206.778 274.899C206.843 275.693 206.913 276.365 206.964 276.896C207 277.131 207.004 277.369 206.976 277.604V277.604Z" fill="#72B1B5"/>
<path d="M276.882 275.565C276.65 275.622 276.411 275.646 276.172 275.638L274.137 275.718L266.66 275.951C260.34 276.153 251.607 276.52 241.957 276.95C232.306 277.38 223.549 277.692 217.232 277.721C214.066 277.765 211.506 277.761 209.732 277.727L207.691 277.669C207.455 277.678 207.219 277.657 206.988 277.607C207.22 277.545 207.46 277.516 207.7 277.522L209.735 277.443L217.212 277.209C223.532 277.008 232.265 276.64 241.924 276.225C251.584 275.809 260.321 275.48 266.64 275.44C269.803 275.408 272.366 275.399 274.137 275.445L276.181 275.492C276.417 275.482 276.653 275.507 276.882 275.565V275.565Z" fill="#72B1B5"/>
<path d="M82.4449 251.373C75.8791 245.517 73.6418 234.952 73.2492 226.173C72.8565 217.393 73.6473 208.374 71.0689 199.975C69.5421 194.993 66.8897 190.4 65.5028 185.375C64.1159 180.349 64.248 174.441 67.746 170.579C71.7721 166.144 79.0699 166.032 84.3084 168.936C89.5469 171.839 93.0892 177.049 95.924 182.334C102.048 193.972 105.579 207.336 103.696 220.366C101.813 233.395 94.9097 245.766 82.9649 251.264" fill="#BFEBE8"/>
<path d="M114.469 262.26C114.937 258.921 116.483 255.54 119.365 253.797C122.248 252.054 126.167 252.234 129.591 252.958C133.015 253.682 136.449 254.831 139.94 254.56C143.431 254.289 147.126 252.091 147.696 248.604C148.225 245.353 145.886 242.299 143.217 240.361C140.397 238.321 137.11 237.023 133.657 236.587C130.205 236.152 126.698 236.591 123.46 237.866C120.222 239.141 117.357 241.211 115.129 243.884C112.9 246.557 111.381 249.748 110.709 253.162" fill="#79BFC4"/>
<path d="M88.9636 280.041C83.2099 275.981 82.3325 267.476 83.8969 260.588C85.4612 253.7 90.3427 247.904 96.0587 243.719C101.655 239.696 108.09 236.995 114.88 235.819C121.671 234.642 128.64 235.021 135.263 236.926C132.225 237.478 129.37 238.768 126.948 240.682C124.526 242.597 122.611 245.077 121.373 247.905C119.231 252.927 119.399 258.635 117.781 263.839C115.968 269.718 111.969 274.677 106.607 277.694C101.246 280.711 94.931 281.555 88.9653 280.053" fill="#BFEBE8"/>
<path d="M28.2354 240.206C18.7119 247.955 19.5381 253.668 22.0392 258.83C24.5403 263.991 31.4492 266.83 36.4817 264.104C39.3095 262.49 41.1111 259.633 42.6059 256.758C44.1008 253.884 45.4256 250.838 47.7744 248.586C50.1233 246.333 53.7717 245.103 56.6345 246.6" fill="#79BFC4"/>
<path d="M21.4594 248.19C23.651 244.037 30.2292 242.007 34.7406 243.284C39.252 244.561 42.891 247.859 46.1925 251.18C49.494 254.502 52.7676 258.058 56.984 260.094C61.2004 262.131 66.7352 262.376 70.2401 259.171C71.3384 258.086 72.2038 256.788 72.7834 255.357C73.363 253.926 73.6446 252.392 73.611 250.849C73.521 247.762 72.8791 244.715 71.7158 241.854C70.1839 237.616 68.0762 233.263 64.1654 230.976C59.8293 228.433 54.4032 229.049 49.4128 229.908C43.7352 230.899 38.0077 232.141 32.9274 234.874C27.8472 237.607 22.9796 242.635 21.4117 248.197" fill="#BFEBE8"/>
<path fill-rule="evenodd" clip-rule="evenodd" d="M87.8704 280.789C88.4477 276.942 89.411 272.88 91.0371 268.81C94.321 260.48 99.4608 253.008 106.066 246.963C107.311 245.778 108.5 244.796 109.589 243.974C110.678 243.152 111.629 242.47 112.414 241.91L114.251 240.691C114.477 240.56 114.688 240.404 114.879 240.225C114.636 240.317 114.404 240.435 114.187 240.578L112.277 241.71C111.468 242.189 110.452 242.842 109.38 243.699C109.091 243.929 108.788 244.165 108.475 244.408L108.473 244.409C107.623 245.069 106.694 245.79 105.765 246.64C99.006 252.653 93.7621 260.177 90.4599 268.599C88.9691 272.423 87.9085 276.418 87.3079 280.473C87.4915 280.586 87.6711 280.684 87.8704 280.789ZM78.8704 275.367C79.0179 273.639 79.2375 271.624 79.4972 269.906C80.1349 265.922 81.0209 261.752 81.9426 257.414C82.6795 253.946 83.4391 250.371 84.1129 246.698C85.6166 238.917 86.162 230.982 85.737 223.069C85.3513 216.626 84.557 210.214 83.3588 203.872C82.3683 198.462 81.4042 194.107 80.7281 191.111C80.5101 190.135 80.3167 189.297 80.1556 188.599L80.1552 188.597L80.154 188.592C80.074 188.245 80.0021 187.933 79.939 187.656C79.7796 187.301 79.7378 187.003 79.7043 186.764C79.7019 186.659 79.6873 186.555 79.6607 186.454C79.6617 186.559 79.6763 186.663 79.7043 186.764L79.8332 187.683C79.9041 188.04 79.9853 188.456 80.0776 188.928L80.0778 188.929C80.2026 189.567 80.3477 190.309 80.515 191.153L80.668 191.914C81.2661 194.886 82.0891 198.975 82.9445 203.954C84.0851 210.287 84.8327 216.685 85.183 223.11C85.5773 230.977 85.0212 238.863 83.5269 246.597C82.8963 249.975 82.1971 253.291 81.5146 256.528C80.5432 261.136 79.6057 265.582 78.9487 269.813C78.7056 271.446 78.4359 273.342 78.2961 274.984C78.4666 275.101 78.6995 275.251 78.8704 275.367ZM71.8704 270.508C71.3743 268.02 70.7211 265.337 70.0475 262.922C69.2863 259.987 68.2855 257.12 67.0554 254.349C65.8397 251.801 64.3866 249.373 62.7155 247.097C59.9271 243.204 56.4842 239.825 52.5401 237.111C49.8696 235.304 46.9377 233.918 43.8466 233.001C43.0198 232.753 42.1793 232.554 41.3292 232.405C41.0297 232.346 40.7271 232.303 40.4228 232.277C40.7032 232.397 40.9972 232.482 41.2982 232.531C42.1545 232.719 42.9999 232.954 43.8307 233.234C46.8731 234.211 49.7568 235.627 52.391 237.436C56.2377 240.175 59.5913 243.548 62.3091 247.409C63.944 249.666 65.365 252.07 66.5538 254.59C67.7597 257.33 68.7472 260.162 69.5069 263.058C70.114 265.247 70.6346 267.84 71.136 269.961C71.3675 270.137 71.6379 270.333 71.8704 270.508Z" fill="#72B1B5"/>
<path d="M81.6391 142H24.0891V157.5H81.6391V142Z" fill="#EDF0F7"/>
<path d="M105.729 173.4C105.722 173.307 105.722 173.213 105.729 173.12C105.729 172.91 105.729 172.65 105.729 172.32C105.729 171.6 105.729 170.58 105.729 169.32C105.729 166.65 105.669 162.8 105.639 157.95L105.799 158.1L48.2492 158.21C48.3592 158.09 47.9792 158.47 48.4992 157.95V173.43L48.2392 173.17L89.2392 173.29L101.329 173.36H104.599H105.459C105.559 173.346 105.66 173.346 105.759 173.36H105.489H104.669H101.449L89.4492 173.43L48.1692 173.68H47.9192V173.43C47.9192 170.94 47.9192 168.43 47.9192 165.81V157.95L48.1892 157.68L105.739 157.79H105.899V157.95C105.899 162.84 105.829 166.73 105.809 169.42C105.809 170.71 105.809 171.72 105.809 172.42C105.809 172.74 105.809 172.99 105.809 173.19C105.786 173.261 105.759 173.331 105.729 173.4Z" fill="#CCD7ED"/>
<path d="M265.639 104H208.089V119.5H265.639V104Z" fill="#EDF0F7"/>
<path d="M289.719 135.4C289.719 135.4 289.719 135.3 289.719 135.12C289.719 134.94 289.719 134.65 289.719 134.32C289.719 133.6 289.719 132.58 289.719 131.32C289.719 128.65 289.669 124.79 289.629 119.94L289.789 120.1L232.239 120.2L232.499 119.94V127.8C232.499 130.39 232.499 132.93 232.499 135.42L232.249 135.16L273.249 135.28L285.349 135.35H288.619H289.469H289.769H289.499H288.679H285.469L273.469 135.43L232.259 135.54H231.999V119.92L232.259 119.66L289.809 119.76H289.969V119.92C289.969 124.82 289.899 128.7 289.879 131.39C289.879 132.68 289.879 133.69 289.879 134.39C289.879 134.71 289.879 134.96 289.879 135.16C289.836 135.246 289.782 135.327 289.719 135.4V135.4Z" fill="#CCD7ED"/>
<path d="M60.3592 104.91V68.19C60.3592 66.2633 60.4159 64.2233 60.5292 62.07C60.6992 59.86 60.9259 57.565 61.2092 55.185L25.5092 104.91H60.3592ZM95.0392 104.91V118.17C95.0392 119.417 94.6142 120.493 93.7642 121.4C92.9709 122.25 91.8375 122.675 90.3642 122.675H80.7592V152H60.3592V122.675H9.44421C7.97088 122.675 6.61088 122.222 5.36421 121.315C4.17421 120.408 3.43754 119.218 3.15421 117.745L0.689209 106.015L58.4892 28.58H80.7592V104.91H95.0392Z" fill="#FB7F8E"/>
<path d="M221.461 63.43C222.367 57.4233 224.067 52.1533 226.561 47.62C229.054 43.0867 232.171 39.3183 235.911 36.315C239.651 33.3117 243.901 31.0733 248.661 29.6C253.477 28.07 258.662 27.305 264.216 27.305C270.109 27.305 275.379 28.155 280.026 29.855C284.729 31.4983 288.696 33.765 291.926 36.655C295.156 39.545 297.621 42.9167 299.321 46.77C301.077 50.6233 301.956 54.76 301.956 59.18C301.956 63.09 301.531 66.5467 300.681 69.55C299.887 72.4967 298.669 75.075 297.026 77.285C295.439 79.495 293.456 81.365 291.076 82.895C288.752 84.425 286.061 85.7 283.001 86.72C297.167 91.3667 304.251 100.802 304.251 115.025C304.251 121.315 303.089 126.868 300.766 131.685C298.442 136.445 295.326 140.44 291.416 143.67C287.506 146.9 282.944 149.337 277.731 150.98C272.574 152.567 267.162 153.36 261.496 153.36C255.489 153.36 250.191 152.68 245.601 151.32C241.011 149.96 236.959 147.92 233.446 145.2C229.989 142.48 227.014 139.08 224.521 135C222.027 130.863 219.846 126.047 217.976 120.55L228.346 116.3C231.066 115.167 233.587 114.855 235.911 115.365C238.291 115.875 239.991 117.122 241.011 119.105C242.144 121.258 243.334 123.242 244.581 125.055C245.884 126.868 247.329 128.455 248.916 129.815C250.502 131.118 252.287 132.138 254.271 132.875C256.311 133.612 258.634 133.98 261.241 133.98C264.527 133.98 267.389 133.442 269.826 132.365C272.262 131.288 274.302 129.9 275.946 128.2C277.589 126.443 278.807 124.488 279.601 122.335C280.451 120.125 280.876 117.943 280.876 115.79C280.876 112.957 280.621 110.407 280.111 108.14C279.601 105.817 278.411 103.862 276.541 102.275C274.727 100.632 272.007 99.385 268.381 98.535C264.811 97.6283 259.937 97.175 253.761 97.175V80.685C258.917 80.685 263.139 80.26 266.426 79.41C269.712 78.56 272.291 77.37 274.161 75.84C276.031 74.31 277.306 72.4683 277.986 70.315C278.722 68.1617 279.091 65.81 279.091 63.26C279.091 57.8767 277.674 53.7683 274.841 50.935C272.064 48.1017 268.097 46.685 262.941 46.685C260.674 46.685 258.577 47.025 256.651 47.705C254.781 48.3283 253.081 49.2067 251.551 50.34C250.077 51.4733 248.802 52.805 247.726 54.335C246.649 55.865 245.856 57.5367 245.346 59.35C244.269 62.1833 242.881 64.0817 241.181 65.045C239.481 65.9517 237.016 66.15 233.786 65.64L221.461 63.43Z" fill="#FB7F8E"/>
<path d="M164.089 108H156.089V299.5C159.5 299.594 160.488 299.59 164.089 299.523V108Z" fill="#D4D7E9"/>
<path d="M164.089 108H162.089V299.555L164.089 299.523V108Z" fill="#B2B4C7"/>
<path d="M182.726 142.235C210.952 129.662 223.641 96.5887 211.068 68.3631C198.496 40.1374 165.422 27.4483 137.196 40.0211C108.971 52.5938 96.2816 85.6674 108.854 113.893C121.427 142.119 154.501 154.808 182.726 142.235Z" fill="#FB7F8E"/>
<path d="M211.073 88.4552C211.014 88.189 210.982 87.9176 210.977 87.645C210.977 87.0663 210.882 86.2772 210.807 85.2672C210.807 84.7411 210.733 84.1519 210.701 83.5101C210.669 82.8682 210.488 82.1738 210.37 81.4058C210.146 79.6599 209.79 77.9331 209.305 76.2397C208.123 71.5594 206.223 67.0852 203.672 62.972C200.346 57.4961 195.986 52.7026 190.829 48.8522C184.596 44.1598 177.332 40.9842 169.626 39.5827C160.779 37.9739 151.659 38.7257 143.204 41.7607C140.955 42.5642 138.764 43.5168 136.644 44.612C135.579 45.1802 134.568 45.843 133.513 46.4638C132.457 47.0943 131.446 47.7975 130.489 48.5681C128.482 50.0417 126.575 51.6444 124.781 53.3659C123.009 55.1702 121.365 57.0932 119.861 59.1212C116.737 63.2698 114.31 67.8882 112.672 72.7992C109.222 82.969 109.222 93.9729 112.672 104.143C114.308 109.052 116.732 113.67 119.85 117.821C121.361 119.85 123.008 121.776 124.781 123.587C126.574 125.302 128.477 126.901 130.478 128.374C131.438 129.145 132.453 129.849 133.513 130.478C134.578 131.088 135.59 131.751 136.644 132.319C148.07 138.325 161.392 139.769 173.863 136.355C186.335 132.941 197.004 124.928 203.672 113.97C206.219 109.855 208.118 105.381 209.305 100.702C209.789 99.0086 210.145 97.2818 210.37 95.5362C210.488 94.7786 210.626 94.0842 210.701 93.4319C210.775 92.7795 210.775 92.2114 210.807 91.6853C210.882 90.6331 210.935 89.8861 210.977 89.3074C210.982 89.0349 211.014 88.7635 211.073 88.4973C211.094 88.7669 211.094 89.0378 211.073 89.3074C211.073 89.8861 211.073 90.6857 211.009 91.6958C211.009 92.2219 211.009 92.8111 210.935 93.4529C210.86 94.0947 210.754 94.7997 210.658 95.5572C210.456 97.3146 210.125 99.0552 209.668 100.765C208.534 105.506 206.666 110.045 204.13 114.222C200.45 120.39 195.481 125.711 189.555 129.832C183.63 133.952 176.882 136.776 169.764 138.117C160.775 139.797 151.494 139.071 142.885 136.012C140.594 135.201 138.363 134.235 136.208 133.119C135.143 132.54 134.078 131.867 133.013 131.246C131.929 130.621 130.893 129.918 129.914 129.142C125.728 126.178 122.065 122.552 119.073 118.41C115.883 114.184 113.405 109.476 111.735 104.469C108.207 94.1065 108.207 82.8881 111.735 72.5256C113.408 67.5251 115.882 62.8219 119.062 58.5951C120.605 56.5339 122.284 54.5761 124.089 52.7346C125.919 50.9851 127.865 49.3577 129.914 47.8631C130.891 47.0892 131.923 46.386 133.002 45.7588C134.067 45.1275 135.132 44.4542 136.197 43.8755C138.356 42.7695 140.586 41.8064 142.874 40.9926C151.482 37.9271 160.765 37.2003 169.753 38.8883C176.868 40.2376 183.612 43.0657 189.536 47.1851C195.461 51.3046 200.432 56.6213 204.119 62.7827C206.652 66.9615 208.52 71.5001 209.657 76.2397C210.117 77.9669 210.448 79.7252 210.647 81.5004C210.743 82.258 210.871 82.9629 210.924 83.6048C210.977 84.2466 210.924 84.8358 210.999 85.3618C210.999 86.414 210.999 87.1715 211.063 87.7608C211.082 87.9917 211.085 88.2237 211.073 88.4552V88.4552Z" fill="white"/>
<path d="M189.089 83.0001H130.089V95.0001H189.089V83.0001Z" fill="#FAFAFA"/>
</svg>
