<svg width="353" height="300" viewBox="0 0 353 300" fill="none" xmlns="http://www.w3.org/2000/svg">
<path d="M171.389 299.569C253.993 299.569 320.957 232.604 320.957 150C320.957 67.3956 253.993 0.431458 171.389 0.431458C88.7844 0.431458 21.8203 67.3956 21.8203 150C21.8203 232.604 88.7844 299.569 171.389 299.569Z" fill="white"/>
<path d="M71.6581 104.542V68.3459C71.6581 66.4467 71.7143 64.4358 71.8267 62.3132C71.9953 60.1347 72.2201 57.8725 72.5011 55.5264L37.0945 104.542H71.6581ZM106.053 104.542V117.613C106.053 118.842 105.632 119.903 104.788 120.797C104.002 121.635 102.878 122.054 101.416 122.054H91.8904V150.96H71.6581V122.054H21.1616C19.7003 122.054 18.3515 121.607 17.1151 120.713C15.9349 119.819 15.2043 118.646 14.9233 117.194L12.4785 105.631L69.8034 29.3009H91.8904V104.542H106.053Z" fill="#6473F9"/>
<path d="M212.539 90.1307C212.539 100.744 211.387 109.96 209.082 117.781C206.778 125.601 203.603 132.08 199.556 137.219C195.51 142.302 190.705 146.101 185.141 148.614C179.633 151.072 173.676 152.301 167.269 152.301C160.862 152.301 154.905 151.072 149.397 148.614C143.889 146.101 139.14 142.302 135.15 137.219C131.16 132.08 128.013 125.601 125.708 117.781C123.46 109.96 122.336 100.744 122.336 90.1307C122.336 79.5176 123.46 70.3289 125.708 62.5646C128.013 54.7444 131.16 48.2928 135.15 43.2097C139.14 38.0707 143.889 34.2723 149.397 31.8146C154.905 29.3009 160.862 28.0441 167.269 28.0441C173.676 28.0441 179.633 29.3009 185.141 31.8146C190.705 34.2723 195.51 38.0707 199.556 43.2097C203.603 48.2928 206.778 54.7444 209.082 62.5646C211.387 70.3289 212.539 79.5176 212.539 90.1307ZM188.513 90.1307C188.513 81.5285 187.895 74.4345 186.658 68.8486C185.478 63.2628 183.904 58.85 181.937 55.6102C179.97 52.3704 177.694 50.1082 175.109 48.8234C172.58 47.5387 169.967 46.8963 167.269 46.8963C164.571 46.8963 161.958 47.5387 159.429 48.8234C156.956 50.1082 154.736 52.3704 152.769 55.6102C150.858 58.85 149.313 63.2628 148.133 68.8486C146.952 74.4345 146.362 81.5285 146.362 90.1307C146.362 98.7887 146.952 105.911 148.133 111.497C149.313 117.082 150.858 121.495 152.769 124.735C154.736 127.975 156.956 130.237 159.429 131.522C161.958 132.806 164.571 133.449 167.269 133.449C169.967 133.449 172.58 132.806 175.109 131.522C177.694 130.237 179.97 127.975 181.937 124.735C183.904 121.495 185.478 117.082 186.658 111.497C187.895 105.911 188.513 98.7887 188.513 90.1307Z" fill="#6473F9"/>
<path d="M284.124 104.542V68.3459C284.124 66.4467 284.18 64.4358 284.292 62.3132C284.461 60.1347 284.686 57.8725 284.967 55.5264L249.56 104.542H284.124ZM318.519 104.542V117.613C318.519 118.842 318.097 119.903 317.254 120.797C316.467 121.635 315.343 122.054 313.882 122.054H304.356V150.96H284.124V122.054H233.627C232.166 122.054 230.817 121.607 229.581 120.713C228.401 119.819 227.67 118.646 227.389 117.194L224.944 105.631L282.269 29.3009H304.356V104.542H318.519Z" fill="#6473F9"/>
<path opacity="0.1" fill-rule="evenodd" clip-rule="evenodd" d="M304.355 135.873V150.96H284.123V130.088C286.452 130.275 288.537 131.588 289.717 133.607C289.717 133.607 297.508 133.522 304.355 135.873Z" fill="black"/>
<path opacity="0.1" d="M56.5653 239.257C87.2683 239.257 112.158 235.408 112.158 230.66C112.158 225.913 87.2683 222.064 56.5653 222.064C25.8623 222.064 0.972656 225.913 0.972656 230.66C0.972656 235.408 25.8623 239.257 56.5653 239.257Z" fill="#6C63FF"/>
<path opacity="0.1" d="M83.2948 280.115C95.2369 280.115 104.918 278.126 104.918 275.672C104.918 273.218 95.2369 271.229 83.2948 271.229C71.3528 271.229 61.6719 273.218 61.6719 275.672C61.6719 278.126 71.3528 280.115 83.2948 280.115Z" fill="#6C63FF"/>
<path opacity="0.1" d="M231.035 263.018C242.977 263.018 252.658 261.029 252.658 258.575C252.658 256.121 242.977 254.132 231.035 254.132C219.093 254.132 209.412 256.121 209.412 258.575C209.412 261.029 219.093 263.018 231.035 263.018Z" fill="#6C63FF"/>
<path opacity="0.1" d="M157.666 259.283C177.087 259.283 192.831 256.631 192.831 253.359C192.831 250.087 177.087 247.435 157.666 247.435C138.244 247.435 122.5 250.087 122.5 253.359C122.5 256.631 138.244 259.283 157.666 259.283Z" fill="#6C63FF"/>
<path d="M16.1626 204.001C12.8011 210.505 13.2213 218.297 17.2292 224.414C17.8756 225.38 18.4574 226.088 18.9422 226.249C21.237 227.151 25.7943 229.34 25.7943 229.34L36.7836 225.026C36.7836 225.026 38.5612 215.624 40.2419 207.543C41.4055 202.037 42.5044 197.143 42.9569 196.306C44.0882 194.213 42.9569 171.224 42.9569 171.224C42.9569 171.224 31.9677 170.484 28.9618 178.92L27.6366 181.495L16.1626 204.001Z" fill="#ACB1DF"/>
<path opacity="0.1" d="M30.7736 206.545C37.4641 214.175 40.276 207.575 40.276 207.575C41.4396 202.069 42.5385 197.175 42.991 196.338C44.1223 194.245 42.991 171.257 42.991 171.257C42.991 171.257 32.0018 170.516 28.9959 178.952L27.6707 181.528C26.7981 188.289 25.9577 201.039 30.7736 206.545Z" fill="white"/>
<path d="M32.2285 227.795L71.0141 223.319L77.9308 177.954L72.6948 166.17C70.4969 161.147 67.4264 156.543 63.6448 152.582C61.0268 149.813 57.827 147.141 54.4656 145.821C54.0131 145.628 53.5282 145.467 53.0758 145.338C51.9768 145.016 50.7809 145.209 49.8436 145.918C45.0601 149.298 43.347 163.658 42.7976 170.581C42.5713 173.414 42.1835 176.247 41.634 179.048L32.2285 227.795Z" fill="#ACB1DF"/>
<path opacity="0.1" d="M58.0534 177.471L49.973 197.272C54.2071 194.181 60.4775 177.374 60.4775 177.374L66.1014 196.531L61.6087 176.344C62.2551 171.965 62.4491 167.522 62.1905 163.111C61.835 158.056 57.0514 149.91 54.4657 145.821C54.0132 145.628 53.5284 145.467 53.0759 145.338C51.977 145.016 50.7811 145.209 49.8438 145.918C51.88 149.974 56.9544 160.181 58.5382 163.207C60.4775 167.007 58.0534 177.471 58.0534 177.471Z" fill="white"/>
<path d="M64.6465 229.34H85.6877C89.2107 229.34 92.0873 226.507 92.0873 222.997C92.0873 222.901 92.0873 222.772 92.0873 222.675C91.6348 213.692 90.4389 197.658 87.6269 187.484C86.1078 182.011 84.3625 179.113 82.7464 177.696C82.003 176.956 81.0011 176.505 79.9668 176.408C79.1588 176.344 78.383 176.537 77.7043 176.956C73.7611 180.658 69.2038 200.298 69.2038 200.298L64.6465 229.34Z" fill="#ACB1DF"/>
<path opacity="0.1" d="M84.0698 211.922C84.9424 214.304 85.2657 217.073 84.0698 219.745L79.3832 222.064C79.3832 222.064 66.7779 216.751 68.297 205.836C68.297 205.836 68.7171 203.583 73.0482 203.744C78.058 204.001 82.4214 207.221 84.0698 211.922Z" fill="white"/>
<path opacity="0.1" d="M79.0624 183.234C78.9007 179.403 81.0016 178.082 82.7147 177.664C81.9713 176.923 80.9693 176.473 79.935 176.376C78.7391 177.374 77.8988 178.726 77.5109 180.24L73.1152 201.586C73.1152 201.586 79.3209 189.673 79.0624 183.234Z" fill="white"/>
<path d="M59.1182 200.137L69.5256 214.336L71.3356 226.056L64.6451 229.34L54.9811 231.465C54.0437 231.658 53.1064 231.723 52.1368 231.658L25.7949 229.34L29.3826 221.066L41.7616 203.744L59.1182 200.137Z" fill="#ACB1DF"/>
<path opacity="0.1" d="M55.0782 195.243C55.0782 195.243 62.1889 195.726 59.5063 207.897C56.8236 220.067 29.3828 221.033 29.3828 221.033C29.3828 221.033 35.233 210.73 44.186 203.357C45.1879 202.52 46.1576 201.651 47.0949 200.749C49.1634 198.689 53.1066 195.083 55.0782 195.243Z" fill="white"/>
<path opacity="0.1" d="M61.4785 204.42C61.4785 204.42 71.1103 213.145 70.2053 226.603L61.4785 204.42Z" fill="black"/>
<path opacity="0.1" d="M77.6716 176.923C77.6716 176.923 67.5551 190.317 66.4238 210.924L77.6716 176.923Z" fill="black"/>
<path opacity="0.1" d="M42.9912 171.257C42.9912 171.257 47.8717 193.408 35.6543 210.086L42.9912 171.257Z" fill="black"/>
<path d="M132.1 253.23H184.816C186.432 253.23 187.757 251.91 187.757 250.268C187.757 249.785 187.628 249.302 187.402 248.884L161.06 200.105C160.284 198.689 158.506 198.141 157.052 198.914C156.535 199.172 156.115 199.59 155.856 200.105L129.482 248.884C128.706 250.301 129.256 252.104 130.678 252.876C131.13 253.102 131.615 253.23 132.1 253.23ZM161.835 244.312H155.113V237.615H161.835V244.312ZM161.835 233.172H155.113V219.81H161.835V233.172Z" fill="#464353"/>
<path opacity="0.1" d="M132.1 253.23H184.816C186.432 253.23 187.757 251.91 187.757 250.268C187.757 249.785 187.628 249.302 187.402 248.884L161.06 200.105C160.284 198.689 158.506 198.141 157.052 198.914C156.535 199.172 156.115 199.59 155.856 200.105L129.482 248.884C128.706 250.301 129.256 252.104 130.678 252.876C131.13 253.102 131.615 253.23 132.1 253.23ZM161.835 244.312H155.113V237.615H161.835V244.312ZM161.835 233.172H155.113V219.81H161.835V233.172Z" fill="black"/>
<path d="M132.1 254.84H184.816C186.432 254.84 187.757 253.52 187.757 251.878C187.757 251.395 187.628 250.912 187.402 250.494L161.06 201.715C160.284 200.298 158.506 199.751 157.052 200.524C156.535 200.781 156.115 201.2 155.856 201.715L129.482 250.494C128.706 251.91 129.256 253.713 130.678 254.486C131.13 254.711 131.615 254.84 132.1 254.84ZM161.835 245.922H155.113V239.225H161.835V245.922ZM161.835 234.781H155.113V221.42H161.835V234.781Z" fill="#464353"/>
<path d="M103.139 228.567C102.913 228.407 102.655 228.31 102.396 228.213C101.523 227.891 100.618 227.795 99.7457 227.505C99.2609 227.344 98.8084 227.054 98.4205 226.732C98.3559 226.668 98.2913 226.603 98.2266 226.539C98.5498 226.346 98.8407 226.121 99.1639 225.96C98.1943 224.382 96.8691 223.03 95.2531 222.096C95.7702 221.323 96.9338 221.388 97.6448 220.776C98.0004 220.422 98.2266 220.003 98.2913 219.52C98.5498 218.264 98.2266 216.944 97.9034 215.689C97.2893 213.242 96.6752 210.795 95.6732 208.509C95.2207 207.575 94.8006 206.577 94.4773 205.579C93.637 202.81 94.2188 199.783 93.6047 196.95C93.4107 196.048 93.0875 195.083 93.3138 194.213C93.6693 192.829 95.2207 191.992 95.5763 190.575C96.8045 185.584 97.0307 180.433 97.7418 175.346C97.9034 174.38 98.0004 173.414 98.0004 172.416C98.0004 171.385 97.8064 170.355 97.7418 169.357C97.5479 166.492 98.1297 163.594 98.3559 160.728C98.9054 161.63 99.2932 162.596 99.5195 163.626C99.6488 164.56 99.6811 165.526 99.5841 166.492C99.5518 167.135 99.4872 167.779 99.3902 168.391C99.2286 169.132 98.9377 169.84 98.7761 170.613C98.3882 172.094 98.4852 173.639 99.0993 175.056C99.5518 176.022 100.521 176.923 101.523 176.634C102.202 176.44 102.655 175.732 102.946 175.088C103.915 173.028 104.465 170.677 103.786 168.488C103.366 167.039 102.396 165.719 102.331 164.206C102.331 163.594 102.364 162.982 102.461 162.403C102.881 158.893 101.976 155.384 101.814 151.874C101.75 150.94 101.847 149.781 101.653 148.815C101.62 148.687 101.588 148.59 101.556 148.461C101.653 148.493 101.717 148.526 101.782 148.558C102.041 147.978 102.008 147.334 101.75 146.755C101.62 146.562 101.523 146.368 101.459 146.175C101.329 145.853 101.362 145.467 101.2 145.177C101.103 145.016 101.006 144.855 100.877 144.694C100.457 144.082 100.424 143.31 100.424 142.569C100.36 138.77 100.263 134.938 100.101 131.139C100.004 129.207 99.9073 127.243 99.2286 125.408C98.6468 123.798 97.5802 122.414 96.1904 121.383C95.9641 121.222 95.7379 121.094 95.5116 120.965C95.6409 120.675 95.7056 120.385 95.7056 120.096C95.7056 119.999 95.7056 119.902 95.7056 119.806L95.6732 119.645C95.544 118.969 95.35 118.325 95.0268 117.713C94.6713 117.069 94.4773 116.328 94.4127 115.588C94.4127 115.459 94.4127 115.33 94.445 115.202C94.542 114.268 95.0268 113.399 95.2207 112.465C95.2854 112.175 95.2854 111.885 95.2854 111.596C95.2854 111.499 95.2854 111.402 95.2854 111.274C95.1561 110.147 94.8006 109.02 94.2511 108.022C94.0895 107.7 93.9279 107.378 93.734 107.056C93.637 106.444 93.5724 105.864 93.4754 105.253C93.4108 104.899 93.3784 104.544 93.2815 104.222C93.2491 104.061 93.2168 103.868 93.1522 103.707C93.637 103.224 93.3461 102.548 93.0552 101.904C92.4411 100.681 92.5704 99.2319 92.3118 97.9118C92.1179 96.9781 91.7947 96.0765 91.3745 95.2394C91.1159 94.6277 90.7927 94.0481 90.3402 93.5652C89.9524 93.1788 89.4999 92.8568 89.015 92.5993C88.5949 92.3417 88.1747 92.1163 87.6899 91.9875C87.399 91.9231 87.1081 91.9231 86.8172 91.8587C86.6233 91.8265 86.4617 91.7621 86.2677 91.6655C85.9122 91.4724 85.5243 91.3114 85.1042 91.247C84.7163 91.247 84.3284 91.3114 83.9729 91.4724C83.5851 91.6333 83.1972 91.7621 82.777 91.7943C82.6154 91.7943 82.4861 91.7943 82.3245 91.7943C82.0983 91.7621 81.9044 91.8265 81.7104 91.9553C81.6135 92.0519 81.5165 92.1163 81.4519 92.2129C81.2256 92.4383 80.967 92.5993 80.6761 92.728C78.349 94.0803 76.9269 96.5917 76.8946 99.264C76.9269 99.6182 76.8946 99.9724 76.7976 100.327C76.7006 100.584 76.5067 100.842 76.4421 101.099C76.3774 101.325 76.3774 101.582 76.4097 101.84C76.4421 102.226 76.4744 102.58 76.5067 102.967C76.2804 103.256 76.1188 103.643 76.0219 103.997C76.0219 104.061 75.9896 104.126 75.9896 104.19V104.222C75.9572 104.899 76.2804 105.51 76.4744 106.154C76.7976 107.41 76.7653 108.73 76.3774 109.953C76.1512 110.791 75.7956 111.692 75.731 112.529C75.731 112.561 75.731 112.561 75.731 112.594C75.6987 113.044 75.731 113.463 75.8926 113.882C75.9896 114.171 76.1512 114.461 76.2481 114.751C76.6037 115.813 76.0865 116.908 75.4401 117.81C75.3431 117.971 75.2462 118.099 75.1169 118.228L75.7956 118.711C75.6017 118.808 75.4078 118.936 75.2138 119.033C74.4381 119.162 73.6947 119.419 73.016 119.838C72.3696 120.16 71.7878 120.546 71.2383 121.029C70.6565 121.609 70.204 122.253 69.8485 122.961C69.396 123.766 69.0081 124.603 68.6526 125.472C68.3617 126.149 68.1355 126.889 68.0385 127.63C67.7476 128.209 67.5214 128.853 67.2628 129.433C67.1335 129.722 67.0042 130.012 66.8749 130.302L55.7564 103.16L54.0434 103.868L54.1727 104.19L53.8171 104.351L54.302 105.542C54.2373 105.575 54.1727 105.639 54.108 105.703L54.0111 105.768L53.8171 105.897L53.7202 105.961L53.5262 106.122L53.4616 106.186L53.2354 106.38C52.9768 106.605 52.7505 106.83 52.5243 107.056L51.9425 107.667L51.8132 107.796L51.6193 107.989L51.5223 108.118L51.2314 108.408L51.1991 108.44L51.0375 108.601L50.9405 108.698C50.9082 108.73 50.8436 108.794 50.8113 108.827L50.682 108.955L50.4557 109.149L50.3911 109.213L50.1002 109.438C49.68 109.76 49.2598 110.018 48.8073 110.275C47.0297 111.177 45.155 111.95 43.442 112.916C42.5047 113.431 41.5997 114.075 40.7917 114.783C39.6604 115.781 38.6908 117.037 37.3656 117.777L37.2363 117.842C34.9092 119.033 32.1295 118.325 29.4792 118.26C29.0913 118.26 28.7035 118.26 28.3156 118.293C26.1501 118.454 24.1785 119.323 22.2715 120.385C20.914 121.126 19.6212 121.995 18.296 122.736C17.4557 123.219 16.6153 123.734 15.775 124.281C13.6418 125.633 11.4762 127.05 9.24606 128.08C7.17749 129.014 5.04429 129.626 2.7818 129.529H2.62019C2.39394 129.529 2.20001 129.497 1.97376 129.465C1.74751 131.171 3.13733 132.524 4.01 134.005C4.43018 134.649 4.72107 135.389 4.78572 136.162C4.78572 136.452 4.78572 136.741 4.72107 137.031C4.52715 138.062 4.04233 139.092 4.17161 140.154C4.23625 140.766 4.49482 141.346 4.85036 141.861C5.43214 142.666 6.24017 143.406 6.75732 144.276C7.56535 145.563 7.7916 147.141 8.11481 148.654C8.27642 149.717 8.66427 150.747 9.18141 151.681C9.89248 152.808 10.9591 153.613 11.961 154.482C12.155 154.643 12.3166 154.804 12.5105 154.965C12.6398 155.094 12.7691 155.19 12.8984 155.319C14.0619 156.51 14.9346 158.346 14.2235 159.859C14.1912 159.923 14.1589 159.956 14.1589 160.02C14.2235 160.052 14.2882 160.084 14.3528 160.117C15.2578 160.567 16.3891 159.859 17.1325 159.118C17.488 158.764 17.8435 158.378 18.1667 157.992C19.0717 156.993 19.9121 155.899 20.7524 154.868C20.9787 154.579 21.2049 154.321 21.4635 154.031C22.3685 153.001 23.4351 152.132 24.6633 151.456C25.2774 151.134 25.9562 150.876 26.6349 150.651C27.6369 150.329 28.6712 150.103 29.6731 149.781C31.0629 149.33 32.3881 148.783 33.681 148.107C35.9111 146.916 38.0767 145.563 40.1452 144.115L40.4684 143.921C41.1795 143.471 41.7936 142.955 42.4077 142.376C42.5047 142.247 42.6016 142.151 42.6986 142.022C43.2158 141.378 43.539 140.605 43.9915 139.929C44.4763 139.253 45.0904 138.641 45.8015 138.19C47.8054 136.87 50.4557 136.355 52.8152 135.615H52.8475C56.9846 134.359 60.7985 132.105 63.9014 129.079L65.6791 133.393C65.4851 133.908 65.3235 134.423 65.1619 134.938C64.7741 136.226 64.4508 137.546 63.6751 138.641C63.4166 138.931 63.2226 139.285 63.1257 139.639C63.1257 139.897 63.061 140.187 62.9964 140.444C62.8994 140.669 62.6732 140.798 62.5762 141.024C62.4469 141.346 62.6085 141.764 62.4469 142.054C62.35 142.183 62.253 142.279 62.1237 142.376C61.6712 142.794 61.5419 143.438 61.5419 144.018C61.5742 144.63 61.5419 145.209 61.3803 145.789C61.5096 145.724 61.6389 145.628 61.8005 145.563C61.7682 145.66 61.7682 145.789 61.7682 145.885C61.7682 146.175 61.8005 146.497 61.8975 146.787C62.1237 147.463 62.4469 148.075 62.8348 148.654C63.1257 149.17 63.4812 149.652 63.8367 150.103C64.4832 150.812 65.1942 151.456 65.97 152.003L69.2344 154.514L68.9112 155.867C68.2001 158.7 67.4891 161.598 67.4567 164.528C67.4567 165.912 67.5537 167.296 67.7153 168.681L68.0062 171.514C68.2324 173.8 68.4587 176.054 68.7173 178.34C68.8789 179.789 69.0405 181.238 69.5576 182.59C70.3333 184.651 69.4607 187.001 69.8162 189.158C70.0748 190.865 70.5919 192.636 70.0748 194.278C69.8808 194.922 69.493 195.533 69.2344 196.177C68.588 197.755 68.491 199.526 68.4587 201.232C68.3617 202.745 68.3941 204.259 68.6203 205.74C68.9112 207.285 69.5253 208.799 69.396 210.344C69.2344 212.566 67.586 214.465 67.3921 216.687C67.2305 218.458 68.0062 220.164 68.8465 221.742C69.4607 222.901 68.588 224.382 68.2648 225.67C67.6183 228.181 68.6849 230.757 70.0101 232.979C70.0424 233.043 70.1071 233.107 70.1717 233.139C70.3333 233.204 70.4626 233.043 70.5596 232.914C70.6565 232.785 70.6889 232.753 70.7535 232.689C70.7535 232.785 70.7858 232.882 70.7858 232.979C70.7858 233.204 70.7858 233.397 70.7858 233.622C70.7858 234.427 70.9151 235.232 71.2383 236.005C71.303 236.166 71.3353 236.295 71.4323 236.424C71.4969 236.617 71.6262 236.778 71.7555 236.939C72.111 237.261 72.5635 237.454 73.0483 237.486C74.1149 237.615 75.2138 237.39 76.2804 237.293C77.4117 237.196 78.5429 237.229 79.7065 237.196C79.8035 237.196 79.8681 237.196 79.9651 237.132C80.0297 237.068 80.0944 237.003 80.1267 236.907C80.256 236.488 80.256 236.069 80.1913 235.651C80.1267 235.297 80.062 234.975 79.9328 234.653C79.7711 234.105 79.6419 233.59 79.5126 233.043C79.4803 232.946 79.4803 232.85 79.4479 232.753L79.5126 232.785C80.2236 231.24 80.9024 229.662 81.6135 228.117C81.969 227.312 82.3245 226.475 82.1629 225.638C82.0336 225.026 81.6458 224.511 81.3872 223.963C80.7408 222.643 80.7085 221.13 80.7085 219.681L80.6761 211.406C82.2922 209.346 83.2942 206.931 83.9083 204.388C84.8779 207.961 84.9426 211.728 84.1022 215.335C83.9406 215.882 83.8436 216.429 83.779 217.009C83.6497 219.295 85.4597 221.259 85.9122 223.513C85.9445 223.674 85.9768 223.867 85.9445 224.028C85.8799 224.253 85.8152 224.446 85.686 224.639C84.8133 226.217 84.9102 228.117 85.0395 229.888L85.4274 229.952C85.5243 230.113 85.6536 230.242 85.8152 230.338C85.9768 230.435 86.1385 230.499 86.3001 230.532C86.9142 230.66 87.5606 230.757 88.1747 230.821C89.0797 230.918 89.9847 231.014 90.922 231.047C91.2775 231.079 91.6331 231.079 92.0209 231.111C92.5381 231.111 93.0229 231.143 93.54 231.208C94.0895 231.336 94.639 231.465 95.1561 231.691C97.5155 232.463 100.166 232.914 102.428 231.948C102.946 231.755 103.398 231.433 103.754 231.014C104.335 230.371 104.303 229.405 103.657 228.825C103.398 228.696 103.269 228.6 103.139 228.567ZM71.8848 136.774C72.2403 137.45 72.5635 138.126 72.8544 138.834C73.4038 140.187 73.7594 141.732 73.4039 143.149C73.3069 143.567 72.6281 143.889 72.6281 144.308C72.5958 144.34 72.5958 144.372 72.5635 144.404L70.4626 139.253C70.8828 138.416 71.3353 137.579 71.8848 136.774ZM69.5576 147.721C69.1051 147.109 68.7173 146.465 68.4264 145.757C68.3941 145.66 68.3294 145.596 68.2971 145.499C68.4264 145.435 68.5233 145.37 68.6203 145.274C68.9435 144.855 68.7819 144.276 68.8142 143.76C68.8789 143.31 69.0728 142.859 69.3314 142.473L71.303 147.302C71.109 147.817 70.9151 148.365 70.7535 148.88C70.3333 148.526 69.9455 148.139 69.5576 147.721Z" fill="url(#paint0_linear)"/>
<path d="M76.5408 104.255C76.5085 104.931 76.8317 105.542 77.0257 106.186C77.3489 107.442 77.3165 108.73 76.9287 109.953C76.5732 111.241 75.959 112.594 76.4115 113.849C76.5085 114.139 76.6701 114.429 76.7671 114.719C77.1549 115.942 76.4115 117.23 75.6035 118.228L78.8033 120.45C79.2558 120.836 79.8376 121.094 80.4194 121.222C81.0335 121.287 81.7122 120.965 81.8415 120.385C81.8738 120.192 81.8415 119.967 81.8739 119.774C81.9385 119.226 82.294 118.775 82.7788 118.55C83.2637 118.325 83.7808 118.228 84.3303 118.26C86.3019 118.357 87.9503 119.645 89.7603 120.482C90.9238 120.997 92.152 121.383 93.4126 121.673C94.1236 121.866 94.8993 122.027 95.5458 121.673C96.1922 121.319 96.4831 120.514 96.4184 119.774C96.3215 119.033 96.0952 118.325 95.7397 117.681C95.3842 117.037 95.1902 116.296 95.1256 115.588C95.1256 114.493 95.7074 113.527 95.9336 112.465C96.2245 110.952 95.6427 109.406 94.9317 108.054C94.2206 106.702 93.3802 105.349 93.057 103.868C92.9924 103.417 92.8631 102.967 92.7015 102.548C92.5399 102.226 92.3136 101.936 92.0551 101.679C90.8592 100.488 89.1461 99.9402 87.4654 99.8114C85.7847 99.6826 84.104 99.9724 82.4556 100.262C81.8092 100.359 81.1951 100.488 80.581 100.713C79.7083 101.067 78.9003 101.486 78.1246 102.033C77.3812 102.548 76.6055 103.321 76.5408 104.255Z" fill="#464353"/>
<g opacity="0.1">
<path opacity="0.1" d="M95.125 114.944C95.125 115.041 95.125 115.137 95.1573 115.234C95.2543 114.3 95.7714 113.399 95.933 112.465C95.9977 112.078 96.03 111.692 95.9977 111.306C95.9977 111.467 95.9654 111.628 95.933 111.821C95.7068 112.883 95.125 113.849 95.125 114.944Z" fill="black"/>
<path opacity="0.1" d="M77.2535 107.474C77.2858 106.83 77.2211 106.154 77.0272 105.542C76.8333 105.059 76.6717 104.544 76.5424 104.029C76.5424 104.094 76.5101 104.158 76.5101 104.222C76.4777 104.899 76.801 105.51 76.9949 106.154C77.1565 106.605 77.2535 107.056 77.2535 107.474Z" fill="black"/>
<path opacity="0.1" d="M96.4184 119.645C96.3861 120.224 96.0629 120.739 95.5458 121.061C94.8993 121.416 94.1236 121.255 93.4126 121.061C92.152 120.772 90.9561 120.353 89.7603 119.838C87.9826 119.033 86.3019 117.745 84.3303 117.616C83.8131 117.584 83.2637 117.681 82.7788 117.906C82.294 118.164 81.9708 118.614 81.8739 119.13C81.8415 119.323 81.8738 119.548 81.8415 119.741C81.7122 120.321 81.0335 120.643 80.4194 120.578C79.8376 120.45 79.2558 120.192 78.8033 119.806L75.9267 117.81C75.8298 117.971 75.7005 118.099 75.6035 118.228L78.8033 120.45C79.2558 120.836 79.8376 121.094 80.4194 121.222C81.0335 121.287 81.7122 120.965 81.8415 120.385C81.8738 120.192 81.8415 119.967 81.8739 119.774C81.9385 119.226 82.294 118.775 82.7788 118.55C83.2637 118.325 83.7808 118.228 84.3303 118.26C86.3019 118.357 87.9503 119.645 89.7603 120.482C90.9238 120.997 92.152 121.383 93.4126 121.705C94.1236 121.899 94.8993 122.06 95.5458 121.705C96.1922 121.351 96.4831 120.546 96.4184 119.806C96.4184 119.741 96.4184 119.677 96.4184 119.645Z" fill="black"/>
<path opacity="0.1" d="M76.7999 114.719C76.8322 114.847 76.8645 114.976 76.8969 115.105C76.9615 114.751 76.9292 114.397 76.7999 114.075C76.7029 113.785 76.5413 113.495 76.4444 113.205C76.3797 112.98 76.3151 112.755 76.2827 112.529C76.2504 112.98 76.2827 113.431 76.4444 113.849C76.5413 114.171 76.7029 114.429 76.7999 114.719Z" fill="black"/>
</g>
<path d="M80.6126 236.907C80.5803 237.003 80.548 237.067 80.451 237.132C80.3864 237.164 80.2894 237.196 80.1924 237.196C79.0289 237.228 77.8976 237.196 76.734 237.293C75.6351 237.389 74.5685 237.615 73.4696 237.486C72.7585 237.518 72.1121 237.1 71.8535 236.424C71.7889 236.295 71.7242 236.134 71.6596 236.005C71.3687 235.232 71.2071 234.427 71.2071 233.622C71.2071 233.397 71.2071 233.204 71.2071 232.978C71.2071 232.753 71.1748 232.495 71.1101 232.27C71.0132 232.013 71.0132 231.723 71.1425 231.465C71.595 230.628 72.7262 230.467 73.5666 230.403C75.5382 230.242 77.5421 230.403 79.4814 230.821C79.643 231.562 79.8046 232.302 79.9985 233.043C80.1278 233.59 80.2894 234.105 80.4187 234.653C80.5156 234.975 80.6126 235.329 80.6772 235.651C80.7742 236.037 80.7419 236.488 80.6126 236.907Z" fill="#464353"/>
<path opacity="0.06" d="M80.6132 236.907C80.5808 237.003 80.5485 237.068 80.4515 237.132C80.3869 237.164 80.2899 237.196 80.193 237.196C79.0294 237.228 77.8982 237.196 76.7346 237.293C75.6357 237.389 74.5691 237.615 73.4702 237.486C72.7591 237.518 72.1127 237.1 71.8541 236.424C71.7894 236.295 71.7248 236.134 71.6602 236.005H72.0803C73.4378 236.005 74.7953 235.941 76.1528 235.941C76.573 235.941 76.9608 235.908 77.381 235.876C77.8012 235.844 78.1244 235.747 78.48 235.715C79.0294 235.651 79.6112 235.651 80.1607 235.651H80.6132C80.7424 236.069 80.7424 236.488 80.6132 236.907Z" fill="black"/>
<path d="M104.401 230.918C104.045 231.336 103.593 231.658 103.076 231.852C100.781 232.818 98.0983 232.399 95.7388 231.594C95.2217 231.401 94.6722 231.24 94.1228 231.111C93.6056 231.047 93.1208 231.014 92.6037 231.014C92.2481 231.014 91.8603 230.982 91.5048 230.95C90.5674 230.886 89.6624 230.789 88.7575 230.725C88.111 230.692 87.4969 230.596 86.8505 230.435C86.6889 230.403 86.495 230.306 86.3334 230.242C86.0425 230.113 85.8809 229.855 85.8809 229.533C85.9132 229.115 86.3333 228.889 86.7212 228.728C90.0503 227.28 93.6703 226.668 97.2579 226.185C97.6135 226.12 97.969 226.024 98.3246 225.863C98.7447 225.702 98.777 225.959 98.971 226.249C99.0679 226.378 99.1649 226.507 99.2942 226.636C99.682 226.99 100.135 227.247 100.652 227.408C101.524 227.73 102.462 227.827 103.334 228.117C103.593 228.213 103.851 228.342 104.078 228.471C104.821 228.889 105.112 229.823 104.692 230.564C104.563 230.725 104.466 230.821 104.401 230.918Z" fill="#464353"/>
<path opacity="0.06" d="M104.4 230.918C104.045 231.336 103.592 231.658 103.075 231.852C100.78 232.817 98.0975 232.399 95.738 231.594C95.2209 231.401 94.6714 231.24 94.1219 231.111C93.6048 231.047 93.12 231.014 92.6028 231.014C92.2473 231.014 91.8594 230.982 91.5039 230.95C91.7948 230.66 92.118 230.403 92.4089 230.145C92.6351 229.92 92.8937 229.759 93.1846 229.63C93.5401 229.501 93.8957 229.501 94.2835 229.566C96.1259 229.823 97.8066 231.111 99.6489 231.014C100.522 230.918 101.362 230.66 102.105 230.21C102.719 229.952 103.269 229.566 103.721 229.05C103.851 228.889 103.948 228.696 104.012 228.471C104.756 228.889 105.047 229.823 104.626 230.564C104.562 230.725 104.497 230.821 104.4 230.918Z" fill="black"/>
<path d="M103.754 174.959C103.43 175.603 103.01 176.312 102.331 176.505C101.329 176.795 100.328 175.893 99.9074 174.927C99.2933 173.543 99.1963 171.965 99.5841 170.484C99.7781 169.743 100.037 169.035 100.198 168.262C100.328 167.618 100.392 167.007 100.392 166.363C100.489 165.397 100.457 164.463 100.328 163.497C99.8104 160.728 97.4186 158.668 96.6106 155.963C96.2227 154.611 96.2227 153.162 96.255 151.745C96.255 151.391 96.2874 151.037 96.352 150.683C96.3843 150.586 96.4167 150.49 96.449 150.393C96.9661 149.202 98.5499 149.041 99.6488 148.365C100.263 147.978 101.62 146.787 102.138 147.882C102.234 148.139 102.331 148.397 102.396 148.654C102.59 149.652 102.525 150.779 102.558 151.713C102.752 155.223 103.624 158.732 103.236 162.241C103.139 162.853 103.107 163.433 103.107 164.045C103.204 165.558 104.141 166.878 104.594 168.327C105.273 170.548 104.723 172.931 103.754 174.959Z" fill="#FBBEBE"/>
<path opacity="0.1" d="M102.43 148.719C102.204 148.622 101.913 148.622 101.687 148.719L99.4887 149.363C98.713 149.556 97.9696 149.846 97.2585 150.168C96.9353 150.329 96.6444 150.49 96.3535 150.715C96.3858 150.618 96.4182 150.522 96.4505 150.425C96.9676 149.234 98.5514 149.073 99.6503 148.397C100.264 148.01 101.622 146.819 102.139 147.914C102.301 148.171 102.398 148.429 102.43 148.719Z" fill="black"/>
<path d="M102.59 148.461C102.332 148.3 102.009 148.268 101.718 148.397L99.5198 149.041C98.7441 149.234 98.0007 149.524 97.2896 149.846C96.9018 150.039 96.5463 150.264 96.2231 150.522C95.1888 148.751 94.9302 146.658 94.7363 144.63C94.6393 143.438 94.5423 142.247 94.51 141.088C94.4454 140.251 94.4777 139.382 94.5747 138.544C94.704 137.579 94.9948 136.645 95.1564 135.679C95.2534 135.132 95.3181 134.552 95.3504 133.972C95.4473 132.717 95.3827 131.461 95.1888 130.238C94.9948 128.918 94.704 127.63 94.2838 126.374C94.0899 125.794 93.8313 125.247 93.605 124.668L93.5404 124.474C93.1202 123.444 92.797 122.382 92.5384 121.287C92.4415 120.836 92.4415 120.385 92.0859 120.063C92.4091 120.031 92.7324 119.999 93.0556 120.031C93.1202 120.031 93.1849 120.031 93.2495 120.031C94.5747 120.128 95.8675 120.546 96.9341 121.319C98.3239 122.317 99.3905 123.734 100.005 125.344C100.683 127.147 100.813 129.143 100.877 131.075C101.039 134.874 101.168 138.673 101.201 142.505C101.201 143.245 101.233 144.018 101.653 144.63C101.782 144.791 101.879 144.92 101.976 145.113C102.138 145.435 102.106 145.789 102.235 146.111C102.332 146.304 102.429 146.497 102.558 146.69C102.817 147.238 102.849 147.882 102.59 148.461Z" fill="#464353"/>
<path d="M81.0654 110.662C80.7421 110.565 80.4189 110.436 80.0957 110.34L80.7745 110.404C80.8714 110.469 81.0007 110.565 81.0654 110.662Z" fill="#FBBEBE"/>
<path d="M94.3172 122.285C94.2526 122.51 94.188 122.736 94.1233 122.929C93.9617 123.444 93.7678 123.991 93.5092 124.474C93.1537 125.311 92.6365 126.052 91.9901 126.696C91.7639 126.921 91.5053 127.082 91.2144 127.211C90.9558 127.275 90.7296 127.308 90.471 127.275C89.5983 127.275 88.758 127.275 87.8853 127.243C87.2066 127.243 86.5601 127.179 85.8814 127.05C85.1703 126.857 84.4592 126.535 83.8451 126.149C81.421 124.668 79.4494 122.382 78.6091 119.709C78.5121 119.355 78.4152 118.969 78.6737 118.679C78.9 118.486 79.1909 118.389 79.4818 118.389H79.5141C80.1928 118.293 80.8716 118.067 81.4857 117.713C81.8735 117.52 82.1968 117.198 82.3907 116.811C82.52 116.328 82.52 115.846 82.3584 115.395L81.6473 112.143C81.5827 111.628 81.3887 111.113 81.0655 110.694C81.2594 110.758 81.4857 110.823 81.7119 110.887C83.7159 111.435 85.8814 111.113 87.853 111.821C88.5964 112.111 89.3398 112.594 89.566 113.366C89.9539 114.654 88.6933 115.974 89.0489 117.262C89.3074 118.132 90.1801 118.647 90.9881 119.065L91.5376 119.355L93.0244 120.128L93.2183 120.224H93.2506C93.7355 120.45 94.2203 120.772 94.3819 121.255C94.4788 121.577 94.4465 121.963 94.3172 122.285Z" fill="#FBBEBE"/>
<path opacity="0.1" d="M98.2602 129.851C98.1956 130.688 98.0017 131.493 97.6785 132.234C97.032 133.522 96.6765 134.971 96.6765 136.419C96.4179 140.766 94.7695 145.95 97.1613 149.588C97.226 149.685 97.2906 149.781 97.3229 149.878C96.9351 150.071 96.5795 150.296 96.2563 150.554C95.222 148.783 94.9635 146.69 94.7695 144.662C94.6726 143.471 94.5756 142.279 94.5433 141.12C94.4787 140.283 94.511 139.414 94.6079 138.577C94.7372 137.611 95.0281 136.677 95.1897 135.711C95.2867 135.164 95.3513 134.584 95.3837 134.005C95.4806 132.749 95.416 131.493 95.222 130.27C95.0281 128.95 94.7372 127.662 94.317 126.406C94.1231 125.827 93.8646 125.279 93.6383 124.7L93.5737 124.507C93.2181 125.344 92.701 126.084 92.0546 126.728C91.8283 126.954 91.5697 127.115 91.2788 127.243C91.0203 127.308 90.794 127.34 90.5355 127.308C89.6628 127.308 88.8224 127.308 87.9498 127.276C87.271 127.276 86.6246 127.211 85.9458 127.082C85.2348 126.889 84.5237 126.567 83.9096 126.181C81.4855 124.7 79.5139 122.414 78.6735 119.741C78.5766 119.387 78.4796 119.001 78.7382 118.711C78.9644 118.518 79.2553 118.421 79.5462 118.421H79.5785L82.4875 121.995C82.8107 122.382 83.1016 122.8 83.3278 123.251C83.3601 123.412 83.4571 123.541 83.5864 123.637C83.6833 123.669 83.8126 123.702 83.9096 123.702C86.6569 123.702 90.2769 123.702 93.0242 123.702C93.0242 123.219 92.8949 122.736 92.6363 122.349C92.5394 122.382 92.4424 122.382 92.604 122.317C92.4424 121.287 92.1192 120.257 91.6021 119.323C91.5697 119.258 91.5374 119.194 91.5051 119.13C91.2788 118.808 91.1172 118.454 91.0203 118.099C91.3758 118.003 91.7313 118.003 92.0869 118.099C92.4747 118.26 92.701 118.711 92.8626 119.097C93.0242 119.419 93.1535 119.774 93.2828 120.096C93.2828 120.128 93.3151 120.16 93.3151 120.192C93.606 120.868 93.7676 121.577 93.8645 122.285C93.8969 122.543 93.9615 122.897 94.1554 122.961C94.1878 122.961 94.2201 122.993 94.2524 122.993C94.7049 122.832 95.2544 122.961 95.5776 123.315C95.9008 123.669 96.127 124.12 96.224 124.571C96.321 125.054 96.4826 125.505 96.6765 125.923C97.0967 126.728 96.4503 127.082 97.1936 127.565C97.5492 127.758 97.8401 128.016 98.0663 128.37C98.2602 128.853 98.3249 129.368 98.2602 129.851Z" fill="black"/>
<path opacity="0.1" d="M79.4803 230.821C79.6419 231.562 79.8035 232.302 79.9974 233.043L79.9651 233.075C78.4783 232.431 76.9592 231.755 75.3755 231.626C73.8887 231.497 72.2403 231.884 71.2383 232.978C71.2383 232.753 71.206 232.496 71.1414 232.27C71.0444 232.013 71.0444 231.723 71.1737 231.465C71.6262 230.628 72.7574 230.467 73.5978 230.403C75.5694 230.242 77.541 230.371 79.4803 230.821Z" fill="black"/>
<path opacity="0.1" d="M92.2159 122.929C92.3779 122.929 92.3131 122.929 92.2159 122.929C92.1511 122.961 92.0216 122.993 92.2159 122.929Z" fill="black"/>
<path opacity="0.1" d="M99.2297 226.636C97.7753 227.537 96.4178 228.6 95.1896 229.759C94.834 230.145 94.3815 230.467 93.8967 230.692C93.4119 230.853 92.8624 230.918 92.3453 230.853C90.3091 230.757 88.2728 230.564 86.2689 230.242C85.978 230.113 85.8164 229.855 85.8164 229.533C85.8487 229.115 86.2689 228.889 86.6568 228.728C89.9859 227.28 93.6058 226.668 97.1935 226.185C97.549 226.12 97.9046 226.024 98.2601 225.863C98.6803 225.702 98.7126 225.959 98.9065 226.249C99.0035 226.41 99.1004 226.539 99.2297 226.636Z" fill="black"/>
<path d="M75.5043 119.194C75.9891 119.613 76.5062 119.967 76.9911 120.353C78.2839 121.448 79.092 122.961 79.9 124.474C79.4152 124.635 78.898 124.668 78.4132 124.571C78.1546 125.988 78.187 127.469 78.5425 128.885C77.8961 129.336 77.3789 129.948 77.088 130.656C76.8618 131.397 76.7002 132.137 76.6032 132.91C76.1507 136.259 75.6659 139.607 75.2134 142.956C75.2134 143.277 75.0841 143.599 74.8902 143.857C74.7932 143.921 74.7286 144.018 74.6316 144.115C74.5346 144.34 74.5023 144.565 74.5023 144.791C74.47 145.016 74.3407 145.306 74.0821 145.274C73.9529 145.242 73.8559 145.177 73.7913 145.081C73.565 144.823 73.3388 144.565 73.1448 144.276C71.2379 147.914 70.3329 151.842 69.2986 155.834C68.5875 158.668 67.8441 161.533 67.8118 164.463C67.8118 165.848 67.9088 167.232 68.0704 168.617L68.3613 171.45C68.5875 173.736 68.8138 175.99 69.0723 178.276C69.234 179.725 69.3956 181.173 69.9127 182.526C70.6884 184.586 69.8157 186.905 70.1713 189.094C70.4298 190.8 70.947 192.571 70.4298 194.213C70.2359 194.857 69.8481 195.469 69.5895 196.113C68.9107 197.691 68.8461 199.461 68.7815 201.168C68.6845 202.681 68.7491 204.194 68.9431 205.675C69.234 207.221 69.8481 208.734 69.7188 210.28C69.5572 212.501 67.9088 214.401 67.7149 216.622C67.5532 218.393 68.329 220.1 69.1693 221.677C69.7834 222.836 68.9107 224.318 68.5875 225.605C67.9411 228.085 69.0077 230.693 70.3329 232.914C70.3652 232.979 70.4298 233.043 70.4945 233.075C70.6561 233.14 70.7854 232.979 70.8823 232.85C71.8843 231.594 73.6297 231.111 75.2457 231.24C76.8618 231.369 78.3809 232.045 79.8353 232.689L81.9362 228.052C82.2918 227.247 82.6473 226.41 82.4857 225.573C82.3564 224.961 81.9685 224.446 81.6777 223.899C81.0312 222.579 80.9989 221.066 80.9989 219.617L80.9666 211.342C82.615 209.281 83.5846 206.867 84.231 204.323C85.2007 207.897 85.2653 211.664 84.425 215.27C84.2634 215.818 84.1664 216.365 84.1018 216.944C83.9725 219.23 85.7825 221.194 86.2673 223.416C86.2996 223.577 86.3319 223.77 86.2996 223.931C86.235 224.157 86.1703 224.35 86.041 224.543C85.1684 226.121 85.2653 228.02 85.3946 229.791C87.6571 230.177 89.9519 230.435 92.2467 230.532C92.7639 230.596 93.281 230.532 93.7982 230.371C94.283 230.145 94.7031 229.823 95.091 229.437C96.5455 228.052 98.1615 226.861 99.9069 225.799C98.9372 224.189 97.5797 222.869 95.996 221.935C96.5131 221.162 97.709 221.227 98.3878 220.615C98.7433 220.261 98.9696 219.842 99.0342 219.359C99.2928 218.104 98.9696 216.783 98.6463 215.56C98.0322 213.113 97.3858 210.666 96.3839 208.38C95.9314 207.446 95.5112 206.448 95.1556 205.482C94.3153 202.713 94.8971 199.687 94.2506 196.853C94.0567 195.952 93.7012 195.018 93.9274 194.117C94.283 192.732 95.8667 191.895 96.2222 190.511C97.4828 185.52 97.709 180.369 98.4201 175.314C98.5817 174.348 98.6787 173.35 98.6787 172.384C98.6787 171.353 98.4847 170.323 98.4201 169.325C98.1292 165.236 99.4544 161.147 99.0988 157.058C98.8726 154.546 98.0646 152.099 96.6747 149.974C94.283 146.304 95.9637 141.152 96.1899 136.806C96.2222 135.357 96.5455 133.908 97.1919 132.62C97.5474 131.88 97.7413 131.075 97.806 130.238C97.903 129.723 97.8383 129.207 97.6121 128.724C97.3858 128.402 97.0949 128.113 96.7394 127.919C95.996 127.437 96.6101 127.082 96.2222 126.277C96.0283 125.827 95.8667 125.376 95.7697 124.925C95.6728 124.442 95.4465 124.024 95.1233 123.669C94.8001 123.315 94.2506 123.187 93.7982 123.347C93.4749 123.347 93.4103 122.929 93.378 122.639C93.281 121.512 92.8285 120.45 92.376 119.419C92.2144 119.033 91.9882 118.582 91.6003 118.421C91.2448 118.325 90.8892 118.325 90.5337 118.421C90.6307 118.808 90.7923 119.162 91.0185 119.484C91.568 120.45 91.9558 121.544 92.1174 122.639C91.7942 122.736 92.4407 122.639 92.1174 122.639C92.4083 123.026 92.5699 123.541 92.5376 124.024C89.8226 124.024 86.1703 124.024 83.4553 124.024C83.3584 124.024 83.2291 124.024 83.1321 123.959C83.0028 123.863 82.9059 123.734 82.8735 123.573C82.6473 123.122 82.3564 122.704 82.0332 122.317L78.8334 118.389C78.7687 118.293 78.6718 118.196 78.5425 118.132C78.4132 118.099 78.2839 118.099 78.1223 118.132C77.185 118.228 76.4093 118.679 75.5043 119.194Z" fill="#5C65B6"/>
<path opacity="0.1" d="M87.011 172.448C87.5604 172.448 88.1099 172.577 88.5947 172.867C89.0795 173.156 89.3704 173.672 89.3704 174.219C89.3381 174.831 88.8533 175.314 88.5301 175.829C88.3361 176.151 88.1422 176.473 88.0452 176.859C88.0129 176.956 88.0129 177.02 88.0129 177.117C88.0452 177.245 88.1745 177.31 88.3038 177.342C89.1442 177.728 89.6936 178.533 89.726 179.467C89.6936 180.723 88.4654 181.753 88.5301 183.009C88.5624 183.266 88.5947 183.524 88.6593 183.781C88.821 184.876 88.6594 185.971 88.2069 186.969C87.819 187.967 87.2695 188.933 86.8494 189.931C85.7181 192.668 85.4596 195.662 85.5565 198.624C85.6212 200.62 84.9101 202.552 84.2637 204.452C84.6192 200.588 84.7162 196.725 84.5546 192.861C84.5222 191.798 84.393 190.833 84.4253 189.77C84.4899 188.096 85.4272 186.583 85.6858 184.94C85.8151 184.007 85.7181 183.041 85.7504 182.107C85.7828 180.175 86.3322 178.276 86.3646 176.344C86.4292 174.959 86.2999 173.543 87.011 172.448Z" fill="black"/>
<path d="M73.5009 119.87C72.8544 120.192 72.2727 120.579 71.7232 121.061C71.1414 121.641 70.6889 122.285 70.3011 122.993C69.8486 123.798 69.4607 124.635 69.1052 125.505C68.6527 126.599 68.2648 127.855 68.588 128.982C68.8789 130.044 69.687 130.849 70.2364 131.783C70.7859 132.717 71.1091 133.812 71.5293 134.842C72.1111 136.194 72.8868 137.482 73.4362 138.834C73.9857 140.187 74.3412 141.732 73.9857 143.149C73.8887 143.567 73.21 143.889 73.21 144.308C73.21 145.016 74.2443 145.789 74.923 145.982C75.6987 146.24 76.5714 145.853 77.2178 145.338C78.3814 144.404 79.1248 143.02 79.6419 141.603C80.4823 139.349 80.9348 136.967 81.355 134.584C81.6458 132.846 81.9367 131.075 82.0983 129.336C82.26 127.758 82.2923 126.116 81.8721 124.603C81.4842 123.219 80.7085 121.931 79.6742 120.933C78.8339 120.128 77.4441 119.033 76.2482 119.001C75.2462 119.033 74.3412 119.419 73.5009 119.87Z" fill="#464353"/>
<path d="M82.7145 158.7C82.6499 159.151 82.3913 159.537 82.0035 159.762C81.6156 159.988 81.1954 160.149 80.7753 160.277C79.9026 160.535 78.9976 160.76 78.1249 160.535C77.4462 160.31 76.7997 159.956 76.2503 159.473L66.4246 152.003C65.6489 151.455 64.9055 150.812 64.2591 150.103C63.9036 149.652 63.548 149.17 63.2248 148.654C62.8046 148.075 62.4814 147.431 62.2875 146.787C62.2228 146.497 62.1582 146.175 62.1582 145.885C62.1582 145.596 62.2228 145.306 62.3521 145.048C62.5784 144.662 63.0955 144.565 63.5157 144.469C64.9055 144.115 66.36 144.018 67.7821 144.147C68.0407 144.147 68.2669 144.308 68.3639 144.533C68.5901 144.919 68.7841 145.338 68.978 145.757C69.2689 146.465 69.6567 147.109 70.1416 147.721C70.5941 148.204 71.0789 148.687 71.596 149.105C72.6303 150.071 73.4707 151.23 74.5696 152.132C75.8624 153.162 77.4139 153.774 78.8683 154.546C80.3228 155.319 81.7449 156.285 82.4883 157.766C82.6176 158.024 82.7145 158.346 82.7145 158.7Z" fill="#FBBEBE"/>
<path opacity="0.1" d="M94.0255 106.637C94.0255 111.048 90.4379 114.622 86.0098 114.622C81.5818 114.622 77.9941 111.048 77.9941 106.637C77.9941 102.226 81.5818 98.6523 86.0098 98.6523C89.6945 98.6523 92.9266 101.164 93.7993 104.77C93.9609 105.381 94.0255 105.993 94.0255 106.637Z" fill="black"/>
<path d="M94.0255 106.315C94.0255 110.726 90.4379 114.3 86.0098 114.3C81.5818 114.3 77.9941 110.726 77.9941 106.315C77.9941 101.904 81.5818 98.3303 86.0098 98.3303C89.6945 98.3303 92.9266 100.842 93.7993 104.448C93.9609 105.06 94.0255 105.671 94.0255 106.315Z" fill="#FBBEBE"/>
<path opacity="0.1" d="M68.9769 145.724C68.6214 145.95 68.0719 145.885 67.6194 145.789C65.8094 145.402 63.8378 145.113 62.1895 145.885C62.1895 145.596 62.2541 145.306 62.3834 145.048C62.6096 144.662 63.1268 144.565 63.547 144.469C64.9368 144.115 66.3912 144.018 67.8134 144.147C68.0719 144.147 68.2982 144.308 68.3952 144.533C68.5891 144.919 68.783 145.338 68.9769 145.724Z" fill="black"/>
<path d="M65.6147 134.906C65.2268 136.194 64.9036 137.514 64.1279 138.609C63.8693 138.899 63.6754 139.221 63.5461 139.607C63.5461 139.865 63.4815 140.154 63.4168 140.412C63.3199 140.637 63.0613 140.766 62.9643 140.991C62.8351 141.313 62.9967 141.732 62.8351 142.022C62.7381 142.151 62.6411 142.247 62.5118 142.344C62.0594 142.762 61.9624 143.406 61.9624 143.986C61.9624 144.565 61.9947 145.209 61.8008 145.757C63.5138 144.758 65.6793 145.048 67.6186 145.467C68.1681 145.596 68.8145 145.66 69.17 145.241C69.5256 144.823 69.3316 144.243 69.364 143.728C69.4286 143.052 69.8811 142.505 70.172 141.861C70.4952 141.185 70.5922 140.412 70.8507 139.671C71.3679 138.158 72.4668 136.935 73.1779 135.486C73.4364 135.003 73.598 134.455 73.6304 133.908C73.598 133.2 73.4041 132.491 73.0809 131.847C72.4022 130.366 71.5941 128.95 70.6891 127.597C70.269 126.986 69.5579 125.891 68.9438 126.857C68.4266 127.63 68.1034 128.628 67.7156 129.465C66.9075 131.236 66.1965 133.039 65.6147 134.906Z" fill="#464353"/>
<path d="M94.7683 122.382C92.7967 122.51 90.8897 121.77 89.5322 120.321C89.4353 120.224 89.3383 120.096 89.306 119.935C89.2737 119.741 89.3383 119.548 89.4676 119.419C89.8554 118.808 90.5342 118.421 90.8251 117.777C91.116 117.133 91.019 116.393 91.0513 115.685C91.116 114.429 91.6008 113.173 91.6331 111.95C91.6331 111.628 91.6331 111.306 91.5685 111.016C91.4069 110.565 91.3422 110.082 91.3099 109.599C91.3422 108.666 92.2149 107.925 92.3442 106.991C92.5381 105.8 91.5362 104.77 90.5665 104.094C89.8231 103.578 88.9828 103.16 88.1101 102.838C87.593 102.645 87.0435 102.516 86.4617 102.452C85.4274 102.323 84.3608 102.419 83.3589 102.806C82.9387 102.967 82.5508 103.16 82.1953 103.417C81.969 103.546 81.8074 103.739 81.6781 103.933C81.5812 104.19 81.5165 104.448 81.5489 104.705C81.5165 106.025 81.6782 107.41 81.064 108.569C80.7408 109.181 80.1914 109.696 79.9328 110.34C79.8358 110.597 79.7389 110.887 79.7389 111.177C79.7065 111.467 79.6742 111.789 79.7066 112.078C79.6742 113.785 79.7066 115.556 80.5792 117.037C80.8701 117.488 81.161 117.938 81.4196 118.421C81.6781 118.904 81.6458 119.484 81.3226 119.967C81.161 120.16 80.9348 120.353 80.6762 120.45C79.3833 121.061 77.8966 121.126 76.5391 120.611C78.1228 119.13 78.6076 116.779 77.7673 114.783C77.541 114.397 77.3794 113.946 77.3148 113.495C77.3471 113.077 77.4441 112.69 77.638 112.304C78.0905 111.08 78.1551 109.792 77.8319 108.537C77.638 107.764 77.2824 107.024 77.2178 106.251C77.1532 105.671 77.1855 105.059 77.2825 104.48C77.638 102.323 79.1894 100.552 81.258 99.9079C81.4196 99.8436 81.5812 99.8114 81.7751 99.747C82.5508 99.586 83.3589 99.4894 84.1669 99.4894C85.9446 99.425 87.7869 99.3928 89.4999 99.8436C90.5019 100.101 91.4715 100.584 92.2795 101.26C92.8613 101.743 93.3138 102.355 93.6047 103.031C93.7663 103.417 93.8956 103.836 93.9926 104.255C94.0572 104.609 94.1219 104.931 94.1865 105.285C94.5744 107.764 94.9622 110.275 94.542 112.755C94.3804 113.721 94.0895 114.686 93.9603 115.685C93.637 117.938 94.2188 120.192 94.7683 122.382Z" fill="#464353"/>
<path d="M83.2957 125.601C83.6349 125.601 83.9099 125.327 83.9099 124.989C83.9099 124.652 83.6349 124.378 83.2957 124.378C82.9566 124.378 82.6816 124.652 82.6816 124.989C82.6816 125.327 82.9566 125.601 83.2957 125.601Z" fill="white"/>
<path d="M93.4442 125.311C93.7833 125.311 94.0583 125.038 94.0583 124.7C94.0583 124.362 93.7833 124.088 93.4442 124.088C93.105 124.088 92.8301 124.362 92.8301 124.7C92.8301 125.038 93.105 125.311 93.4442 125.311Z" fill="white"/>
<path opacity="0.1" d="M83.2948 94.7243L82.002 92.3095C82.0989 92.2129 82.1636 92.1163 82.2605 92.0519C82.4544 91.9231 82.6807 91.8909 82.8746 91.8909L83.2948 94.7243Z" fill="black"/>
<path opacity="0.1" d="M86.8495 91.7621L85.395 93.9193L84.5547 91.5367C84.9102 91.3758 85.2981 91.3114 85.6859 91.3114C86.1061 91.408 86.494 91.5367 86.8495 91.7621Z" fill="black"/>
<g opacity="0.1">
<path opacity="0.1" d="M81.2914 119.323C81.1297 119.516 80.9035 119.709 80.6449 119.806C79.5137 120.353 78.1885 120.45 76.9603 120.128C76.831 120.289 76.6694 120.45 76.5078 120.611C77.833 121.126 79.3521 121.094 80.6449 120.45C80.9035 120.353 81.1297 120.16 81.2914 119.967C81.5176 119.645 81.5822 119.226 81.4853 118.84C81.453 119.033 81.3883 119.194 81.2914 119.323Z" fill="black"/>
<path opacity="0.1" d="M77.7684 108.569C77.8654 108.988 77.93 109.438 77.9623 109.857C77.9946 109.213 77.93 108.569 77.7684 107.925C77.5745 107.152 77.2189 106.412 77.1543 105.639C77.1543 105.542 77.1543 105.446 77.1543 105.349C77.1543 105.671 77.1543 105.993 77.1543 106.283C77.2513 107.056 77.5745 107.796 77.7684 108.569Z" fill="black"/>
<path opacity="0.1" d="M94.5107 112.755C94.6399 111.917 94.7046 111.048 94.6723 110.179C94.6723 110.823 94.6076 111.467 94.5107 112.111C94.3491 113.077 94.0582 114.043 93.9289 115.041C93.8642 115.556 93.8319 116.103 93.8642 116.65C93.8642 116.329 93.8966 116.007 93.9289 115.685C94.0582 114.686 94.3491 113.753 94.5107 112.755Z" fill="black"/>
<path opacity="0.1" d="M77.7025 114.139C77.5409 113.817 77.4116 113.495 77.2823 113.141C77.25 113.27 77.25 113.366 77.25 113.495C77.3146 113.946 77.4763 114.397 77.7025 114.783C77.9288 115.33 78.0904 115.91 78.1227 116.489C78.1873 115.685 78.058 114.88 77.7025 114.139Z" fill="black"/>
<path opacity="0.1" d="M91.5682 111.016C91.6006 111.177 91.6329 111.306 91.6329 111.467C91.6329 111.435 91.6329 111.37 91.6329 111.338C91.6329 111.016 91.6329 110.694 91.5682 110.404C91.5036 110.082 91.3743 109.728 91.3097 109.406C91.3097 109.471 91.2773 109.567 91.2773 109.631C91.342 110.082 91.4066 110.565 91.5682 111.016Z" fill="black"/>
<path opacity="0.1" d="M89.5329 119.677C89.4683 119.613 89.4359 119.58 89.4036 119.516C89.339 119.645 89.3066 119.806 89.3066 119.935C89.339 120.096 89.4359 120.224 89.5329 120.321C90.8904 121.77 92.7973 122.51 94.7689 122.382C94.7043 122.156 94.672 121.963 94.6073 121.738C92.7004 121.834 90.8581 121.061 89.5329 119.677Z" fill="black"/>
<path opacity="0.1" d="M92.3447 106.38V106.347C92.5387 105.156 91.5367 104.126 90.5671 103.45C89.8237 102.934 88.9833 102.516 88.1106 102.194C87.5935 102.001 87.044 101.872 86.4623 101.808C85.428 101.679 84.3614 101.775 83.3594 102.162C82.9392 102.323 82.5514 102.516 82.1958 102.774C81.9696 102.902 81.808 103.095 81.6787 103.289C81.5817 103.546 81.5171 103.804 81.5494 104.061C81.5494 104.287 81.5494 104.512 81.5494 104.738V104.705C81.5494 104.448 81.5817 104.19 81.6787 103.933C81.808 103.707 81.9696 103.546 82.1958 103.417C82.5514 103.16 82.9392 102.967 83.3594 102.806C84.3614 102.452 85.3957 102.323 86.4623 102.452C87.0117 102.516 87.5612 102.645 88.1106 102.838C88.9833 103.16 89.7914 103.578 90.5671 104.094C91.3751 104.641 92.1831 105.446 92.3447 106.38Z" fill="black"/>
<path opacity="0.1" d="M81.0642 107.925C80.741 108.537 80.1916 109.052 79.933 109.696C79.836 109.953 79.7391 110.243 79.7391 110.533C79.7067 110.823 79.6744 111.145 79.7067 111.434C79.7067 111.724 79.7067 111.982 79.7067 112.272C79.7067 112.207 79.7067 112.143 79.7067 112.078C79.7067 111.789 79.7067 111.467 79.7391 111.177C79.7714 110.887 79.836 110.597 79.933 110.34C80.1916 109.696 80.741 109.181 81.0642 108.569C81.5814 107.603 81.5814 106.476 81.5491 105.381C81.6137 106.251 81.4521 107.12 81.0642 107.925Z" fill="black"/>
</g>
<path opacity="0.1" d="M93.9621 104.255C93.9298 104.319 93.8651 104.383 93.8005 104.416C93.6712 104.512 93.5742 104.577 93.4126 104.641C92.4753 105.059 92.5076 103.707 92.0228 103.256C91.6996 103.031 91.3117 102.902 90.9239 102.934C89.9866 102.902 89.0169 102.838 88.0796 102.806C86.4959 102.741 84.9121 102.709 83.3607 102.741C82.6173 102.741 81.8416 102.773 81.0982 102.838C80.2255 102.902 79.2882 102.999 78.5448 103.417C78.2862 103.546 78.06 103.739 77.8661 103.933C77.7044 104.126 77.5105 104.383 77.252 104.416C77.6075 102.258 79.1589 100.487 81.2275 99.8436C84.6535 97.3 89.5017 97.8795 92.2167 101.228C92.7985 101.711 93.251 102.323 93.5419 102.999C93.7358 103.45 93.8651 103.836 93.9621 104.255Z" fill="black"/>
<path d="M93.4446 104.029C92.5072 104.448 92.5396 103.095 92.0547 102.645C91.7315 102.419 91.3437 102.291 90.9558 102.323C87.6914 102.097 84.3946 102.065 81.1301 102.226C79.9666 102.291 78.6737 102.484 77.898 103.353C77.7041 103.578 77.4778 103.868 77.1869 103.836C77.09 103.192 77.0253 102.516 76.9607 101.872C76.9284 101.614 76.9284 101.389 76.993 101.131C77.09 100.842 77.2516 100.616 77.3485 100.359C77.4455 100.005 77.4778 99.6504 77.4455 99.2962C77.4778 96.6239 78.9 94.1769 81.2271 92.7924C81.518 92.6636 81.7766 92.4705 82.0028 92.2773C82.0998 92.1807 82.1644 92.0841 82.2614 92.0197C82.4553 91.8909 82.6816 91.8587 82.8755 91.8587C83.0371 91.8587 83.1987 91.8587 83.328 91.8587C83.7482 91.8265 84.1683 91.6977 84.5562 91.5367C84.9117 91.3758 85.2996 91.3114 85.6874 91.3114C86.1076 91.3758 86.4955 91.5368 86.851 91.7299C87.0126 91.8265 87.2065 91.8909 87.4005 91.9231C87.6914 91.9875 88.0146 91.9875 88.3055 92.0519C88.7903 92.1807 89.2428 92.3739 89.6306 92.6315C90.1155 92.889 90.568 93.211 90.9881 93.5974C91.4406 94.1125 91.7638 94.6599 92.0224 95.2716C92.4426 96.1087 92.7658 97.0103 92.9921 97.944C93.2506 99.2641 93.1213 100.713 93.7354 101.936C94.1233 102.741 94.4788 103.578 93.4446 104.029Z" fill="#FED253"/>
<path opacity="0.1" d="M77.0566 102.999C77.0566 102.999 83.7471 96.9136 93.7344 101.969C93.7344 101.969 82.4543 99.425 77.0566 102.999Z" fill="black"/>
<path d="M4.04231 134.037C3.13732 132.556 1.7475 131.171 1.97375 129.497C4.49481 129.787 6.85427 129.175 9.14908 128.113C11.4439 127.05 13.5771 125.666 15.7426 124.313C16.583 123.798 17.4233 123.251 18.2637 122.768C19.5889 121.995 20.914 121.158 22.2715 120.417C24.2108 119.355 26.1824 118.486 28.3803 118.325C28.7681 118.292 29.156 118.292 29.5762 118.292C32.2588 118.357 35.0385 119.065 37.3979 117.874L37.5272 117.81C38.8524 117.069 39.822 115.845 40.9856 114.815C41.8259 114.107 42.6986 113.495 43.6682 112.948C45.4136 111.982 47.2882 111.209 49.0659 110.308C49.5184 110.082 49.9386 109.792 50.3588 109.47L50.6496 109.213L50.7143 109.149C50.7789 109.084 50.8759 109.02 50.9405 108.955L51.0698 108.827L51.1991 108.698L51.2961 108.601L51.49 108.44L51.5223 108.408L51.8132 108.118L51.9425 107.989L52.1364 107.796L52.2657 107.667C52.4596 107.474 52.6536 107.249 52.8475 107.056C53.0414 106.863 53.3323 106.573 53.5586 106.38L53.7848 106.186L53.8495 106.122L54.0434 105.961L54.1403 105.897L54.3343 105.768L54.4312 105.703C54.5282 105.639 54.6252 105.575 54.7221 105.51C54.8191 105.446 54.8837 105.414 54.9807 105.349L54.3666 103.9L56.1119 103.192L80.0944 161.179L78.349 161.887L64.6448 128.724L64.5478 128.821C61.3803 131.944 57.4694 134.262 53.203 135.55H53.1707C50.7789 136.258 48.0963 136.774 46.0923 138.126C45.3813 138.577 44.7672 139.188 44.2823 139.865C43.7975 140.541 43.4743 141.313 42.9895 141.957C42.8925 142.086 42.7956 142.183 42.6986 142.311C42.1168 142.891 41.4704 143.406 40.7593 143.857L40.4684 144.05C38.3999 145.499 36.202 146.851 33.9719 148.043C32.679 148.719 31.3215 149.266 29.9317 149.717C28.9297 150.039 27.8631 150.264 26.8612 150.586C26.1824 150.779 25.5037 151.069 24.8896 151.391C23.1765 152.293 21.8514 153.677 20.6231 155.158C19.5242 156.478 18.4899 157.863 17.2941 159.054C16.5507 159.795 15.3871 160.503 14.4821 160.052L14.2882 159.955C14.3205 159.923 14.3528 159.859 14.3528 159.795C15.0639 158.313 14.1912 156.446 12.9953 155.255C12.866 155.126 12.7367 154.997 12.6075 154.901C12.4782 154.804 12.2519 154.579 12.058 154.418C11.056 153.548 9.95711 152.743 9.27837 151.616C8.7289 150.683 8.37337 149.652 8.21176 148.59C7.88855 147.077 7.6623 145.499 6.85427 144.211C6.30481 143.374 5.49677 142.633 4.91499 141.796C4.52713 141.313 4.30088 140.734 4.20392 140.154C4.07464 139.092 4.55945 138.094 4.75338 137.031C4.81803 136.741 4.81803 136.452 4.81803 136.162C4.75338 135.421 4.46249 134.681 4.04231 134.037Z" fill="url(#paint1_linear)"/>
<path d="M55.8556 103.714L54.1523 104.413L77.7407 161.416L79.4439 160.716L55.8556 103.714Z" fill="#D6D8E1"/>
<path d="M7.43731 144.018C8.24534 145.306 8.47159 146.819 8.79481 148.3C8.95641 149.363 9.31195 150.361 9.86141 151.295C10.5402 152.389 11.6068 153.194 12.6087 154.031C12.8026 154.192 12.9643 154.353 13.1582 154.514C13.2875 154.643 13.4168 154.74 13.546 154.868C14.7096 156.027 15.5823 157.863 14.8712 159.312C14.8389 159.376 14.8389 159.408 14.8066 159.473C14.8712 159.505 14.9359 159.537 15.0005 159.569C15.9055 159.988 17.0044 159.312 17.7478 158.571C18.9114 157.412 19.9457 156.027 21.0123 154.74C22.2405 153.259 23.5333 151.906 25.214 151.037C25.8281 150.715 26.4746 150.457 27.1533 150.264C28.1553 149.942 29.1896 149.717 30.1592 149.395C31.5167 148.944 32.8419 148.397 34.1347 147.753C36.3326 146.562 38.4981 145.274 40.5343 143.825L40.8252 143.632C41.504 143.213 42.1504 142.698 42.7322 142.118C42.8291 142.022 42.9261 141.893 43.0231 141.764C43.5079 141.12 43.8311 140.38 44.3159 139.736C44.8007 139.06 45.4148 138.48 46.1259 138.029C48.0975 136.709 50.7155 136.226 53.075 135.518H53.1073C57.3091 134.23 61.123 131.976 64.2582 128.918C64.5167 128.692 64.7107 128.435 64.8076 128.113C64.9046 127.662 64.646 127.211 64.4198 126.825C64.1289 126.342 63.8703 125.891 63.6117 125.408C62.4159 123.251 61.3493 121.029 60.4119 118.743C60.218 118.228 60.0241 117.745 59.8302 117.23C59.3453 115.942 58.8928 114.622 58.505 113.302C58.3757 112.851 58.2464 112.433 58.1171 111.982C58.0848 111.885 58.0848 111.821 58.0525 111.724C57.503 109.567 56.792 104.544 54.5941 106.058C53.9477 106.541 53.3336 107.056 52.7841 107.635C52.3639 108.086 51.9438 108.505 51.4913 108.955C51.1357 109.31 50.7479 109.631 50.36 109.953C49.9398 110.275 49.5197 110.533 49.0672 110.758C47.3218 111.66 45.4472 112.4 43.7341 113.366C42.7968 113.882 41.9241 114.493 41.0838 115.202C39.9525 116.2 39.0152 117.423 37.6901 118.132L37.5608 118.196C35.2336 119.355 32.5186 118.679 29.8683 118.614C29.4804 118.614 29.0926 118.614 28.7047 118.647C26.5715 118.808 24.5999 119.677 22.693 120.707C21.3678 121.448 20.0749 122.285 18.7498 123.025C17.9094 123.508 17.1014 124.024 16.261 124.539C14.1601 125.859 11.9946 127.243 9.79677 128.274C7.53427 129.304 5.20714 129.916 2.7184 129.626C2.49215 131.268 3.84964 132.62 4.75464 134.101C5.17482 134.745 5.43339 135.454 5.49803 136.226C5.49803 136.516 5.49803 136.806 5.43339 137.063C5.23946 138.094 4.78696 139.092 4.91625 140.122C5.01321 140.702 5.23946 141.281 5.62732 141.732C6.11214 142.473 6.88785 143.181 7.43731 144.018Z" fill="#FED253"/>
<path d="M73.1448 150.715C73.1448 150.715 75.9891 153.162 78.8333 154.482C81.6776 155.802 79.803 160.503 79.803 160.503C79.803 160.503 76.7648 161.211 74.6316 158.249C72.4984 155.287 73.1448 150.715 73.1448 150.715Z" fill="#FBBEBE"/>
<path opacity="0.1" d="M279.663 235.393C320.166 235.393 353 230.276 353 223.963C353 217.651 320.166 212.533 279.663 212.533C239.16 212.533 206.326 217.651 206.326 223.963C206.326 230.276 239.16 235.393 279.663 235.393Z" fill="#6C63FF"/>
<path d="M244.11 192.603C244.11 192.603 236.611 202.423 230.373 202.52C224.135 202.617 220.515 206.673 223.456 209.185C226.398 211.696 258.59 207.736 258.59 207.736C258.59 207.736 258.881 195.662 256.101 193.891C253.321 192.12 244.11 192.603 244.11 192.603Z" fill="#444176"/>
<path d="M324.753 204.387C324.753 204.387 325.916 212.179 322.361 217.492C318.806 222.804 328.761 224.833 328.761 224.833C328.761 224.833 336.001 226.829 336.518 219.713C337.035 212.598 336.873 207.156 336.195 206.577C335.516 205.997 334.966 202.005 334.966 202.005L324.753 204.387Z" fill="#444176"/>
<path d="M211.24 219.102C211.24 219.102 210.982 193.923 235.998 183.685L241.816 172.673L244.596 165.912C246.632 160.954 250.996 157.283 256.264 156.092L260.757 155.094L262.146 149.234C263.666 142.859 268.837 137.965 275.334 136.838C278.081 136.323 280.86 136.065 283.64 136.065C286.161 136.097 288.456 137.45 289.717 139.607C289.717 139.607 313.408 139.349 314.475 152.196C314.475 152.196 316.834 163.98 320.26 166.105C320.26 166.105 326.046 164.785 331.831 173.189L338.166 194.696C338.166 194.696 354.747 210.183 349.737 224.317C349.737 224.317 342.885 234.009 308.14 227.473C308.14 227.473 271.002 238.742 251.254 223.287C251.254 223.287 218.351 229.598 211.24 219.102Z" fill="#ACB1DF"/>
<path opacity="0.1" d="M227.82 215.174C227.82 215.174 233.089 207.833 232.83 202.584C232.572 197.336 234.058 184.554 234.058 184.554" stroke="black" stroke-miterlimit="10"/>
<path opacity="0.1" d="M247.051 195.501C247.051 195.501 252.319 185.81 251.802 180.562C251.802 180.562 257.329 170.581 261.531 171.385" stroke="black" stroke-miterlimit="10"/>
<path opacity="0.1" d="M276.012 167.94C276.012 167.94 290.492 162.692 291.3 158.507" stroke="black" stroke-miterlimit="10"/>
<path opacity="0.1" d="M281.279 180.014C281.279 180.014 296.567 173.189 296.567 171.353H304.195C304.195 171.353 315.249 185.778 313.956 192.088" stroke="black" stroke-miterlimit="10"/>
<path opacity="0.1" d="M299.185 190.511C299.185 190.511 284.447 189.448 279.178 193.666C273.91 197.884 264.44 199.944 264.44 199.944C264.44 199.944 258.913 211.761 256.812 213.853C254.711 215.946 251.285 223.287 251.285 223.287" stroke="black" stroke-miterlimit="10"/>
<path opacity="0.1" d="M299.186 204.42C299.186 204.42 300.769 209.925 302.87 213.081C304.971 216.236 308.139 227.505 308.139 227.505" stroke="black" stroke-miterlimit="10"/>
<path opacity="0.1" d="M323.912 220.422C323.912 220.422 327.241 229.694 330.182 229.759" stroke="black" stroke-miterlimit="10"/>
<path opacity="0.1" d="M302.029 180.658C302.029 180.658 310.724 183.009 314.344 188.675C317.964 194.342 329.05 199.461 329.05 199.461" stroke="black" stroke-miterlimit="10"/>
<path opacity="0.1" d="M305.746 152.743C305.746 152.743 305.746 164.817 309.172 164.817C312.598 164.817 320.226 166.137 320.226 166.137" stroke="black" stroke-miterlimit="10"/>
<path opacity="0.1" d="M288.973 138.416C288.973 138.416 288.1 159.247 283.607 164.656" stroke="black" stroke-miterlimit="10"/>
<g opacity="0.05">
<path opacity="0.05" d="M319.207 194.439L312.872 172.931C307.086 164.527 301.301 165.848 301.301 165.848C297.875 163.755 295.515 151.938 295.515 151.938C294.449 139.092 270.757 139.349 270.757 139.349C269.497 137.192 267.17 135.84 264.681 135.808C263.55 135.808 262.418 135.84 261.287 135.936C261.934 136.001 262.548 136.097 263.162 136.226L265.004 139.382C265.004 139.382 288.696 139.124 289.762 151.971C289.762 151.971 292.122 163.787 295.548 165.88C295.548 165.88 301.333 164.56 307.119 172.963L313.454 194.471C313.454 194.471 330.035 209.958 325.025 224.092C325.025 224.092 321.663 228.889 307.604 229.469C326.544 230.177 330.81 224.092 330.81 224.092C335.788 209.925 319.207 194.439 319.207 194.439Z" fill="black"/>
<path opacity="0.05" d="M226.51 223.03C220.951 224.028 215.295 224.639 209.639 224.865C216.232 225.122 223.084 224.414 227.512 223.802C227.189 223.545 226.866 223.287 226.51 223.03Z" fill="black"/>
<path opacity="0.05" d="M283.396 227.247C275.283 229.501 266.945 230.821 258.541 231.175C270.662 231.626 282.168 229.083 286.919 227.891C285.756 227.666 284.592 227.441 283.396 227.247Z" fill="black"/>
</g>
<path d="M73.0156 268.138C73.0156 268.138 80.2556 267.912 82.4535 266.367C84.6513 264.821 93.6043 262.986 94.1214 265.465C94.6386 267.944 105.014 277.797 96.8364 277.893C88.6591 277.99 77.8315 276.638 75.666 275.318C73.5004 273.998 73.0156 268.138 73.0156 268.138Z" fill="#ACB1DF"/>
<path opacity="0.2" d="M96.9668 276.992C88.7895 277.056 77.9619 275.736 75.7963 274.416C74.1479 273.418 73.4692 269.812 73.2429 268.138H72.9844C72.9844 268.138 73.4369 273.965 75.6347 275.285C77.8326 276.605 88.6279 277.958 96.8052 277.861C99.1646 277.829 99.9727 276.992 99.9404 275.768C99.6172 276.541 98.7122 276.992 96.9668 276.992Z" fill="black"/>
<path d="M249.588 250.043C249.588 250.043 241.055 248.336 238.793 246.083C236.53 243.829 226.284 239.869 225.153 242.702C224.022 245.535 209.8 255.162 219.465 256.869C229.129 258.575 242.219 259.122 245.063 257.996C247.907 256.869 249.588 250.043 249.588 250.043Z" fill="#ACB1DF"/>
<path opacity="0.2" d="M219.464 255.774C229.128 257.48 242.218 258.028 245.062 256.901C247.228 256.032 248.715 251.91 249.329 249.978L249.62 250.043C249.62 250.043 247.907 256.836 245.062 257.963C242.218 259.09 229.128 258.543 219.464 256.836C216.684 256.354 215.876 255.194 216.167 253.746C216.393 254.679 217.363 255.42 219.464 255.774Z" fill="black"/>
<path opacity="0.1" d="M167.911 65.0063H165.875C166.651 65.0063 167.297 64.3624 167.297 63.5897C167.297 62.8169 166.651 62.173 165.875 62.173H149.424C148.648 62.173 148.001 62.8169 148.001 63.5897C148.001 64.3624 148.648 65.0063 149.424 65.0063H151.46C150.684 65.0385 150.07 65.7147 150.102 66.4874C150.135 67.2279 150.716 67.8075 151.46 67.8397H148.615C147.84 67.8397 147.193 68.4836 147.193 69.2563C147.193 70.0291 147.84 70.673 148.615 70.673H165.067C165.843 70.673 166.489 70.0291 166.489 69.2563C166.489 68.4836 165.843 67.8397 165.067 67.8397H167.911C168.687 67.8719 169.366 67.2601 169.398 66.4874C169.43 65.7147 168.816 65.0385 168.041 65.0063C168.008 65.0063 167.944 65.0063 167.911 65.0063Z" fill="#6C63FF"/>
<path opacity="0.1" d="M231.779 114.88H229.742C230.518 114.847 231.132 114.171 231.1 113.399C231.067 112.658 230.486 112.079 229.742 112.046H213.291C212.515 112.014 211.836 112.626 211.804 113.399C211.772 114.171 212.386 114.847 213.161 114.88C213.194 114.88 213.258 114.88 213.291 114.88H215.327C214.551 114.912 213.937 115.588 213.969 116.361C214.002 117.101 214.584 117.681 215.327 117.713H212.483C211.707 117.713 211.061 118.357 211.061 119.13C211.061 119.902 211.707 120.546 212.483 120.546H228.934C229.71 120.546 230.356 119.902 230.356 119.13C230.356 118.357 229.71 117.713 228.934 117.713H231.779C232.554 117.745 233.233 117.133 233.265 116.361C233.298 115.588 232.684 114.912 231.908 114.88C231.875 114.88 231.843 114.88 231.779 114.88Z" fill="#6C63FF"/>
<path opacity="0.1" d="M137.142 105.639H135.106C135.881 105.671 136.56 105.06 136.592 104.287C136.625 103.514 136.011 102.838 135.235 102.806C135.202 102.806 135.138 102.806 135.106 102.806H118.654C117.878 102.774 117.2 103.385 117.167 104.158C117.135 104.931 117.749 105.607 118.525 105.639C118.557 105.639 118.622 105.639 118.654 105.639H120.69C119.915 105.607 119.236 106.219 119.203 106.991C119.171 107.764 119.785 108.44 120.561 108.472C120.593 108.472 120.658 108.472 120.69 108.472H117.846C117.07 108.472 116.424 109.116 116.424 109.889C116.424 110.662 117.07 111.306 117.846 111.306H134.298C135.073 111.306 135.72 110.662 135.72 109.889C135.72 109.116 135.073 108.472 134.298 108.472H137.142C137.917 108.505 138.596 107.893 138.629 107.12C138.661 106.347 138.047 105.671 137.271 105.639C137.206 105.639 137.174 105.639 137.142 105.639Z" fill="#6C63FF"/>
<defs>
<linearGradient id="paint0_linear" x1="1.95844" y1="164.422" x2="104.046" y2="164.422" gradientUnits="userSpaceOnUse">
<stop stop-color="#808080" stop-opacity="0.25"/>
<stop offset="0.54" stop-color="#808080" stop-opacity="0.12"/>
<stop offset="1" stop-color="#808080" stop-opacity="0.1"/>
</linearGradient>
<linearGradient id="paint1_linear" x1="80.0815" y1="132.57" x2="1.94838" y2="132.57" gradientUnits="userSpaceOnUse">
<stop stop-color="#808080" stop-opacity="0.25"/>
<stop offset="0.54" stop-color="#808080" stop-opacity="0.12"/>
<stop offset="1" stop-color="#808080" stop-opacity="0.1"/>
</linearGradient>
</defs>
</svg>
