<?xml version="1.0" ?><svg style="enable-background:new 0 0 24 24;" version="1.1" viewBox="0 0 24 24" xml:space="preserve" xmlns="http://www.w3.org/2000/svg" xmlns:xlink="http://www.w3.org/1999/xlink"><style type="text/css">
	.st0{display:none;}
</style><g class="st0" id="grid"/><g id="icon"><path d="M3,19c0.276,0,0.5-0.224,0.5-0.5c0-1.103,0.897-2,2-2C5.776,16.5,6,16.276,6,16s-0.224-0.5-0.5-0.5c-1.654,0-3,1.346-3,3   C2.5,18.776,2.724,19,3,19z"/><path d="M18.5,15.5c-1.654,0-3,1.346-3,3c0,0.276,0.224,0.5,0.5,0.5s0.5-0.224,0.5-0.5c0-1.103,0.897-2,2-2   c0.276,0,0.5-0.224,0.5-0.5S18.776,15.5,18.5,15.5z"/><path d="M18.336,2.774c-0.297,0-0.567-0.221-0.688-0.563l-0.276-0.785C17.068,0.56,16.329,0,15.489,0   c-0.944,0-1.719,0.816-1.765,1.858l-0.145,3.335c-0.501-0.143-1.025-0.24-1.579-0.24s-1.078,0.097-1.579,0.24l-0.145-3.335   C10.23,0.816,9.456,0,8.511,0c-0.84,0-1.579,0.56-1.884,1.427L6.351,2.212c-0.12,0.342-0.39,0.563-0.687,0.563   C5.07,2.774,4.523,3.1,4.2,3.646C2.937,5.783,0,11.507,0,18.5C0,21.533,2.467,24,5.5,24s5.5-2.467,5.5-5.5   c0-0.006-0.001-0.013-0.001-0.019c0-0.001,0.001-0.002,0-0.003l-0.392-9C10.596,9.203,10.385,8.992,10.086,9   C9.81,9.013,9.596,9.246,9.608,9.522l0.245,5.63C8.847,13.846,7.272,13,5.5,13c-1.705,0-3.231,0.78-4.241,2.002   C2.021,9.676,4.274,5.486,5.061,4.155c0.143-0.242,0.363-0.38,0.603-0.38c0.728,0,1.368-0.483,1.63-1.23L7.57,1.759   C7.732,1.298,8.102,1,8.511,1c0.407,0,0.744,0.396,0.766,0.902l0.16,3.673C7.887,6.362,6.831,7.817,6.831,9.5   c0,0.276,0.224,0.5,0.5,0.5s0.5-0.224,0.5-0.5c0-1.956,1.871-3.546,4.169-3.546s4.169,1.591,4.169,3.546c0,0.276,0.224,0.5,0.5,0.5   s0.5-0.224,0.5-0.5c0-1.683-1.057-3.138-2.606-3.924l0.16-3.673C14.745,1.396,15.082,1,15.489,1c0.409,0,0.779,0.298,0.941,0.759   l0.276,0.785c0.264,0.748,0.904,1.23,1.631,1.23c0.24,0,0.46,0.139,0.603,0.38c0.787,1.331,3.04,5.522,3.802,10.847   C21.731,13.78,20.205,13,18.5,13c-1.772,0-3.347,0.846-4.354,2.152l0.245-5.63C14.404,9.246,14.19,9.013,13.914,9   c-0.282-0.007-0.509,0.202-0.521,0.478l-0.392,9c0,0.001,0.001,0.002,0,0.003c0,0.006-0.001,0.013-0.001,0.019   c0,3.033,2.467,5.5,5.5,5.5s5.5-2.467,5.5-5.5c0-6.993-2.937-12.717-4.2-14.854C19.477,3.1,18.93,2.774,18.336,2.774z M5.5,14   c2.479,0,4.495,2.014,4.499,4.492L10,18.503C9.998,20.983,7.98,23,5.5,23C3.019,23,1,20.981,1,18.5S3.019,14,5.5,14z M18.5,23   c-2.48,0-4.498-2.017-4.5-4.497l0.001-0.011C14.005,16.014,16.021,14,18.5,14c2.481,0,4.5,2.019,4.5,4.5S20.981,23,18.5,23z"/></g></svg>