<?xml version="1.0" ?><!DOCTYPE svg  PUBLIC '-//W3C//DTD SVG 1.1//EN'  'http://www.w3.org/Graphics/SVG/1.1/DTD/svg11.dtd'><svg height="100%" style="fill-rule:evenodd;clip-rule:evenodd;stroke-linejoin:round;stroke-miterlimit:2;" version="1.1" viewBox="0 0 32 32" width="100%" xml:space="preserve" xmlns="http://www.w3.org/2000/svg" xmlns:serif="http://www.serif.com/" xmlns:xlink="http://www.w3.org/1999/xlink"><path d="M16,1.5c-8.003,-0 -14.5,6.497 -14.5,14.5c-0,8.003 6.497,14.5 14.5,14.5c8.003,0 14.5,-6.497 14.5,-14.5c0,-8.003 -6.497,-14.5 -14.5,-14.5Zm0,1c7.451,-0 13.5,6.049 13.5,13.5c0,7.451 -6.049,13.5 -13.5,13.5c-7.451,0 -13.5,-6.049 -13.5,-13.5c-0,-7.451 6.049,-13.5 13.5,-13.5Z"/><path d="M15.5,2l0,2c0,0.276 0.224,0.5 0.5,0.5c0.276,-0 0.5,-0.224 0.5,-0.5l-0,-2c-0,-0.276 -0.224,-0.5 -0.5,-0.5c-0.276,0 -0.5,0.224 -0.5,0.5Z"/><path d="M16.5,30l-0,-2c-0,-0.276 -0.224,-0.5 -0.5,-0.5c-0.276,-0 -0.5,0.224 -0.5,0.5l-0,2c-0,0.276 0.224,0.5 0.5,0.5c0.276,0 0.5,-0.224 0.5,-0.5Z"/><path d="M30,15.5l-2,-0c-0.276,-0 -0.5,0.224 -0.5,0.5c-0,0.276 0.224,0.5 0.5,0.5l2,-0c0.276,0 0.5,-0.224 0.5,-0.5c0,-0.276 -0.224,-0.5 -0.5,-0.5Z"/><path d="M4,15.5l-2,-0c-0.276,-0 -0.5,0.224 -0.5,0.5c-0,0.276 0.224,0.5 0.5,0.5l2,-0c0.276,0 0.5,-0.224 0.5,-0.5c0,-0.276 -0.224,-0.5 -0.5,-0.5Z"/><path d="M22.234,10.425c0.084,-0.189 0.043,-0.41 -0.103,-0.557c-0.146,-0.146 -0.368,-0.187 -0.557,-0.103l-8,3.556c-0.113,0.05 -0.203,0.14 -0.254,0.254l-3.555,8c-0.084,0.189 -0.043,0.41 0.103,0.556c0.146,0.147 0.368,0.188 0.557,0.104l8,-3.556c0.113,-0.05 0.203,-0.141 0.254,-0.254l3.555,-8Zm-8.078,3.731l-2.949,6.637l6.636,-2.95l2.95,-6.636l-6.637,2.949Z"/><path d="M16,15.023c-0.54,0 -0.977,0.438 -0.977,0.977c-0,0.539 0.437,0.977 0.977,0.977c0.539,-0 0.976,-0.438 0.976,-0.977c0,-0.539 -0.437,-0.977 -0.976,-0.977Zm-0,1c-0.013,0 -0.024,-0.01 -0.024,-0.023c0,-0.013 0.011,-0.023 0.024,-0.023c0.012,-0 0.023,0.01 0.023,0.023c-0,0.013 -0.011,0.023 -0.023,0.023Z"/></svg>