<svg id="Layer_1" data-name="Layer 1" xmlns="http://www.w3.org/2000/svg" width="64" height="64" viewBox="0 0 64 64"><defs><style>.cls-1{fill:#fff;}.cls-2{fill:#1d1d1b;}</style></defs><title>telescope</title><g id="telescope"><path class="cls-1" d="M29.34,58.15a4.08,4.08,0,0,1-2.54-.87,2.8,2.8,0,0,1-1-2.51A3.22,3.22,0,0,1,27,52.59l-.22-9.78-1.42-.7-2.78,6.68a2.63,2.63,0,0,1,.18,2.36,2.86,2.86,0,0,1-3,1.71c-.36,0-.74,0-1.08-.07l-.18,0a2.57,2.57,0,0,1-2.29-1.91,2.6,2.6,0,0,1,1-2.79,4.52,4.52,0,0,1,.86-.47L24.64,32l-.18-.22c-2.59.35-7.48,1-8.29,1a2.37,2.37,0,0,1-.44,0l-.17,0a2.26,2.26,0,0,1-1.17-.52,20.89,20.89,0,0,1-3,.46,1.81,1.81,0,0,1-1.74-1s-1.31-3.07-.8-4.68h0C7.7,26.35,6.61,23,6.57,22.71a1.9,1.9,0,0,1,.57-1.59c.43-.37,4.83-2.37,5.75-2.37a1.81,1.81,0,0,1,.78.18c.85.43,1.52,2.31,1.88,3.55,5.37-2.26,20-8.34,20.16-8.41.9-.37,1.56-.67,2-.88a4.23,4.23,0,0,1,1.54-4A37.62,37.62,0,0,1,46.9,6.08a7.3,7.3,0,0,1,1.74-.23,4.2,4.2,0,0,1,4.19,2.87c.56,1.57,4.23,12.54,4.48,13.75a4.52,4.52,0,0,1-1,4.31c-1.19,1.11-8.64,3-9.42,3.1l-.48,0a4,4,0,0,1-2.24-.57,5.62,5.62,0,0,1-.73-.64c-2.16.15-8.21.56-9.73.7l-.49,0A4.49,4.49,0,0,1,33,30.75a5.54,5.54,0,0,1-.31.76L41,47.19a3.49,3.49,0,0,1,2.15,3.24,3,3,0,0,1-.87,2.21,4,4,0,0,1-2.87,1.06,4.41,4.41,0,0,1-1.6-.28,2.83,2.83,0,0,1-1.58-1.64,3.83,3.83,0,0,1,.07-2.87,3.72,3.72,0,0,1,.23-.41c-1.13-2.22-2.53-5-3.38-6.62l-1.71,1c0,1.9.12,6.48.19,9.88a3.18,3.18,0,0,1,.87,3A3,3,0,0,1,29.34,58.15Z"/><path class="cls-2" d="M39.35,17.64A24.28,24.28,0,0,0,35,19.23a1.26,1.26,0,0,0,.23,1,26.31,26.31,0,0,0,4.48-1.5A1.47,1.47,0,0,0,39.35,17.64Zm7.85-6.15a36.78,36.78,0,0,0-3.62,1.27c-.17.1.19.79.27.81a33.52,33.52,0,0,0,3.65-1.15C47.56,12.31,47.37,11.54,47.21,11.5Zm8.44,11.31c-.21-1-3.73-11.58-4.42-13.52s-2.56-1.9-3.92-1.56a37,37,0,0,0-7.08,2.9c-1.33.9-.62,3.52-.62,3.52a26.15,26.15,0,0,1-3.25,1.5c-2.48,1-21.71,9-21.94,9.17s-.12,1.54-.12,1.63-.33.06-.4,0-.69-1.92-.69-1.92a5.31,5.31,0,0,0,1-.44,16.67,16.67,0,0,0-1.27-3.67,34.27,34.27,0,0,0-4.65,1.94,10.88,10.88,0,0,0,1.31,3c.17.08,1.27-.4,1.27-.4s.71,1.88.77,2a5.85,5.85,0,0,0-1.23.5,15.85,15.85,0,0,0,.75,3.33c.13.25,4-.6,4-.6l.33.56c.1.17.25.15.63.23s9.19-1.1,9.19-1.1a6,6,0,0,0,.54.81c.29.35.75,1,.75,1L19.39,49a2.08,2.08,0,0,0-1.15.44.87.87,0,0,0,.44,1.6c.9.08,2.15.27,2.48-.56s-.58-1.4-.58-1.4,3.79-9.12,3.85-9.25,4,1.88,4,1.88l.27,11.92a2.74,2.74,0,0,0-.65.25,1.29,1.29,0,0,0-.19,2c.88.71,2.65.75,2.94-.52a1.59,1.59,0,0,0-.9-1.79S29.66,42.06,29.71,42s4-2.37,4.1-2.37,4.75,9.23,4.75,9.23a2.21,2.21,0,0,0-.75.85c-.27.56-.23,1.85.6,2.19s3,.25,3-1.4a1.88,1.88,0,0,0-1.62-1.85L30.64,31.33s.38-.08.71-1.1a4.13,4.13,0,0,0-.1-2.27,18.06,18.06,0,0,1,2.27-.27c1.9-.17,10.54-.75,10.54-.75s.83.85,1,1a2.8,2.8,0,0,0,1.63.25c.85-.06,7.71-2,8.38-2.65A2.93,2.93,0,0,0,55.64,22.81ZM10.08,24.54c-.08,0-.79-1.62-.58-1.75a24.89,24.89,0,0,1,2.94-1.08,5,5,0,0,1,.6,1.83A17.07,17.07,0,0,1,10.08,24.54Zm4.6,5a13.67,13.67,0,0,1-2.94.42,13,13,0,0,1-.23-2.19,17.41,17.41,0,0,1,2.83-.33A9.22,9.22,0,0,1,14.68,29.5Zm24.9,20.08c.41,0,.92.75.73,1.17s-1.21.63-1.52.17A.85.85,0,0,1,39.58,49.58ZM28.35,40.37a8.29,8.29,0,0,1-1.6-.9A10.61,10.61,0,0,0,27.89,39c0-.06-.15-1-.25-1s-2.44.5-2.52.46,2.29-6.37,2.4-6.44.54.21.54.21S28.41,40.37,28.35,40.37ZM26.85,30a2.09,2.09,0,0,1,1.5-3.31c1.07-.24,2.33.92,1.94,2.9S27.6,31.29,26.85,30Zm6.29,8.17c-.17,0-3-.42-3.08-.27s-.25.67-.15.73a25.69,25.69,0,0,1,2.52.5,21.59,21.59,0,0,1-3,1.35c-.06-.1-.27-8.1-.21-8.21a1.72,1.72,0,0,1,.65-.33C30,32,33.31,38.16,33.14,38.21ZM42.6,25.41a24.9,24.9,0,0,0-1.46-3.29c-.21,0-.6.13-.6.25s1.27,3.17,1.13,3.17-.71.08-.71.08a27.07,27.07,0,0,0-1.4-3c-.15,0-.73.19-.73.31s1.17,2.67,1.08,2.67l-.85.06a24.49,24.49,0,0,0-1.48-2.5c-.15,0-.81.21-.77.38a19.22,19.22,0,0,1,1.06,2.23,12.42,12.42,0,0,1-1.37.13,11.56,11.56,0,0,0-1-1.81c-.17,0-.73,0-.73.21s.71,1.69.65,1.73-4.44.67-4.44.67-.75-1.52-3.25-.9a2.58,2.58,0,0,0-2.19,2.69c-.1.06-7.19.94-7.67,1s-.71.15-.77,0a23.81,23.81,0,0,1-1-3.81c.2-.26,24-10,24.12-9.81s3.52,9.25,3.38,9.4S42.6,25.41,42.6,25.41Zm10.71-.87a25.77,25.77,0,0,0-1-3.83c-.23-.08-.77.13-.71.27a29.9,29.9,0,0,1,.94,3.75c-.1.17-.9.52-.92.42s-.92-4.25-1.21-4.4-.79.21-.83.44,1.29,4,1.15,4.13a1.6,1.6,0,0,1-.79.19c0-.06-1.12-4.19-1.29-4.27s-.94.15-.94.27,1.48,4.08,1.4,4.19a2,2,0,0,1-.9.25c0-.06-1.42-4.42-1.56-4.46s-.87.08-.85.29,1.5,4.25,1.35,4.29-.77.33-.9.21S41.71,14.75,41.5,13.94a3.26,3.26,0,0,1,.08-2.17,54.09,54.09,0,0,1,6.33-2.42c.38-.06,1.17-.23,1.46.6s4.81,13.94,4.69,14.19S53.31,24.54,53.31,24.54Z"/></g></svg>