<svg width="14" height="19" viewBox="0 0 14 19" fill="none" xmlns="http://www.w3.org/2000/svg">
<path fill-rule="evenodd" clip-rule="evenodd" d="M0 2C0 0.895431 0.895431 0 2 0H12C13.1046 0 14 0.895431 14 2V17C14 18.1046 13.1046 19 12 19H2C0.89543 19 0 18.1046 0 17V2ZM2 3C2 2.44772 2.44772 2 3 2H11C11.5523 2 12 2.44772 12 3V5C12 5.55228 11.5523 6 11 6H3C2.44772 6 2 5.55228 2 5V3ZM3.5 8C3.22386 8 3 8.22386 3 8.5V9.5C3 9.77614 3.22386 10 3.5 10H4.5C4.77614 10 5 9.77614 5 9.5V8.5C5 8.22386 4.77614 8 4.5 8H3.5ZM6 8.5C6 8.22386 6.22386 8 6.5 8H7.5C7.77614 8 8 8.22386 8 8.5V9.5C8 9.77614 7.77614 10 7.5 10H6.5C6.22386 10 6 9.77614 6 9.5V8.5ZM9.5 8C9.22386 8 9 8.22386 9 8.5V9.5C9 9.77614 9.22386 10 9.5 10H10.5C10.7761 10 11 9.77614 11 9.5V8.5C11 8.22386 10.7761 8 10.5 8H9.5ZM3 11.5C3 11.2239 3.22386 11 3.5 11H4.5C4.77614 11 5 11.2239 5 11.5V12.5C5 12.7761 4.77614 13 4.5 13H3.5C3.22386 13 3 12.7761 3 12.5V11.5ZM6.5 11C6.22386 11 6 11.2239 6 11.5V12.5C6 12.7761 6.22386 13 6.5 13H7.5C7.77614 13 8 12.7761 8 12.5V11.5C8 11.2239 7.77614 11 7.5 11H6.5ZM9 11.5C9 11.2239 9.22386 11 9.5 11H10.5C10.7761 11 11 11.2239 11 11.5V12.5C11 12.7761 10.7761 13 10.5 13H9.5C9.22386 13 9 12.7761 9 12.5V11.5ZM3.5 14C3.22386 14 3 14.2239 3 14.5V15.5C3 15.7761 3.22386 16 3.5 16H4.5C4.77614 16 5 15.7761 5 15.5V14.5C5 14.2239 4.77614 14 4.5 14H3.5ZM6 14.5C6 14.2239 6.22386 14 6.5 14H7.5C7.77614 14 8 14.2239 8 14.5V15.5C8 15.7761 7.77614 16 7.5 16H6.5C6.22386 16 6 15.7761 6 15.5V14.5ZM9.5 14C9.22386 14 9 14.2239 9 14.5V15.5C9 15.7761 9.22386 16 9.5 16H10.5C10.7761 16 11 15.7761 11 15.5V14.5C11 14.2239 10.7761 14 10.5 14H9.5Z" fill="#00744A"/>
</svg>
