<svg width="122" height="122" viewBox="0 0 122 122" fill="none" xmlns="http://www.w3.org/2000/svg">
<rect width="122" height="122" fill="#F3FBF7"/>
<path d="M23.4354 82.6768C23.5381 82.6768 23.6291 82.7165 23.7084 82.7958L24.4504 83.6008C24.0398 84.1095 23.5334 84.4992 22.9314 84.7698C22.3341 85.0405 21.6154 85.1758 20.7754 85.1758C20.0241 85.1758 19.3474 85.0475 18.7454 84.7908C18.1481 84.5342 17.6371 84.1772 17.2124 83.7198C16.7878 83.2625 16.4611 82.7165 16.2324 82.0818C16.0084 81.4472 15.8964 80.7542 15.8964 80.0028C15.8964 79.2422 16.0178 78.5468 16.2604 77.9168C16.5031 77.2822 16.8438 76.7362 17.2824 76.2788C17.7258 75.8215 18.2531 75.4668 18.8644 75.2148C19.4758 74.9582 20.1524 74.8298 20.8944 74.8298C21.6318 74.8298 22.2851 74.9512 22.8544 75.1938C23.4284 75.4365 23.9161 75.7538 24.3174 76.1458L23.6874 77.0208C23.6501 77.0768 23.6011 77.1258 23.5404 77.1678C23.4844 77.2098 23.4051 77.2308 23.3024 77.2308C23.2324 77.2308 23.1601 77.2122 23.0854 77.1748C23.0108 77.1328 22.9291 77.0838 22.8404 77.0278C22.7518 76.9672 22.6491 76.9018 22.5324 76.8318C22.4158 76.7618 22.2804 76.6988 22.1264 76.6428C21.9724 76.5822 21.7928 76.5332 21.5874 76.4958C21.3868 76.4538 21.1534 76.4328 20.8874 76.4328C20.4348 76.4328 20.0194 76.5145 19.6414 76.6778C19.2681 76.8365 18.9461 77.0698 18.6754 77.3778C18.4048 77.6812 18.1948 78.0545 18.0454 78.4978C17.8961 78.9365 17.8214 79.4382 17.8214 80.0028C17.8214 80.5722 17.9008 81.0785 18.0594 81.5218C18.2228 81.9652 18.4421 82.3385 18.7174 82.6418C18.9928 82.9452 19.3171 83.1785 19.6904 83.3418C20.0638 83.5005 20.4651 83.5798 20.8944 83.5798C21.1511 83.5798 21.3821 83.5658 21.5874 83.5378C21.7974 83.5098 21.9888 83.4655 22.1614 83.4048C22.3388 83.3442 22.5044 83.2672 22.6584 83.1738C22.8171 83.0758 22.9734 82.9568 23.1274 82.8168C23.1741 82.7748 23.2231 82.7422 23.2744 82.7188C23.3258 82.6908 23.3794 82.6768 23.4354 82.6768Z" fill="#13AC6C"/>
<path d="M28.4949 77.7698C29.0269 77.7698 29.5099 77.8562 29.9439 78.0288C30.3826 78.2015 30.7559 78.4465 31.0639 78.7638C31.3766 79.0812 31.6169 79.4685 31.7849 79.9258C31.9529 80.3832 32.0369 80.8942 32.0369 81.4588C32.0369 82.0282 31.9529 82.5415 31.7849 82.9988C31.6169 83.4562 31.3766 83.8458 31.0639 84.1678C30.7559 84.4898 30.3826 84.7372 29.9439 84.9098C29.5099 85.0825 29.0269 85.1688 28.4949 85.1688C27.9582 85.1688 27.4706 85.0825 27.0319 84.9098C26.5932 84.7372 26.2176 84.4898 25.9049 84.1678C25.5969 83.8458 25.3566 83.4562 25.1839 82.9988C25.0159 82.5415 24.9319 82.0282 24.9319 81.4588C24.9319 80.8942 25.0159 80.3832 25.1839 79.9258C25.3566 79.4685 25.5969 79.0812 25.9049 78.7638C26.2176 78.4465 26.5932 78.2015 27.0319 78.0288C27.4706 77.8562 27.9582 77.7698 28.4949 77.7698ZM28.4949 83.8388C29.0922 83.8388 29.5332 83.6382 29.8179 83.2368C30.1072 82.8355 30.2519 82.2475 30.2519 81.4728C30.2519 80.6982 30.1072 80.1078 29.8179 79.7018C29.5332 79.2958 29.0922 79.0928 28.4949 79.0928C27.8882 79.0928 27.4379 79.2982 27.1439 79.7088C26.8546 80.1148 26.7099 80.7028 26.7099 81.4728C26.7099 82.2428 26.8546 82.8308 27.1439 83.2368C27.4379 83.6382 27.8882 83.8388 28.4949 83.8388Z" fill="#13AC6C"/>
<path d="M33.356 85.0638V77.8818H34.413C34.637 77.8818 34.784 77.9868 34.854 78.1968L34.966 78.7288C35.092 78.5888 35.2226 78.4605 35.358 78.3438C35.498 78.2272 35.645 78.1268 35.799 78.0428C35.9576 77.9588 36.1256 77.8935 36.303 77.8468C36.485 77.7955 36.6833 77.7698 36.898 77.7698C37.3506 77.7698 37.7216 77.8935 38.011 78.1408C38.305 78.3835 38.5243 78.7078 38.669 79.1138C38.781 78.8758 38.921 78.6728 39.089 78.5048C39.257 78.3322 39.4413 78.1922 39.642 78.0848C39.8426 77.9775 40.055 77.8982 40.279 77.8468C40.5076 77.7955 40.7363 77.7698 40.965 77.7698C41.3616 77.7698 41.714 77.8305 42.022 77.9518C42.33 78.0732 42.589 78.2505 42.799 78.4838C43.009 78.7172 43.1676 79.0018 43.275 79.3378C43.387 79.6738 43.443 80.0588 43.443 80.4928V85.0638H41.714V80.4928C41.714 80.0355 41.6136 79.6925 41.413 79.4638C41.2123 79.2305 40.9183 79.1138 40.531 79.1138C40.3536 79.1138 40.188 79.1442 40.034 79.2048C39.8846 79.2655 39.7516 79.3542 39.635 79.4708C39.523 79.5828 39.4343 79.7252 39.369 79.8978C39.3036 80.0705 39.271 80.2688 39.271 80.4928V85.0638H37.535V80.4928C37.535 80.0122 37.437 79.6622 37.241 79.4428C37.0496 79.2235 36.7673 79.1138 36.394 79.1138C36.142 79.1138 35.9063 79.1768 35.687 79.3028C35.4723 79.4242 35.2716 79.5922 35.085 79.8068V85.0638H33.356Z" fill="#13AC6C"/>
<path d="M46.8154 83.2018C47.0114 83.4398 47.2238 83.6078 47.4524 83.7058C47.6858 83.8038 47.9378 83.8528 48.2084 83.8528C48.4698 83.8528 48.7054 83.8038 48.9154 83.7058C49.1254 83.6078 49.3028 83.4585 49.4474 83.2578C49.5968 83.0572 49.7111 82.8052 49.7904 82.5018C49.8698 82.1938 49.9094 81.8322 49.9094 81.4168C49.9094 80.9968 49.8744 80.6422 49.8044 80.3528C49.7391 80.0588 49.6434 79.8208 49.5174 79.6388C49.3914 79.4568 49.2374 79.3238 49.0554 79.2398C48.8781 79.1558 48.6751 79.1138 48.4464 79.1138C48.0871 79.1138 47.7814 79.1908 47.5294 79.3448C47.2774 79.4942 47.0394 79.7065 46.8154 79.9818V83.2018ZM46.7244 78.8618C47.0184 78.5305 47.3521 78.2622 47.7254 78.0568C48.0988 77.8515 48.5374 77.7488 49.0414 77.7488C49.4334 77.7488 49.7904 77.8305 50.1124 77.9938C50.4391 78.1572 50.7191 78.3952 50.9524 78.7078C51.1904 79.0158 51.3724 79.3985 51.4984 79.8558C51.6291 80.3085 51.6944 80.8288 51.6944 81.4168C51.6944 81.9535 51.6221 82.4505 51.4774 82.9078C51.3328 83.3652 51.1251 83.7618 50.8544 84.0978C50.5884 84.4338 50.2641 84.6975 49.8814 84.8888C49.5034 85.0755 49.0788 85.1688 48.6074 85.1688C48.2061 85.1688 47.8631 85.1082 47.5784 84.9868C47.2938 84.8608 47.0394 84.6882 46.8154 84.4688V87.4088H45.0864V77.8818H46.1434C46.3674 77.8818 46.5144 77.9868 46.5844 78.1968L46.7244 78.8618Z" fill="#13AC6C"/>
<path d="M56.8375 81.9978C56.3381 82.0212 55.9181 82.0655 55.5775 82.1308C55.2368 82.1915 54.9638 82.2708 54.7585 82.3688C54.5531 82.4668 54.4061 82.5812 54.3175 82.7118C54.2288 82.8425 54.1845 82.9848 54.1845 83.1388C54.1845 83.4422 54.2731 83.6592 54.4505 83.7898C54.6325 83.9205 54.8681 83.9858 55.1575 83.9858C55.5121 83.9858 55.8178 83.9228 56.0745 83.7968C56.3358 83.6662 56.5901 83.4702 56.8375 83.2088V81.9978ZM52.8755 78.8828C53.7015 78.1268 54.6955 77.7488 55.8575 77.7488C56.2775 77.7488 56.6531 77.8188 56.9845 77.9588C57.3158 78.0942 57.5958 78.2855 57.8245 78.5328C58.0531 78.7755 58.2258 79.0672 58.3425 79.4078C58.4638 79.7485 58.5245 80.1218 58.5245 80.5278V85.0638H57.7405C57.5771 85.0638 57.4511 85.0405 57.3625 84.9938C57.2738 84.9425 57.2038 84.8422 57.1525 84.6928L56.9985 84.1748C56.8165 84.3382 56.6391 84.4828 56.4665 84.6088C56.2938 84.7302 56.1141 84.8328 55.9275 84.9168C55.7408 85.0008 55.5401 85.0638 55.3255 85.1058C55.1155 85.1525 54.8821 85.1758 54.6255 85.1758C54.3221 85.1758 54.0421 85.1362 53.7855 85.0568C53.5288 84.9728 53.3071 84.8492 53.1205 84.6858C52.9338 84.5225 52.7891 84.3195 52.6865 84.0768C52.5838 83.8342 52.5325 83.5518 52.5325 83.2298C52.5325 83.0478 52.5628 82.8682 52.6235 82.6908C52.6841 82.5088 52.7821 82.3362 52.9175 82.1728C53.0575 82.0095 53.2371 81.8555 53.4565 81.7108C53.6758 81.5662 53.9441 81.4402 54.2615 81.3328C54.5835 81.2255 54.9568 81.1392 55.3815 81.0738C55.8061 81.0038 56.2915 80.9618 56.8375 80.9478V80.5278C56.8375 80.0472 56.7348 79.6925 56.5295 79.4638C56.3241 79.2305 56.0278 79.1138 55.6405 79.1138C55.3605 79.1138 55.1271 79.1465 54.9405 79.2118C54.7585 79.2772 54.5975 79.3518 54.4575 79.4358C54.3175 79.5152 54.1891 79.5875 54.0725 79.6528C53.9605 79.7182 53.8345 79.7508 53.6945 79.7508C53.5731 79.7508 53.4705 79.7205 53.3865 79.6598C53.3025 79.5945 53.2348 79.5198 53.1835 79.4358L52.8755 78.8828Z" fill="#13AC6C"/>
<path d="M61.7698 78.7638C61.9145 78.6192 62.0662 78.4862 62.2248 78.3648C62.3882 78.2388 62.5585 78.1338 62.7358 78.0498C62.9178 77.9612 63.1115 77.8935 63.3168 77.8468C63.5222 77.7955 63.7462 77.7698 63.9888 77.7698C64.3808 77.7698 64.7285 77.8375 65.0318 77.9728C65.3352 78.1035 65.5872 78.2902 65.7878 78.5328C65.9932 78.7708 66.1472 79.0578 66.2498 79.3938C66.3572 79.7252 66.4108 80.0915 66.4108 80.4928V85.0638H64.6818V80.4928C64.6818 80.0542 64.5815 79.7158 64.3808 79.4778C64.1802 79.2352 63.8745 79.1138 63.4638 79.1138C63.1652 79.1138 62.8852 79.1815 62.6238 79.3168C62.3625 79.4522 62.1152 79.6365 61.8818 79.8698V85.0638H60.1528V77.8818H61.2098C61.4338 77.8818 61.5808 77.9868 61.6508 78.1968L61.7698 78.7638Z" fill="#13AC6C"/>
<path d="M74.3878 77.8818L70.4748 87.0378C70.4234 87.1592 70.3558 87.2502 70.2718 87.3108C70.1924 87.3762 70.0688 87.4088 69.9008 87.4088H68.6128L69.9568 84.5248L67.0518 77.8818H68.5708C68.7061 77.8818 68.8111 77.9145 68.8858 77.9798C68.9651 78.0452 69.0234 78.1198 69.0608 78.2038L70.5868 81.9278C70.6381 82.0538 70.6801 82.1798 70.7128 82.3058C70.7501 82.4318 70.7851 82.5602 70.8178 82.6908C70.8598 82.5602 70.9018 82.4318 70.9438 82.3058C70.9858 82.1752 71.0324 82.0468 71.0838 81.9208L72.5258 78.2038C72.5631 78.1105 72.6238 78.0335 72.7078 77.9728C72.7964 77.9122 72.8944 77.8818 73.0018 77.8818H74.3878Z" fill="#13AC6C"/>
<path d="M84.4974 83.5098V85.0638H78.5684V74.9418H80.4514V83.5098H84.4974Z" fill="#13AC6C"/>
<path d="M88.3777 77.7698C88.9097 77.7698 89.3927 77.8562 89.8267 78.0288C90.2654 78.2015 90.6387 78.4465 90.9467 78.7638C91.2594 79.0812 91.4997 79.4685 91.6677 79.9258C91.8357 80.3832 91.9197 80.8942 91.9197 81.4588C91.9197 82.0282 91.8357 82.5415 91.6677 82.9988C91.4997 83.4562 91.2594 83.8458 90.9467 84.1678C90.6387 84.4898 90.2654 84.7372 89.8267 84.9098C89.3927 85.0825 88.9097 85.1688 88.3777 85.1688C87.841 85.1688 87.3534 85.0825 86.9147 84.9098C86.476 84.7372 86.1004 84.4898 85.7877 84.1678C85.4797 83.8458 85.2394 83.4562 85.0667 82.9988C84.8987 82.5415 84.8147 82.0282 84.8147 81.4588C84.8147 80.8942 84.8987 80.3832 85.0667 79.9258C85.2394 79.4685 85.4797 79.0812 85.7877 78.7638C86.1004 78.4465 86.476 78.2015 86.9147 78.0288C87.3534 77.8562 87.841 77.7698 88.3777 77.7698ZM88.3777 83.8388C88.975 83.8388 89.416 83.6382 89.7007 83.2368C89.99 82.8355 90.1347 82.2475 90.1347 81.4728C90.1347 80.6982 89.99 80.1078 89.7007 79.7018C89.416 79.2958 88.975 79.0928 88.3777 79.0928C87.771 79.0928 87.3207 79.2982 87.0267 79.7088C86.7374 80.1148 86.5927 80.7028 86.5927 81.4728C86.5927 82.2428 86.7374 82.8308 87.0267 83.2368C87.3207 83.6382 87.771 83.8388 88.3777 83.8388Z" fill="#13AC6C"/>
<path d="M95.8091 81.2978C96.0237 81.2978 96.2104 81.2698 96.3691 81.2138C96.5277 81.1532 96.6584 81.0715 96.7611 80.9688C96.8684 80.8662 96.9477 80.7425 96.9991 80.5978C97.0551 80.4532 97.0831 80.2945 97.0831 80.1218C97.0831 79.7672 96.9757 79.4872 96.7611 79.2818C96.5511 79.0718 96.2337 78.9668 95.8091 78.9668C95.3844 78.9668 95.0647 79.0718 94.8501 79.2818C94.6401 79.4872 94.5351 79.7672 94.5351 80.1218C94.5351 80.2898 94.5607 80.4462 94.6121 80.5908C94.6681 80.7355 94.7474 80.8615 94.8501 80.9688C94.9574 81.0715 95.0904 81.1532 95.2491 81.2138C95.4124 81.2698 95.5991 81.2978 95.8091 81.2978ZM97.7621 85.3858C97.7621 85.2458 97.7201 85.1315 97.6361 85.0428C97.5521 84.9542 97.4377 84.8865 97.2931 84.8398C97.1484 84.7885 96.9781 84.7512 96.7821 84.7278C96.5908 84.7045 96.3854 84.6882 96.1661 84.6788C95.9514 84.6648 95.7274 84.6532 95.4941 84.6438C95.2654 84.6345 95.0414 84.6158 94.8221 84.5878C94.6307 84.6952 94.4744 84.8212 94.3531 84.9658C94.2364 85.1105 94.1781 85.2785 94.1781 85.4698C94.1781 85.5958 94.2084 85.7125 94.2691 85.8198C94.3344 85.9318 94.4347 86.0275 94.5701 86.1068C94.7101 86.1862 94.8897 86.2468 95.1091 86.2888C95.3284 86.3355 95.5967 86.3588 95.9141 86.3588C96.2361 86.3588 96.5137 86.3332 96.7471 86.2818C96.9804 86.2352 97.1717 86.1675 97.3211 86.0788C97.4751 85.9948 97.5871 85.8922 97.6571 85.7708C97.7271 85.6542 97.7621 85.5258 97.7621 85.3858ZM99.4841 78.1268V78.7708C99.4841 78.9762 99.3604 79.1022 99.1131 79.1488L98.4691 79.2678C98.5671 79.5152 98.6161 79.7858 98.6161 80.0798C98.6161 80.4345 98.5437 80.7565 98.3991 81.0458C98.2591 81.3305 98.0631 81.5732 97.8111 81.7738C97.5591 81.9745 97.2604 82.1308 96.9151 82.2428C96.5744 82.3502 96.2057 82.4038 95.8091 82.4038C95.6691 82.4038 95.5337 82.3968 95.4031 82.3828C95.2724 82.3688 95.1441 82.3502 95.0181 82.3268C94.7941 82.4622 94.6821 82.6138 94.6821 82.7818C94.6821 82.9265 94.7474 83.0338 94.8781 83.1038C95.0134 83.1692 95.1908 83.2158 95.4101 83.2438C95.6294 83.2718 95.8791 83.2905 96.1591 83.2998C96.4391 83.3045 96.7261 83.3185 97.0201 83.3418C97.3141 83.3652 97.6011 83.4072 97.8811 83.4678C98.1611 83.5238 98.4108 83.6148 98.6301 83.7408C98.8494 83.8668 99.0244 84.0395 99.1551 84.2588C99.2904 84.4735 99.3581 84.7512 99.3581 85.0918C99.3581 85.4092 99.2787 85.7172 99.1201 86.0158C98.9661 86.3145 98.7397 86.5805 98.4411 86.8138C98.1471 87.0472 97.7831 87.2338 97.3491 87.3738C96.9197 87.5185 96.4297 87.5908 95.8791 87.5908C95.3377 87.5908 94.8664 87.5372 94.4651 87.4298C94.0637 87.3272 93.7301 87.1872 93.4641 87.0098C93.1981 86.8372 92.9997 86.6365 92.8691 86.4078C92.7384 86.1792 92.6731 85.9412 92.6731 85.6938C92.6731 85.3578 92.7734 85.0778 92.9741 84.8538C93.1794 84.6252 93.4594 84.4432 93.8141 84.3078C93.6227 84.2098 93.4711 84.0792 93.3591 83.9158C93.2471 83.7525 93.1911 83.5378 93.1911 83.2718C93.1911 83.1645 93.2097 83.0548 93.2471 82.9428C93.2891 82.8262 93.3474 82.7118 93.4221 82.5998C93.5014 82.4878 93.5994 82.3828 93.7161 82.2848C93.8327 82.1822 93.9704 82.0912 94.1291 82.0118C93.7651 81.8158 93.4781 81.5545 93.2681 81.2278C93.0628 80.9012 92.9601 80.5185 92.9601 80.0798C92.9601 79.7252 93.0301 79.4055 93.1701 79.1208C93.3147 78.8315 93.5131 78.5865 93.7651 78.3858C94.0217 78.1805 94.3227 78.0242 94.6681 77.9168C95.0181 77.8095 95.3984 77.7558 95.8091 77.7558C96.1171 77.7558 96.4064 77.7885 96.6771 77.8538C96.9477 77.9145 97.1951 78.0055 97.4191 78.1268H99.4841Z" fill="#13AC6C"/>
<path d="M103.636 77.7698C104.168 77.7698 104.651 77.8562 105.085 78.0288C105.523 78.2015 105.897 78.4465 106.205 78.7638C106.517 79.0812 106.758 79.4685 106.926 79.9258C107.094 80.3832 107.178 80.8942 107.178 81.4588C107.178 82.0282 107.094 82.5415 106.926 82.9988C106.758 83.4562 106.517 83.8458 106.205 84.1678C105.897 84.4898 105.523 84.7372 105.085 84.9098C104.651 85.0825 104.168 85.1688 103.636 85.1688C103.099 85.1688 102.611 85.0825 102.173 84.9098C101.734 84.7372 101.358 84.4898 101.046 84.1678C100.738 83.8458 100.497 83.4562 100.325 82.9988C100.157 82.5415 100.073 82.0282 100.073 81.4588C100.073 80.8942 100.157 80.3832 100.325 79.9258C100.497 79.4685 100.738 79.0812 101.046 78.7638C101.358 78.4465 101.734 78.2015 102.173 78.0288C102.611 77.8562 103.099 77.7698 103.636 77.7698ZM103.636 83.8388C104.233 83.8388 104.674 83.6382 104.959 83.2368C105.248 82.8355 105.393 82.2475 105.393 81.4728C105.393 80.6982 105.248 80.1078 104.959 79.7018C104.674 79.2958 104.233 79.0928 103.636 79.0928C103.029 79.0928 102.579 79.2982 102.285 79.7088C101.995 80.1148 101.851 80.7028 101.851 81.4728C101.851 82.2428 101.995 82.8308 102.285 83.2368C102.579 83.6382 103.029 83.8388 103.636 83.8388Z" fill="#13AC6C"/>
<path opacity="0.2" fill-rule="evenodd" clip-rule="evenodd" d="M53.9856 35.638L32.5469 60.7656C31.4392 62.0638 32.3618 64.0637 34.0683 64.0637H53.3865L53.3947 64.0637H87.9318C89.5893 64.0637 90.5274 62.1634 89.5196 60.8476L73.1821 39.5165C72.4081 38.5058 70.8992 38.466 70.0729 39.4345L66.7227 43.3611L73.3269 51.9355C73.8324 52.5918 73.7101 53.5336 73.0538 54.0391C72.3975 54.5447 71.4557 54.4224 70.9501 53.7661L59.1966 38.5061C59.1381 38.4301 59.0879 38.3502 59.0461 38.2677L57.0949 35.7201C56.3208 34.7094 54.8119 34.6696 53.9856 35.638Z" fill="#13AC6C"/>
</svg>
