<svg width="20" height="20" viewBox="0 0 20 20" fill="none" xmlns="http://www.w3.org/2000/svg">
<path d="M10 20C15.5228 20 20 15.5228 20 10C20 4.47715 15.5228 0 10 0C4.47715 0 0 4.47715 0 10C0 15.5228 4.47715 20 10 20Z" fill="#F0F0F0"/>
<path d="M2.06706 3.9118C1.28155 4.9338 0.689243 6.11173 0.34436 7.39137H5.54663L2.06706 3.9118Z" fill="#0052B4"/>
<path d="M19.6553 7.3914C19.3104 6.11179 18.7181 4.93386 17.9326 3.91187L14.4531 7.3914H19.6553Z" fill="#0052B4"/>
<path d="M0.34436 12.6088C0.689282 13.8884 1.28159 15.0663 2.06706 16.0883L5.54651 12.6088H0.34436Z" fill="#0052B4"/>
<path d="M16.0879 2.06725C15.0659 1.28174 13.888 0.689435 12.6084 0.344513V5.54674L16.0879 2.06725Z" fill="#0052B4"/>
<path d="M3.91162 17.9329C4.93361 18.7184 6.11154 19.3107 7.39115 19.6556V14.4534L3.91162 17.9329Z" fill="#0052B4"/>
<path d="M7.39111 0.344513C6.1115 0.689435 4.93357 1.28174 3.91162 2.06721L7.39111 5.5467V0.344513Z" fill="#0052B4"/>
<path d="M12.6085 19.6556C13.8881 19.3107 15.0661 18.7184 16.088 17.9329L12.6085 14.4534V19.6556Z" fill="#0052B4"/>
<path d="M14.4531 12.6088L17.9326 16.0883C18.7181 15.0664 19.3104 13.8884 19.6553 12.6088H14.4531Z" fill="#0052B4"/>
<path d="M19.9154 8.69566H11.3044H11.3044V0.0846484C10.8774 0.0290625 10.4421 0 10 0C9.55785 0 9.12262 0.0290625 8.69566 0.0846484V8.69559V8.69563H0.0846484C0.0290625 9.12262 0 9.55793 0 10C0 10.4421 0.0290625 10.8774 0.0846484 11.3043H8.69559H8.69563V19.9154C9.12262 19.9709 9.55785 20 10 20C10.4421 20 10.8774 19.971 11.3043 19.9154V11.3044V11.3044H19.9154C19.9709 10.8774 20 10.4421 20 10C20 9.55793 19.9709 9.12262 19.9154 8.69566Z" fill="#D80027"/>
<path d="M12.6088 12.6088L17.0711 17.0711C17.2763 16.866 17.4721 16.6515 17.6589 16.4291L13.8385 12.6087H12.6088V12.6088Z" fill="#D80027"/>
<path d="M7.39133 12.6088H7.39125L2.92896 17.0711C3.13411 17.2763 3.3486 17.4721 3.57095 17.6589L7.39133 13.8384V12.6088Z" fill="#D80027"/>
<path d="M7.39122 7.39139V7.39131L2.92888 2.92892C2.72364 3.13408 2.52786 3.34857 2.34106 3.57092L6.16149 7.39135H7.39122V7.39139Z" fill="#D80027"/>
<path d="M12.6088 7.39141L17.0711 2.92899C16.866 2.72376 16.6515 2.52797 16.4292 2.34122L12.6088 6.16165V7.39141Z" fill="#D80027"/>
</svg>
