<svg width="55" height="54" viewBox="0 0 55 54" fill="none" xmlns="http://www.w3.org/2000/svg">
<g clip-path="url(#clip0_19891_195124)">
<path d="M14.7743 53.8491C13.9813 53.8491 13.1883 53.8491 12.3953 53.8491C9.56313 53.7736 7.63726 52.0742 7.56173 49.2421C7.44845 45.3526 7.48621 41.4631 7.56173 37.5358C7.56173 35.9498 8.3925 35.0812 9.67642 35.0435C10.9981 34.968 11.8666 35.7232 12.0554 37.3092C12.2065 38.5554 12.2065 39.8393 12.1687 41.0854C12.131 42.3316 12.5463 42.5582 13.6792 42.105C18.3617 40.3302 23.082 38.6309 27.8023 36.8938C28.5198 36.6295 29.1995 36.3652 29.917 36.1386C31.6163 35.6099 32.6736 36.0253 33.1268 37.4225C33.5422 38.7064 32.8624 39.877 31.3519 40.4812C29.6149 41.161 27.8401 41.8029 26.0652 42.4071C25.1212 42.7092 24.5925 43.2756 24.2904 44.1819C23.6862 45.9945 22.931 47.7694 22.289 49.5819C21.0429 52.9805 19.8345 53.8491 16.247 53.8491C15.7184 53.8491 15.2275 53.8491 14.7743 53.8491Z" fill="#B8B8CB"/>
<path d="M25.3846 33.3818C23.0811 32.8531 20.9286 32.4378 18.814 31.7958C18.323 31.6447 17.6056 30.8517 17.8321 30.1343C18.0587 29.4168 18.8517 29.0014 19.3049 29.0769C22.779 29.7566 30.4447 31.6448 30.5958 31.758C30.5202 31.8336 29.9916 31.9846 29.8783 32.0224C28.33 32.5133 26.7818 32.9664 25.3846 33.3818Z" fill="#B8B8CB"/>
<path d="M19.1167 23.4883C20.8477 23.4883 22.251 22.085 22.251 20.354C22.251 18.623 20.8477 17.2197 19.1167 17.2197C17.3857 17.2197 15.9824 18.623 15.9824 20.354C15.9824 22.085 17.3857 23.4883 19.1167 23.4883Z" fill="#B8B8CB"/>
<path d="M36.034 25.112C37.7442 25.112 39.1305 23.7256 39.1305 22.0154C39.1305 20.3053 37.7442 18.9189 36.034 18.9189C34.3239 18.9189 32.9375 20.3053 32.9375 22.0154C32.9375 23.7256 34.3239 25.112 36.034 25.112Z" fill="#B8B8CB"/>
<path d="M27.5 0.0378418C12.6594 0.0378418 0.613281 12.084 0.613281 26.9246C0.613281 31.0784 1.55733 35.0057 3.21887 38.5176L5.71118 31.8714C5.33356 30.2854 5.14475 28.6239 5.14475 26.9246C5.14475 14.5763 15.1895 4.56931 27.5 4.56931C39.8482 4.56931 49.8552 14.6141 49.8552 26.9246C49.8552 39.2728 39.8105 49.2798 27.5 49.2798C27.1601 49.2798 26.8203 49.2798 26.4804 49.242L24.7056 53.6602C25.6119 53.7357 26.5559 53.8113 27.5 53.8113C42.3405 53.8113 54.3867 41.7651 54.3867 26.9246C54.4245 12.084 42.3783 0.0378418 27.5 0.0378418Z" fill="#B8B8CB"/>
<path d="M25.952 16.3512C25.5366 16.3512 25.0835 16.1246 24.8569 15.747C23.7995 14.1232 22.3268 13.1414 20.5898 12.8771C18.6639 12.6127 16.5114 13.2547 14.9632 14.5764C14.3968 15.0673 13.566 14.9918 13.1128 14.4253C12.6597 13.8589 12.6975 13.0281 13.2639 12.575C15.4163 10.7624 18.2863 9.89385 20.9674 10.2715C23.4974 10.6491 25.6121 12.0463 27.0849 14.312C27.5002 14.9162 27.3114 15.747 26.7072 16.1246C26.4429 16.2757 26.2163 16.3512 25.952 16.3512Z" fill="#B8B8CB"/>
</g>
<defs>
<clipPath id="clip0_19891_195124">
<rect width="54.3776" height="54" fill="white" transform="translate(0.310547)"/>
</clipPath>
</defs>
</svg>
