<?xml version="1.0" encoding="utf-8"?>
<!-- Generator: Adobe Illustrator 23.1.0, SVG Export Plug-In . SVG Version: 6.00 Build 0)  -->
<svg version="1.1" id="Layer_1" xmlns="http://www.w3.org/2000/svg" xmlns:xlink="http://www.w3.org/1999/xlink" x="0px" y="0px"
	 viewBox="0 0 147 59" style="enable-background:new 0 0 147 59;" xml:space="preserve">
<style type="text/css">
	.st0{fill-rule:evenodd;clip-rule:evenodd;fill:#0B990E;}
	.st1{fill:none;stroke:#000000;stroke-width:0.1702;stroke-miterlimit:2.6131;}
	.st2{fill-rule:evenodd;clip-rule:evenodd;}
	.st3{fill-rule:evenodd;clip-rule:evenodd;fill:#076109;}
	.st4{fill-rule:evenodd;clip-rule:evenodd;fill:#043E05;}
	.st5{fill-rule:evenodd;clip-rule:evenodd;fill:#011702;}
</style>
<g>
	<path d="M47.6,27.2H49c1.2,0,2.1,0,2.7,0.1c1.4,0.3,2.5,0.7,3,1.2c1,0.8,1.5,1.9,1.5,3.3c0,1.4-0.5,2.7-1.4,3.7
		c-1,1-2.2,1.7-3.7,2.1c0.2,0,0.3,0,0.4,0.1c0.5,0.1,0.8,0.2,1.2,0.3s0.6,0.2,1,0.3s0.6,0.2,0.8,0.3c0.8,0.5,1.4,1,1.8,1.6
		c0.5,0.8,0.8,1.7,0.8,2.6c0,2.3-1,4.1-2.9,5.5c-0.8,0.6-1.8,0.9-2.9,1.1c-1.1,0.2-2.4,0.2-4,0.2h-3.9h-0.8c0-0.5,0-1.1,0.1-2
		c0-0.9,0.1-1.6,0.1-2.1l0-11.1l0-3.9l-0.2-3.2c0.5,0,1.3,0,2.4,0L47.6,27.2z M45.5,34.2l0,2.8H47c1.7,0,3-0.2,4-0.7
		c1.7-0.8,2.5-2.1,2.5-4c0-0.7-0.2-1.4-0.5-2.1c-0.3-0.6-0.8-1.1-1.4-1.4c-0.8-0.4-2-0.6-3.7-0.6c-0.3,0-0.6,0-1.1,0
		c-0.5,0-0.9,0-1.2,0c0,0.6,0,1.4,0,2.6L45.5,34.2L45.5,34.2z M45.5,48c0.3,0,0.8,0.1,1.4,0.1c0.6,0.1,1.2,0.1,1.6,0.1
		c1.6,0,2.9-0.5,3.9-1.4c1-1,1.5-2.2,1.5-3.7c0-0.9-0.2-1.7-0.5-2.3s-0.8-1.2-1.6-1.7c-0.8-0.6-2.4-0.9-4.7-0.9h-1.9L45.5,48z"/>
	<path d="M66.8,34.7c0.5,0,1.2,0,2.2-0.1c0,0.1,0,0.2,0,0.3c0,0.1,0,0.3,0,0.3c0,0.3,0,0.5,0.1,0.6c-0.2,0-0.5,0-0.9-0.1
		c-0.4,0-0.7-0.1-1-0.1l-2.2-0.1h-1.6L63.2,39v1v1.3h2.2l1.1-0.1c0.2,0,0.6,0,1,0c0.4,0,0.7,0,1,0c-0.1,0.4-0.1,0.6-0.1,0.6
		c0,0,0,0.2,0.1,0.6c-0.8-0.1-1.4-0.2-1.9-0.2l-1.2,0h-0.9h-1.2v1.7v2.7c0,0.8,0,1.5,0,1.9c1.3,0,2.6,0,3.9-0.1c0.6,0,1.3-0.1,2-0.2
		c0,0.6,0,1,0,1.3l-1.5,0c-1.2,0-2.1-0.1-2.7-0.1c-0.2,0-0.5,0-1,0c-0.4,0-0.7,0-1,0c-0.2,0-0.5,0-0.9,0c-0.4,0-0.7,0-0.9,0l0.2-2.7
		l0-7.4l0-1.9c0-0.3,0-1.2-0.1-2.8l2.3,0.1L66.8,34.7L66.8,34.7z"/>
	<path d="M74.1,46.5c0,0.2,0,0.5,0,1c0,0.4,0,0.7,0,1c1.3,0,2.6,0,3.9-0.1c0.3,0,1-0.1,2.1-0.2c0,0.3-0.1,0.5-0.1,0.6
		c0,0.1,0,0.3,0.1,0.6l-1.6,0c-1.2,0-2.1-0.1-2.7-0.1c-0.2,0-0.5,0-1,0c-0.4,0-0.7,0-1,0c-0.2,0-0.5,0-0.9,0c-0.4,0-0.7,0-0.9,0
		l0.2-2.7v-9.3c0-1,0-1.9-0.1-2.7h1.5h0.5L74.2,38c-0.1,1.1-0.1,2.2-0.1,3.3c0,0.3,0,0.7,0,1.3c0,0.6,0,1,0,1.3L74.1,46.5L74.1,46.5
		z"/>
	<path d="M84.6,34.4l2.9,5.7c1.1,2,2.2,4,3.3,5.9c0.3-0.6,0.7-1.2,0.9-1.7c0.3-0.5,0.5-0.9,0.8-1.4l2.9-5.3c0.1-0.2,0.4-0.7,0.8-1.5
		c0.4-0.8,0.8-1.4,1-1.8h0.3l1.1,9.4c0.1,0.9,0.2,1.9,0.4,3c0.1,1.1,0.3,2,0.3,2.6c-0.4,0-0.7-0.1-1-0.1c-0.5,0-0.9,0-1.1,0.1
		l-0.7-7.9c-0.1-1.1-0.3-2.1-0.4-3.2l-3,5.6L92,46.2c-0.2,0.3-0.4,0.8-0.7,1.4c-0.3,0.6-0.5,1.2-0.8,1.8h-0.2l-1.2-2.4
		c-0.3-0.7-0.8-1.5-1.2-2.5c-0.5-0.9-1-1.9-1.5-2.8c-0.5-1-1.1-2-1.7-3.2l-1,8.5L83.7,49v0.5c-0.1,0-0.2,0-0.4,0c-0.2,0-0.3,0-0.4,0
		c-0.3,0-0.5,0-0.7,0v-0.2l0.7-4.5l1.1-7.9c0-0.3,0.1-0.6,0.2-1.1c0.1-0.4,0.1-0.9,0.2-1.4H84.6L84.6,34.4z"/>
	<path d="M113.6,35.2c2.6,1.4,4,3.6,4,6.6c0,1.6-0.3,3-1.1,4.2c-0.7,1.2-1.7,2.2-2.9,2.8c-1.3,0.6-2.7,1-4.3,1
		c-1.7,0-3.2-0.4-4.4-1.1c-1.3-0.7-2.2-1.8-3-3.3c-0.1-0.3-0.3-0.9-0.5-1.7c-0.1-0.5-0.1-1.1-0.1-1.6c0-2.4,0.8-4.3,2.4-5.7
		c1.6-1.4,3.4-2.1,5.6-2.1C111,34.2,112.5,34.5,113.6,35.2z M114.1,37.1c-0.5-0.7-1.2-1.2-2-1.6c-0.8-0.4-1.6-0.5-2.5-0.5
		c-1.4,0-2.6,0.4-3.6,1.1c-0.9,0.6-1.5,1.5-1.9,2.6c-0.4,1.1-0.6,2.3-0.6,3.6c0,2,0.5,3.6,1.6,4.8c1.1,1.3,2.6,2,4.4,2
		c1,0,1.9-0.2,2.7-0.7c0.8-0.5,1.5-1.1,2.1-1.9c0.5-0.8,0.9-1.7,1.1-2.7c0.1-0.6,0.2-1.3,0.2-2c0-1-0.1-1.9-0.3-2.7
		C115,38.5,114.6,37.8,114.1,37.1z"/>
	<path d="M120.8,41.6v-7.3h0.4l10.7,11.4l0.1,0.2c0-0.5,0.1-1.3,0.1-2.4v-6.9l-0.1-1.7l0-0.2c0.4,0,0.7,0.1,1,0.1
		c0.1,0,0.3,0,0.5-0.1c0,0,0,0.1,0,0.2c0,0.1,0,0.2,0,0.3l-0.1,2.1l-0.2,5.1l-0.1,4.8l0.1,2.4h-0.3c-0.6-0.6-1-1.1-1.3-1.5l-3.5-3.9
		l-6-6.4l0,2v3.2v1.7l0,2.6l0.1,2.1c-0.2,0-0.4-0.1-0.7-0.1c-0.3,0-0.6,0-0.7,0.1c0.1-1.3,0.2-2.2,0.2-2.9L120.8,41.6z"/>
	<path d="M144.1,35.7h-1.1h-0.5c0,0.1,0,0.3,0,0.5l-0.1,2.3v8.6l0.1,2.2l0,0.1c-0.1,0-0.3,0-0.5-0.1c-0.2,0-0.4,0-0.5,0
		c-0.4,0-0.8,0-1.1,0.1c0-0.1,0-0.3,0-0.5l0.1-2.3l0.1-8.7v-2.2c-0.3,0-0.8,0-1.4,0c-0.6,0-1.1,0-1.4,0.1l-2.1,0.2
		c0-0.3,0-0.7,0-1.3c0.3,0,0.8,0,1.5,0.1c0.7,0,1.1,0.1,1.5,0.1l2.9,0l2.7-0.1l2.7-0.1c0,0.3-0.1,0.5-0.1,0.7c0,0.1,0,0.4,0.1,0.7
		c-0.3,0-0.5-0.1-0.6-0.1L144.1,35.7z"/>
	<path d="M69.7,50.9c0.2,0,0.5,0,1,0c0,0,0,0.1,0,0.1c0,0.1,0,0.1,0,0.2c0,0.1,0,0.2,0,0.3c-0.1,0-0.2,0-0.4,0c-0.2,0-0.3,0-0.5,0
		l-1,0h-0.7l0,1.4v0.4v0.5h1l0.5,0c0.1,0,0.2,0,0.4,0c0.2,0,0.3,0,0.4,0c0,0.2,0,0.3,0,0.3s0,0.1,0,0.3c-0.3,0-0.6-0.1-0.8-0.1
		l-0.5,0h-0.4h-0.5v0.8l0,2.4h-0.6h-0.2l0.1-1.2l0-3.2l0-0.8c0-0.1,0-0.5,0-1.2l1,0H69.7L69.7,50.9z"/>
	<path d="M72.5,53.8c0,0.6,0,1.1,0,1.4c0,0,0,0.1,0,0.2s0,0.2,0,0.2l0.1,1.6c-0.2,0-0.3,0-0.4,0c-0.1,0-0.2,0-0.4,0l0.1-1.6
		c0-0.1,0-0.2,0-0.4c0-0.2,0-0.3,0-0.4v-0.6v-0.6l0-1.6c0.2,0,0.3,0,0.3,0c0.2,0,0.3,0,0.4,0L72.5,53.8z"/>
	<path d="M74.1,54.5V52h0.1l3.7,4l0,0c0-0.2,0-0.5,0-0.8v-2.4l0-0.6l0-0.1c0.2,0,0.3,0,0.3,0c0,0,0.1,0,0.2,0c0,0,0,0,0,0.1
		c0,0,0,0.1,0,0.1l0,0.7l-0.1,1.8l0,1.7l0,0.8h-0.1c-0.2-0.2-0.3-0.4-0.5-0.5l-1.2-1.4l-2.1-2.2l0,0.7V55v0.6l0,0.9l0,0.7
		c-0.1,0-0.2,0-0.3,0c-0.1,0-0.2,0-0.3,0c0-0.4,0-0.8,0.1-1L74.1,54.5z"/>
	<path d="M81.7,52l2.1,5l0.1,0.3c-0.2,0-0.3,0-0.4,0c-0.2,0-0.3,0-0.4,0l-0.1-0.2l-0.3-0.9l-0.4-0.9l-0.9,0l-1,0
		c-0.4,1-0.6,1.6-0.7,2c0,0-0.1,0-0.3,0c-0.1,0-0.2,0-0.3,0l2.4-5.3L81.7,52L81.7,52z M82.3,54.9L81.5,53l-0.8,1.9h0.9H82.3z"/>
	<path d="M85,54.5V52h0.1l3.7,4l0,0c0-0.2,0-0.5,0-0.8v-2.4l0-0.6l0-0.1c0.2,0,0.3,0,0.3,0c0,0,0.1,0,0.2,0c0,0,0,0,0,0.1
		c0,0,0,0.1,0,0.1l0,0.7l-0.1,1.8l0,1.7l0,0.8h-0.1c-0.2-0.2-0.3-0.4-0.5-0.5l-1.2-1.4l-2.1-2.2l0,0.7V55v0.6l0,0.9l0,0.7
		c-0.1,0-0.2,0-0.3,0c-0.1,0-0.2,0-0.3,0c0-0.4,0-0.8,0.1-1L85,54.5z"/>
	<path d="M94.6,52.9C94.5,52.9,94.5,52.9,94.6,52.9C94.5,52.9,94.5,52.9,94.6,52.9c-0.5-0.5-0.9-0.6-1.4-0.6c-0.5,0-0.8,0.1-1.1,0.3
		c-0.3,0.2-0.6,0.5-0.7,0.9c-0.2,0.4-0.2,0.8-0.2,1.2c0,0.2,0,0.6,0.1,1c0.1,0.3,0.2,0.5,0.4,0.7c0.2,0.2,0.4,0.4,0.7,0.5
		c0.3,0.1,0.6,0.2,0.9,0.2c0.5,0,1-0.2,1.5-0.5c0,0,0.1-0.1,0.1-0.1l-0.1,0.5c-0.4,0.3-1,0.4-1.7,0.4c-0.5,0-1-0.1-1.4-0.3
		c-0.4-0.2-0.7-0.5-0.9-0.9c-0.2-0.4-0.3-0.9-0.3-1.4c0-0.4,0.1-0.7,0.2-1.1c0.2-0.4,0.4-0.7,0.6-0.9c0.5-0.4,1.2-0.7,2-0.7
		c0.6,0,1.1,0.1,1.6,0.3C94.7,52.5,94.6,52.7,94.6,52.9L94.6,52.9z"/>
	<path d="M97.6,52.1c0.2,0,0.4,0,0.8,0c0,0,0,0.1,0,0.1c0,0,0,0.1,0,0.1c0,0.1,0,0.2,0,0.2c-0.1,0-0.2,0-0.3,0c-0.1,0-0.3,0-0.4,0
		l-0.8,0h-0.6l0,1.1v0.3v0.4h0.8l0.4,0c0.1,0,0.2,0,0.3,0c0.2,0,0.3,0,0.3,0c0,0.2,0,0.2,0,0.2s0,0.1,0,0.2c-0.3,0-0.5,0-0.7,0
		l-0.4,0h-0.3h-0.4v0.6v1c0,0.3,0,0.5,0,0.6c0.5,0,0.9,0,1.4,0c0.2,0,0.4,0,0.7-0.1c0,0.2,0,0.3,0,0.5l-0.5,0c-0.4,0-0.7,0-0.9,0
		c-0.1,0-0.2,0-0.3,0c-0.2,0-0.3,0-0.3,0c-0.1,0-0.2,0-0.3,0c-0.1,0-0.2,0-0.3,0l0-1l0-2.6l0-0.6c0-0.1,0-0.4,0-1l0.8,0L97.6,52.1
		L97.6,52.1z"/>
	<path d="M99.2,58.8l0.7-2.1c0.1-0.4,0.2-0.5,0.4-0.5c0.2,0,0.4,0.1,0.4,0.3c0,0.1-0.1,0.3-0.2,0.5l-1.1,1.8L99.2,58.8z"/>
	<path d="M106.3,56c0,0.1,0,0.2,0,0.4c0,0.2,0,0.3,0,0.4c0.6,0,1.1,0,1.7,0c0.1,0,0.4,0,0.9-0.1c0,0.1,0,0.2,0,0.3c0,0,0,0.2,0,0.3
		l-0.7,0c-0.5,0-0.9,0-1.2,0c-0.1,0-0.2,0-0.4,0c-0.2,0-0.3,0-0.4,0c-0.1,0-0.2,0-0.4,0c-0.2,0-0.3,0-0.4,0l0.1-1.2v-4
		c0-0.4,0-0.8,0-1.2h0.7h0.2l-0.1,1.4c0,0.5,0,1,0,1.4c0,0.1,0,0.3,0,0.6c0,0.3,0,0.4,0,0.6V56L106.3,56z"/>
	<path d="M111,56c0,0.1,0,0.2,0,0.4c0,0.2,0,0.3,0,0.4c0.6,0,1.1,0,1.7,0c0.1,0,0.4,0,0.9-0.1c0,0.1,0,0.2,0,0.3c0,0,0,0.2,0,0.3
		l-0.7,0c-0.5,0-0.9,0-1.2,0c-0.1,0-0.2,0-0.4,0c-0.2,0-0.3,0-0.4,0c-0.1,0-0.2,0-0.4,0c-0.2,0-0.3,0-0.4,0l0.1-1.2v-4
		c0-0.4,0-0.8,0-1.2h0.7h0.2l-0.1,1.4c0,0.5,0,1,0,1.4c0,0.1,0,0.3,0,0.6c0,0.3,0,0.4,0,0.6V56L111,56z"/>
	<path d="M119.8,51.9C119.7,51.9,119.7,51.8,119.8,51.9c-0.1-0.1-0.1-0.1-0.1-0.1c-0.5-0.5-1.1-0.7-1.7-0.7c-0.6,0-1,0.1-1.4,0.4
		c-0.4,0.3-0.7,0.6-0.9,1.1c-0.2,0.5-0.3,1-0.3,1.5c0,0.3,0,0.7,0.2,1.2c0.1,0.3,0.3,0.6,0.5,0.9c0.2,0.3,0.5,0.5,0.8,0.7
		c0.3,0.2,0.7,0.2,1.1,0.2c0.6,0,1.3-0.2,1.9-0.7c0,0,0.1-0.1,0.2-0.1l-0.1,0.6c-0.5,0.3-1.2,0.5-2.1,0.5c-0.7,0-1.3-0.1-1.8-0.4
		c-0.5-0.3-0.9-0.7-1.1-1.2c-0.3-0.5-0.4-1.1-0.4-1.8c0-0.5,0.1-0.9,0.3-1.4c0.2-0.5,0.5-0.8,0.8-1.1c0.6-0.6,1.5-0.8,2.5-0.8
		c0.7,0,1.4,0.2,2,0.4c-0.1,0.2-0.1,0.4-0.2,0.7L119.8,51.9z"/>
	<path class="st0" d="M44.5,0.2l-1,0.8l-1,0.9l-0.9,0.8l-0.8,0.9l-0.8,0.9l-0.7,0.8l-0.7,0.9l-0.6,0.9L37.6,8L37.1,9l-0.5,0.9
		l-0.4,0.9l-0.4,0.9l-0.3,0.9l-0.5,1.8l-0.5,1.8L34.1,18l-0.2,1.8l-0.2,1.9l-0.2,1.8l-0.1,1.8l-0.1,3.7L33.2,31l-0.2,1.9l-0.2,1.8
		l-0.3,1.8l-0.3,1.8l-0.5,1.9L31.2,42l-0.3,0.9l-0.4,0.9l-0.4,0.9l-0.5,0.9l-0.5,0.9l-0.6,0.9l-0.6,0.9l-0.6,0.9l-0.7,0.8l-0.8,0.8
		l-0.8,0.9L24,52.5l-1,0.8l-1,0.9L21,55l-1.2,0.8l-1.2,0.8l-1.3,0.8l1.3-1.2l1.1-1.3l1-1.4l0.9-1.4l0.8-1.5l0.7-1.6l0.6-1.6l0.5-1.7
		l0.5-1.8l0.5-1.8l0.4-1.8l0.4-1.9l0.8-3.8l0.8-4l0.4-2l0.5-2l0.5-2l0.6-2l0.6-2l0.7-2l0.8-2l0.9-2l1-1.9l1.1-1.9L35.9,9l0.7-0.9
		l0.7-0.9l0.8-0.9l0.8-0.9l0.8-0.9l0.9-0.8l0.9-0.9l1-0.8l1-0.8L44.5,0.2z"/>
	<path class="st1" d="M44.5,0.2l-1,0.8l-1,0.9l-0.9,0.8l-0.8,0.9l-0.8,0.9l-0.7,0.8l-0.7,0.9l-0.6,0.9L37.6,8L37.1,9l-0.5,0.9
		l-0.4,0.9l-0.4,0.9l-0.3,0.9l-0.5,1.8l-0.5,1.8L34.1,18l-0.2,1.8l-0.2,1.9l-0.2,1.8l-0.1,1.8l-0.1,3.7L33.2,31l-0.2,1.9l-0.2,1.8
		l-0.3,1.8l-0.3,1.8l-0.5,1.9L31.2,42l-0.3,0.9l-0.4,0.9l-0.4,0.9l-0.5,0.9l-0.5,0.9l-0.6,0.9l-0.6,0.9l-0.6,0.9l-0.7,0.8l-0.8,0.8
		l-0.8,0.9L24,52.5l-1,0.8l-1,0.9L21,55l-1.2,0.8l-1.2,0.8l-1.3,0.8l1.3-1.2l1.1-1.3l1-1.4l0.9-1.4l0.8-1.5l0.7-1.6l0.6-1.6l0.5-1.7
		l0.5-1.8l0.5-1.8l0.4-1.8l0.4-1.9l0.8-3.8l0.8-4l0.4-2l0.5-2l0.5-2l0.6-2l0.6-2l0.7-2l0.8-2l0.9-2l1-1.9l1.1-1.9L35.9,9l0.7-0.9
		l0.7-0.9l0.8-0.9l0.8-0.9l0.8-0.9l0.9-0.8l0.9-0.9l1-0.8l1-0.8L44.5,0.2z"/>
	<path class="st2" d="M6.1,14.3v-0.4l0.1-0.4l0.2-0.7l0.3-0.7l0.5-0.6l0.6-0.5l0.6-0.3l0.7-0.2l0.4-0.1h0.4h0.4l0.4,0.1l0.7,0.2
		l0.7,0.3l0.6,0.5l0.5,0.6l0.3,0.7l0.2,0.7l0.1,0.4l0,0.4l0,0.4l-0.1,0.4l-0.2,0.7l-0.3,0.7l-0.5,0.6l-0.6,0.5l-0.7,0.3l-0.7,0.2
		l-0.4,0.1l-0.4,0l-0.4,0l-0.4-0.1l-0.7-0.2l-0.6-0.3l-0.6-0.5l-0.5-0.6l-0.3-0.7l-0.2-0.7l-0.1-0.4V14.3z"/>
	<path class="st2" d="M40.8,14.1v-0.4l0.1-0.4l0.2-0.7l0.3-0.6l0.5-0.6l0.6-0.5l0.7-0.3l0.7-0.2l0.4-0.1h0.4H45l0.4,0.1l0.7,0.2
		l0.6,0.3l0.6,0.5l0.5,0.6l0.3,0.6l0.2,0.7l0.1,0.4l0,0.4l0,0.4l-0.1,0.4l-0.2,0.7l-0.3,0.7l-0.5,0.6l-0.6,0.5l-0.6,0.3l-0.7,0.2
		L45,18l-0.4,0l-0.4,0l-0.4-0.1l-0.7-0.2l-0.7-0.3l-0.6-0.5l-0.5-0.6l-0.3-0.7l-0.2-0.7l-0.1-0.4V14.1z"/>
	<path class="st2" d="M23.5,8V7.5l0.1-0.4l0.2-0.7l0.3-0.6l0.5-0.6l0.6-0.5l0.7-0.3l0.7-0.2L27,4.1h0.4h0.4l0.4,0.1l0.7,0.2l0.7,0.3
		l0.6,0.5l0.5,0.6l0.3,0.6l0.2,0.7l0.1,0.4l0,0.4l0,0.4l-0.1,0.4l-0.2,0.7l-0.3,0.7l-0.5,0.6l-0.6,0.5l-0.7,0.3l-0.7,0.2l-0.4,0.1
		l-0.4,0l-0.4,0l-0.4-0.1l-0.7-0.2l-0.7-0.3l-0.6-0.5l-0.5-0.6l-0.3-0.7l-0.2-0.7l-0.1-0.4V8z"/>
	<path class="st3" d="M9.3,0l1,0.8l1,0.8l0.9,0.9L13,3.4l0.8,0.9l0.7,0.9L15.1,6l0.6,0.9l0.5,0.9l0.5,0.9l0.5,0.9l0.4,0.9l0.4,0.9
		l0.3,0.9l0.6,1.8l0.4,1.8l0.3,1.8l0.3,1.9l0.2,1.8l0.1,1.8l0.1,1.8l0.2,3.7l0.1,1.9l0.1,1.8l0.2,1.8l0.3,1.9l0.4,1.8L22,40l0.6,1.8
		l0.4,0.9l0.4,0.9l0.4,0.9l0.5,0.9l0.5,0.9l0.6,0.9l0.6,0.9l0.6,0.9l0.7,0.8l0.8,0.9l0.9,0.8l0.9,0.8l1,0.8l1,0.8l1.1,0.8l1.1,0.8
		l1.3,0.8l1.3,0.9l-1.2-1.2l-1.1-1.3l-1-1.4l-0.9-1.4l-0.8-1.5L30.9,49l-0.6-1.6l-0.6-1.7l-0.5-1.8l-0.5-1.8l-0.4-1.8l-0.4-1.9
		l-0.8-3.9l-0.8-4l-0.4-2l-0.5-2l-0.5-2l-0.6-2l-0.6-2l-0.7-2l-0.8-2l-0.9-2l-1-1.9l-1.1-1.9l-1.3-1.9l-0.6-0.9l-0.7-0.9L15.7,6
		L15,5.1l-0.9-0.9l-0.9-0.8l-0.9-0.9l-1-0.8l-1-0.8L9.3,0z"/>
	<path class="st1" d="M9.3,0l1,0.8l1,0.8l0.9,0.9L13,3.4l0.8,0.9l0.7,0.9L15.1,6l0.6,0.9l0.5,0.9l0.5,0.9l0.5,0.9l0.4,0.9l0.4,0.9
		l0.3,0.9l0.6,1.8l0.4,1.8l0.3,1.8l0.3,1.9l0.2,1.8l0.1,1.8l0.1,1.8l0.2,3.7l0.1,1.9l0.1,1.8l0.2,1.8l0.3,1.9l0.4,1.8L22,40l0.6,1.8
		l0.4,0.9l0.4,0.9l0.4,0.9l0.5,0.9l0.5,0.9l0.6,0.9l0.6,0.9l0.6,0.9l0.7,0.8l0.8,0.9l0.9,0.8l0.9,0.8l1,0.8l1,0.8l1.1,0.8l1.1,0.8
		l1.3,0.8l1.3,0.9l-1.2-1.2l-1.1-1.3l-1-1.4l-0.9-1.4l-0.8-1.5L30.9,49l-0.6-1.6l-0.6-1.7l-0.5-1.8l-0.5-1.8l-0.4-1.8l-0.4-1.9
		l-0.8-3.9l-0.8-4l-0.4-2l-0.5-2l-0.5-2l-0.6-2l-0.6-2l-0.7-2l-0.8-2l-0.9-2l-1-1.9l-1.1-1.9l-1.3-1.9l-0.6-0.9l-0.7-0.9L15.7,6
		L15,5.1l-0.9-0.9l-0.9-0.8l-0.9-0.9l-1-0.8l-1-0.8L9.3,0z"/>
	<path class="st4" d="M0,20.8l1.3,0.2l1.3,0.3l1.2,0.3L4.9,22L6,22.4L7,22.8l1,0.4l1,0.5l0.9,0.5l0.9,0.5l0.8,0.5l0.8,0.6L14,27
		l1.4,1.3l1.3,1.4l1.2,1.4l1.1,1.5l1.1,1.5l1,1.5l1,1.6l2,3.2l1,1.6l1,1.5l1.1,1.5l1.1,1.4l1.2,1.4l1.3,1.4l1.4,1.3l1.6,1.2l0.8,0.5
		l0.9,0.6l0.9,0.5l0.9,0.5l1,0.5l1,0.4l1.1,0.4l1.1,0.4l1.1,0.3l1.2,0.3l1.3,0.3l1.3,0.2l1.4,0.2l1.4,0.1l1.5,0.1l1.5,0.1l-0.8-0.2
		l-0.8-0.2L49,55.9l-1.5-0.7L46,54.4l-1.4-0.9l-1.4-1l-1.4-1.1l-1.3-1.2l-1.3-1.3l-1.3-1.3l-1.3-1.4l-1.3-1.4L34,43.3l-1.3-1.5
		l-2.7-3l-1.4-1.5l-1.4-1.5l-1.4-1.5l-1.5-1.4l-1.6-1.4L21.1,30l-1.7-1.3l-1.8-1.3l-1.8-1.2l-1.9-1.1l-2-1l-2.1-0.9l-2.2-0.8
		l-2.4-0.6l-2.5-0.6L1.3,21L0,20.8z"/>
	<path class="st1" d="M0,20.8l1.3,0.2l1.3,0.3l1.2,0.3L4.9,22L6,22.4L7,22.8l1,0.4l1,0.5l0.9,0.5l0.9,0.5l0.8,0.5l0.8,0.6L14,27
		l1.4,1.3l1.3,1.4l1.2,1.4l1.1,1.5l1.1,1.5l1,1.5l1,1.6l2,3.2l1,1.6l1,1.5l1.1,1.5l1.1,1.4l1.2,1.4l1.3,1.4l1.4,1.3l1.6,1.2l0.8,0.5
		l0.9,0.6l0.9,0.5l0.9,0.5l1,0.5l1,0.4l1.1,0.4l1.1,0.4l1.1,0.3l1.2,0.3l1.3,0.3l1.3,0.2l1.4,0.2l1.4,0.1l1.5,0.1l1.5,0.1l-0.8-0.2
		l-0.8-0.2L49,55.9l-1.5-0.7L46,54.4l-1.4-0.9l-1.4-1l-1.4-1.1l-1.3-1.2l-1.3-1.3l-1.3-1.3l-1.3-1.4l-1.3-1.4L34,43.3l-1.3-1.5
		l-2.7-3l-1.4-1.5l-1.4-1.5l-1.4-1.5l-1.5-1.4l-1.6-1.4L21.1,30l-1.7-1.3l-1.8-1.3l-1.8-1.2l-1.9-1.1l-2-1l-2.1-0.9l-2.2-0.8
		l-2.4-0.6l-2.5-0.6L1.3,21L0,20.8z"/>
	<path class="st5" d="M54.2,19.3l-1.3,0.3l-1.3,0.3l-1.2,0.3l-1.1,0.4L48.3,21l-1,0.4l-1,0.5l-0.9,0.5l-0.9,0.5l-0.8,0.6l-0.8,0.6
		l-0.8,0.6l-1.5,1.3l-1.4,1.4l-1.3,1.4l-1.2,1.5l-1.1,1.5l-1,1.6l-1,1.5l-1,1.6l-1.9,3.2l-1,1.6l-1,1.6l-1,1.5l-1.1,1.5l-1.2,1.5
		l-1.3,1.4l-1.4,1.3l-1.5,1.3l-0.8,0.6l-0.8,0.6l-0.9,0.5L18,53.4l-1,0.5l-1,0.5l-1,0.4l-1.1,0.4l-1.1,0.4l-1.2,0.3l-1.3,0.3
		l-1.3,0.3l-1.4,0.2l-1.4,0.2L4.8,57l-1.6,0.1l1.7-0.4L6.4,56L8,55.3l1.4-0.8l1.4-1l1.4-1.1l1.3-1.1l1.3-1.2l1.3-1.3l1.3-1.4
		l1.3-1.4l1.3-1.5l1.2-1.5l1.3-1.5l2.6-3.1l1.3-1.6l1.4-1.5l1.4-1.6l1.4-1.5l1.5-1.5l1.6-1.4l1.6-1.4l1.7-1.3l1.8-1.3l1.9-1.2l2-1.1
		l2.1-1l2.2-0.8l2.3-0.8l2.5-0.6L54.2,19.3z"/>
	<path class="st1" d="M54.2,19.3l-1.3,0.3l-1.3,0.3l-1.2,0.3l-1.1,0.4L48.3,21l-1,0.4l-1,0.5l-0.9,0.5l-0.9,0.5l-0.8,0.6l-0.8,0.6
		l-0.8,0.6l-1.5,1.3l-1.4,1.4l-1.3,1.4l-1.2,1.5l-1.1,1.5l-1,1.6l-1,1.5l-1,1.6l-1.9,3.2l-1,1.6l-1,1.6l-1,1.5l-1.1,1.5l-1.2,1.5
		l-1.3,1.4l-1.4,1.3l-1.5,1.3l-0.8,0.6l-0.8,0.6l-0.9,0.5L18,53.4l-1,0.5l-1,0.5l-1,0.4l-1.1,0.4l-1.1,0.4l-1.2,0.3l-1.3,0.3
		l-1.3,0.3l-1.4,0.2l-1.4,0.2L4.8,57l-1.6,0.1l1.7-0.4L6.4,56L8,55.3l1.4-0.8l1.4-1l1.4-1.1l1.3-1.1l1.3-1.2l1.3-1.3l1.3-1.4
		l1.3-1.4l1.3-1.5l1.2-1.5l1.3-1.5l2.6-3.1l1.3-1.6l1.4-1.5l1.4-1.6l1.4-1.5l1.5-1.5l1.6-1.4l1.6-1.4l1.7-1.3l1.8-1.3l1.9-1.2l2-1.1
		l2.1-1l2.2-0.8l2.3-0.8l2.5-0.6L54.2,19.3z"/>
</g>
</svg>
