<svg width="146" height="74" viewBox="0 0 146 74" fill="none" xmlns="http://www.w3.org/2000/svg">
<rect width="146" height="74" rx="5" fill="#13AC6C" fill-opacity="0.08"/>
<path d="M114 50.5226C113.974 50.4621 113.936 50.4073 113.889 50.3614C113.841 50.3155 113.785 50.2795 113.724 50.2553C113.663 50.2311 113.597 50.2193 113.531 50.2206C113.465 50.2218 113.4 50.2361 113.34 50.2626C108.73 52.2626 105.92 52.1926 104.47 50.4426C103.28 49.0026 102.93 46.4426 103.17 42.7326L103.22 41.9226V41.3426C103.22 41.0526 103.28 40.7326 103.32 40.3426L103.6 37.5826L103.67 36.7726C103.783 35.8963 103.783 35.009 103.67 34.1326C103.41 32.4826 102.32 32.1326 100.67 33.2626L100.46 33.4126L100.09 33.6826L97.2398 36.0026L97.0198 36.1726C96.1031 36.8996 95.1412 37.5676 94.1398 38.1726C93.9682 38.2723 93.7913 38.3625 93.6098 38.4426L93.6698 38.1726L93.7598 37.8226C94.1998 36.1826 95.4098 32.4426 97.3498 26.6926L100.93 16.0926C101.56 14.2026 101.93 13.0926 101.99 12.7226C102.016 12.5913 101.99 12.4549 101.915 12.3433C101.841 12.2317 101.726 12.1541 101.595 12.1276C101.463 12.1011 101.327 12.1278 101.215 12.2019C101.104 12.276 101.026 12.3913 101 12.5226C98.6831 19.7007 95.313 26.4949 90.9998 32.6826L90.5698 33.2726C87.5698 37.2726 84.7798 39.7026 83.6898 39.5226C82.1298 39.2726 81.6098 37.8526 82.0898 35.5926L82.1798 35.2026L86.4598 31.9326L86.5798 31.8326C86.7897 31.7003 86.969 31.5248 87.106 31.3179C87.2429 31.111 87.3342 30.8773 87.374 30.6323C87.4137 30.3874 87.4009 30.1368 87.3363 29.8972C87.2718 29.6576 87.1571 29.4345 86.9998 29.2426C86.3298 28.4926 85.1898 28.5426 84.2198 29.4326C82.8377 30.8931 81.8381 32.6725 81.3098 34.6126L73.4398 40.5626C73.8698 39.7026 74.2898 38.8226 74.6798 37.9426C74.9398 37.3826 75.1798 36.8326 75.3998 36.3026C76.002 34.9426 76.4773 33.53 76.8198 32.0826C76.84 31.9962 76.8363 31.9058 76.8092 31.8213C76.782 31.7368 76.7324 31.6612 76.6657 31.6027C76.5989 31.5442 76.5175 31.5049 76.4302 31.489C76.3429 31.4731 76.2528 31.4813 76.1698 31.5126C73.9632 32.269 71.8199 33.1986 69.7598 34.2926L70.1198 33.3426L70.4798 32.3426C74.9998 20.2526 74.9998 14.0026 71.7498 12.3026C68.4998 10.6026 60.8998 16.1626 50.9298 26.5326L49.7598 27.7626L48.9898 28.5826C41.7898 36.2926 34.4998 45.3126 32.0698 49.4226C32.0028 49.5371 31.9831 49.6733 32.0148 49.8021C32.0465 49.9309 32.1272 50.0423 32.2398 50.1126C32.2961 50.1471 32.3588 50.17 32.4241 50.1801C32.4894 50.1903 32.5561 50.1873 32.6202 50.1715C32.6844 50.1557 32.7448 50.1273 32.7979 50.0881C32.851 50.0488 32.8959 49.9993 32.9298 49.9426L33.2098 49.4826L33.5298 49.0026C36.5998 44.2526 44.1498 35.0626 51.2498 27.6326L52.3598 26.4926L53.4398 25.3926C62.0998 16.6526 68.7698 11.9226 71.3098 13.2026C74.1498 14.6326 73.8298 21.1426 68.7898 34.0926L68.4198 35.0426C63.5574 37.8337 59.3064 41.5746 55.9198 46.0426H42.9998V47.0426H55.1998C54.9198 47.4426 54.6398 47.8426 54.3698 48.2526C50.3698 54.5226 49.4698 60.5026 52.5998 61.8426C53.9998 62.4426 55.5198 61.6826 57.1198 59.8426C58.8788 57.6944 60.376 55.3446 61.5798 52.8426C62.2098 51.6126 62.8198 50.3326 63.4798 48.9126L64.3198 47.0026H93.9998V46.0026H64.7698L65.2598 44.9026L65.9998 43.2626C67.2098 40.5726 68.2698 38.0626 69.1998 35.7526C71.259 34.5747 73.4132 33.5712 75.6398 32.7526C75.3157 33.82 74.9318 34.8684 74.4898 35.8926C74.2698 36.4126 74.0398 36.9526 73.7898 37.5026C73.4298 38.3026 73.0398 39.1026 72.6598 39.8926L72.1398 40.8926L71.5898 42.0026C71.5286 42.1031 71.5048 42.2219 71.5226 42.3381C71.5403 42.4544 71.5985 42.5607 71.6869 42.6383C71.7752 42.7159 71.8881 42.7599 72.0057 42.7625C72.1233 42.7651 72.238 42.7262 72.3298 42.6526L80.9998 36.1126C80.6898 38.4826 81.4898 40.1826 83.5498 40.5126C86.3498 41.0026 92.1298 34.1526 96.9998 24.6326L95.2198 29.9426C93.4298 35.3126 92.5798 38.0826 92.5598 38.7426C92.5471 38.8613 92.5622 38.9814 92.6039 39.0933C92.6456 39.2052 92.7127 39.3059 92.8 39.3873C92.8873 39.4688 92.9924 39.5289 93.1069 39.5628C93.2214 39.5966 93.3422 39.6034 93.4598 39.5826C93.8729 39.5069 94.267 39.3506 94.6198 39.1226C95.457 38.6116 96.2649 38.0541 97.0398 37.4526L97.8398 36.8326L100.61 34.6426L100.93 34.4026L101.3 34.1226C102.3 33.4226 102.54 33.4626 102.67 34.2126V34.3226C102.775 35.3215 102.751 36.3297 102.6 37.3226L102.27 40.5826L102.2 41.3226C102.2 41.7826 102.13 42.2026 102.1 42.6326C101.85 46.6326 102.23 49.3426 103.63 51.0526C105.43 53.2226 108.7 53.3326 113.63 51.1526C113.696 51.1363 113.758 51.107 113.813 51.0663C113.867 51.0256 113.913 50.9744 113.948 50.9157C113.982 50.8569 114.005 50.7919 114.013 50.7244C114.022 50.6569 114.018 50.5883 114 50.5226V50.5226ZM84.9998 30.1726C85.5798 29.6326 86.0898 29.6126 86.3598 29.9126C86.6298 30.2126 86.5498 30.6626 86.0698 31.0426L84.6098 32.1726L82.8498 33.5126C83.3168 32.2756 84.0198 31.1413 84.9198 30.1726H84.9998ZM62.8498 47.8326L62.2998 49.0026C61.7498 50.1826 61.2298 51.2626 60.6898 52.3026C59.5289 54.7389 58.082 57.0284 56.3798 59.1226C55.0298 60.6426 53.8798 61.2226 52.9798 60.8326C50.6998 59.8326 51.4798 54.5226 55.2098 48.7126C55.5898 48.1226 55.9898 47.5426 56.4198 46.9626H63.2298L62.8498 47.8326ZM65.4898 42.0026L63.6798 46.0026H57.1898C59.9918 42.4407 63.3721 39.3747 67.1898 36.9326L67.7498 36.5826C67.0898 38.2826 66.3364 40.0893 65.4898 42.0026V42.0026Z" fill="#2F2E38"/>
</svg>
