<svg width="20" height="20" viewBox="0 0 20 20" fill="none" xmlns="http://www.w3.org/2000/svg">
<path d="M0 9.99995C0 11.2232 0.220039 12.3949 0.621992 13.4782L10 14.3478L19.378 13.4782C19.78 12.3949 20 11.2232 20 9.99995C20 8.77674 19.78 7.60502 19.378 6.5217L10 5.65213L0.621992 6.5217C0.220039 7.60502 0 8.77674 0 9.99995Z" fill="#FFDA44"/>
<path d="M19.3781 6.52176C17.9652 2.71379 14.2997 0 10.0001 0C5.70043 0 2.035 2.71379 0.62207 6.52176H19.3781Z" fill="#D80027"/>
<path d="M0.62207 13.4783C2.035 17.2862 5.70043 20 10.0001 20C14.2997 20 17.9652 17.2862 19.3781 13.4783H0.62207Z" fill="#D80027"/>
</svg>
