<svg width="36" height="36" viewBox="0 0 36 36" fill="none" xmlns="http://www.w3.org/2000/svg">
<g clip-path="url(#clip0)">
<path d="M12.6429 28.2239L7.27212 31.1535C6.95695 31.3254 6.6737 31.5366 6.41016 31.7669C9.54148 34.4071 13.5837 35.9999 18.0001 35.9999C22.384 35.9999 26.4003 34.4309 29.5228 31.8266C29.2348 31.5835 28.9224 31.3648 28.576 31.1922L22.8248 28.317C22.0817 27.9454 21.6123 27.186 21.6123 26.3553V24.0989C21.774 23.9148 21.9588 23.6784 22.1564 23.3992C22.9403 22.2921 23.5332 21.0742 23.9442 19.7965C24.6819 19.569 25.2252 18.8877 25.2252 18.078V15.6694C25.2252 15.1396 24.9896 14.6662 24.6234 14.3347V10.8529C24.6234 10.8529 25.3387 5.43457 18.0008 5.43457C10.6629 5.43457 11.3782 10.8529 11.3782 10.8529V14.3347C11.0114 14.6662 10.7763 15.1396 10.7763 15.6694V18.078C10.7763 18.7125 11.1099 19.2708 11.6091 19.5934C12.2109 22.2133 13.7868 24.0989 13.7868 24.0989V26.2996C13.7861 27.1011 13.3473 27.8395 12.6429 28.2239Z" fill="#D8D8E5"/>
<path d="M18.3077 0.00268041C8.36827 -0.167131 0.172494 7.75287 0.00268219 17.6923C-0.0937706 23.328 2.41808 28.3931 6.41747 31.7615C6.67898 31.5332 6.95951 31.324 7.27129 31.1542L12.6421 28.2246C13.3465 27.8402 13.7852 27.1018 13.7852 26.299V24.0982C13.7852 24.0982 12.2087 22.2126 11.6076 19.5928C11.109 19.2702 10.7748 18.7125 10.7748 18.0774V15.6688C10.7748 15.139 11.0105 14.6655 11.3766 14.3341V10.8523C11.3766 10.8523 10.6614 5.43393 17.9993 5.43393C25.3372 5.43393 24.6219 10.8523 24.6219 10.8523V14.3341C24.9887 14.6655 25.2237 15.139 25.2237 15.6688V18.0774C25.2237 18.8871 24.6803 19.5683 23.9427 19.7959C23.5317 21.0735 22.9388 22.2914 22.1549 23.3986C21.9573 23.6778 21.7725 23.9142 21.6108 24.0982V26.3547C21.6108 27.1854 22.0802 27.9455 22.8233 28.3163L28.5745 31.1916C28.9195 31.3641 29.2313 31.5822 29.5186 31.8246C33.3971 28.5901 35.9028 23.7539 35.9959 18.3077C36.1671 8.36826 28.2477 0.172492 18.3077 0.00268041Z" fill="#53525B"/>
</g>
<defs>
<clipPath id="clip0">
<rect width="36" height="36" fill="white"/>
</clipPath>
</defs>
</svg>
